<?xml version="1.0" encoding="utf-8"?>
<!-- Generator: Adobe Illustrator 19.2.1, SVG Export Plug-In . SVG Version: 6.00 Build 0)  -->
<svg version="1.1" id="Layer_1" xmlns="http://www.w3.org/2000/svg" xmlns:xlink="http://www.w3.org/1999/xlink" x="0px" y="0px"
	 width="200px" height="280px" viewBox="0 0 200 280" style="enable-background:new 0 0 200 280;" xml:space="preserve">
<style type="text/css">
	.st0{fill:url(#SVGID_1_);}
	.st1{fill:#003D51;}
	.st2{opacity:0.2;clip-path:url(#SVGID_3_);fill:#231F20;enable-background:new    ;}
	.st3{fill:#E35205;}
	.st4{opacity:0.2;fill:#231F20;enable-background:new    ;}
</style>
<g>
	
		<linearGradient id="SVGID_1_" gradientUnits="userSpaceOnUse" x1="99.4521" y1="288.5639" x2="99.4521" y2="-6" gradientTransform="matrix(1 0 0 -1 0 282)">
		<stop  offset="0" style="stop-color:#8C4799"/>
		<stop  offset="1" style="stop-color:#E35205"/>
	</linearGradient>
	<path class="st0" d="M200.4,288H-1.4c-2.3,0-4.1-1.9-4.1-4.1V-2.4c0-2.2,1.9-4.1,4.1-4.1h201.8c2.3,0,4.1,1.9,4.1,4.1v286.2
		C204.6,286.1,202.8,288,200.4,288z"/>
	<g>
		<g>
			<g>
				<path class="st1" d="M18.7,330.7c0,0,23.8-90.8,53.7-130l58.2-12.7l-0.3-4.6l-3.2,2.6c0,0-37-16.3-39.2-27.1s0-22.2,0-22.2
					S67.3,113.1,73.8,87L48,39.9l41.8,23.2c0,0,21.6-17,41.8-12.1L148,3.6l11.6,59.1c0,0,28.3,21.9-0.3,79.1l6.4,39.2l39.3,4
					c0,0,8,50.3-9,111.4L173.2,333l-56.9-23.5l-24.1-49c0,0-32.2,38.9-34.7,47.7S18.7,330.7,18.7,330.7z"/>
				<g>
					<g>
						<defs>
							<path id="SVGID_2_" d="M18.7,330.7c0,0,23.8-90.8,53.7-130l58.2-12.7l-0.3-4.6l-3.2,2.6c0,0-37-16.3-39.2-27.1s0-22.2,0-22.2
								S67.3,113.1,73.8,87L48,39.9l41.8,23.2c0,0,21.6-17,41.8-12.1L148,3.6l11.6,59.1c0,0,28.3,21.9-0.3,79.1l6.4,39.2l39.3,4
								c0,0,8,50.3-9,111.4L173.2,333l-56.9-23.5l-24.1-49c0,0-32.2,38.9-34.7,47.7S18.7,330.7,18.7,330.7z"/>
						</defs>
						<clipPath id="SVGID_3_">
							<use xlink:href="#SVGID_2_"  style="overflow:visible;"/>
						</clipPath>
						<path class="st2" d="M88.2,137c0,0-16.7-27.1-11.3-42.8s34.7-42.5,56.6-15.4s8.7,53.6,8.7,53.6s10,23.8,1.6,37.9l10.6,21.2
							l22.8,1c0,0,15.8-3.9,15.8,7.2s-1.9,26.8-1.9,26.8s27.7,25.2-7.7,45.4l-16,42.1l-41.8-3.6c0,0-25.4-48.4-24.1-55.5
							c0,0-34.4-37.9-13.8-50c5.9-3.5,46.1-5.6,44.2-14.2c-1.4-6.3-44.2-18.4-45.2-25C84.2,150.2,88.2,137,88.2,137z"/>
					</g>
					<g>
						<polygon class="st3" points="158.4,254 158.8,255.7 155.2,258.9 150.8,258.1 150.4,256.5 						"/>
						<path class="st3" d="M142,221.7c-5.1,2.1-9.4,4.6-12.8,7.2c-3.5,2.6-6.1,5.6-7.6,8.5c-1.4,2.9-1.7,5.9-0.7,8.6
							c1.1,2.9,3.4,5.4,7,7.3c3.7,2.1,8.7,3.6,14,4.4c1.8,0.3,3.7,0.4,5.6,0.5l0.4,1.9c0.1,0.6,0.6,1.1,1.2,1.2l3.1,0.5
							c-3.7,0.3-7.7,0.1-11.5-0.4c-6.7-0.8-13-2.7-17.8-5.4c-2.3-1.3-4.2-2.7-5.6-4.3c-1.3-1.5-2.2-3.1-2.7-4.8
							c-0.9-3.3-0.1-6.7,2.2-10c2.1-3.2,5.7-6.4,10.2-9.2c4.5-2.8,9.6-5,14.9-6.3c0.1,0,0.1,0,0.1,0.1
							C142.1,221.6,142,221.7,142,221.7z"/>
						<path class="st3" d="M136.7,243.5c1.1,5.1,4.6,8.9,9.3,10.2c0.3,0.1,0.5,0.3,0.6,0.6l0.8,3.7c-1.5-0.2-2.9-0.5-4.3-0.9
							c-2.9-0.8-5.8-1.9-8.2-3.3c-4.5-2.6-7.3-6-7.9-9.6c-0.6-3.5,0.9-7.3,4.1-10.7c1.6-1.7,3.6-3.4,5.8-4.8
							c2.2-1.4,4.6-2.7,7.4-3.9c0.5-0.2,1-0.4,1.5-0.6c-2.9,1.5-5.3,4-7,7.1C136.6,235.1,135.8,239.5,136.7,243.5z"/>
						<path class="st3" d="M161.5,234.7c1,4.2-0.1,8.6-2.8,11.9c-1,1.1-1.4,2.6-1.1,4.1l-7.9,2.5c-0.4-1.4-1.3-2.4-2.6-2.8
							c-3.7-1-6.5-4-7.3-8c-0.7-3.2-0.1-6.6,1.6-9.6c1.7-3,4.2-5.3,7.2-6.3C154.3,224.7,160.1,228.4,161.5,234.7z"/>
						<path class="st3" d="M161.1,223.6c-1.1,0.2-2.1,0.4-3.2,0.6c-2.6-1.5-5.6-2-8.5-1.4c3.7-1.2,7.6-2.1,11.5-2.5
							c5.6-0.6,11.2-0.2,16.3,1.2c5.2,1.5,9.6,4.1,12.7,7.3c0,0,0,0.1,0,0.2c0,0.1-0.1,0.1-0.1,0c-4.3-2.7-8.9-4.4-13.7-5.3
							C171.4,222.8,166.2,222.8,161.1,223.6z"/>
						<path class="st3" d="M108.9,252.2L108.9,252.2c2.6,2.8,6.2,5.2,10.6,7l0,0c4.4,2,9.8,3.5,15.6,4.4s11.7,1.1,17.1,0.6
							c5.8-0.5,10.5-1.9,14-4c3.2-2,5.3-4.5,6.3-7.4c-0.4,0.4-0.8,0.8-1.2,1.2c-0.9,1.2-1.9,2.3-3.2,3.2c-2,1.5-4.5,2.6-7.6,3.5
							c-0.9,0.2-1.9,0.4-2.9,0.6l4.1-3.6c0.5-0.4,0.7-1.1,0.6-1.8l-1.4-6c-0.1-0.3,0-0.6,0.2-0.9c3.5-4.2,4.8-9.9,3.6-15.3v-0.1
							c1.6,0.5,3.1,1.1,4.5,1.8c2.4,1.2,4.4,2.8,6.1,4.8c3.2,3.7,4.6,8.2,4.1,12.5c-0.6,4.3-3.3,8.2-7.8,11c-2.3,1.4-5,2.5-7.9,3.2
							s-6.1,1.2-9.6,1.4c-6.7,0.4-13.7-0.2-20.2-1.7c-6.4-1.3-12.1-3.3-16.6-5.9c-4.4-2.5-7.2-5.3-8.2-8.3
							C108.8,252.3,108.8,252.2,108.9,252.2z"/>
						<path class="st3" d="M166.2,272.2c5.5-1.4,10-3.5,13.1-6.2s5-6.1,5.7-9.8c0.6-3.6,0-7.4-1.8-10.9c-1.8-3.7-4.5-6.7-8.2-8.9
							c-3-1.8-6.8-3.1-10.7-3.7c-0.5-1.6-1.1-3-2-4.3c0.2,0,0.3,0,0.5,0c6,0.2,11.7,1.9,16.3,4.7c2.4,1.5,4.4,3.2,6.1,5.1
							c1.6,1.9,2.9,3.9,3.9,6.2c2,4.4,2.4,9,1.2,13.1c-1.1,4.1-4,7.7-8.2,10.4c-2.4,1.5-5.2,2.6-8.2,3.4c-2.4,0.6-5,1-7.7,1.2
							c-0.1,0-0.1,0-0.1-0.1C166.2,272.3,166.2,272.2,166.2,272.2z"/>
					</g>
				</g>
				<g>
					<path class="st1" d="M113.5,131.2l31.1-16.8c0,0-5.1,11.9-13.2,17.2C123.2,137,113.5,131.2,113.5,131.2z"/>
				</g>
				<g>
					<path class="st1" d="M85.7,129.6L100,133c0,0-3.7,4.5-8.2,3.4C87.5,135.2,85.7,129.6,85.7,129.6z"/>
				</g>
				<g>
					<path class="st4" d="M75.2,83.5c0,0,6.8-12.6,9.5-15.6L58.1,54L75.2,83.5z"/>
				</g>
				<g>
					<polygon class="st1" points="105.3,140.8 102.8,148 105.9,151.2 					"/>
				</g>
			</g>
		</g>
	</g>
</g>
</svg>
