<?xml version="1.0" encoding="utf-8"?>
<!-- Generator: Adobe Illustrator 19.2.1, SVG Export Plug-In . SVG Version: 6.00 Build 0)  -->
<svg version="1.1" xmlns="http://www.w3.org/2000/svg" xmlns:xlink="http://www.w3.org/1999/xlink" x="0px" y="0px" width="801px"
	 height="950.9px" viewBox="0 0 801 950.9" style="enable-background:new 0 0 801 950.9;" xml:space="preserve">
<style type="text/css">
	.st0{display:none;}
	.st1{display:inline;fill-rule:evenodd;clip-rule:evenodd;fill:#8C4799;}
	.st2{display:inline;fill:#8C4799;}
	.st3{display:inline;fill:#4C4B4D;}
	.st4{display:inline;opacity:0.2;}
	.st5{opacity:0.2;}
	.st6{clip-path:url(#SVGID_2_);fill:#231F20;}
	.st7{clip-path:url(#SVGID_2_);}
	.st8{fill:#231F20;}
	.st9{clip-path:url(#SVGID_4_);fill:#231F20;}
	.st10{display:inline;fill:#CB333B;}
	.st11{display:inline;opacity:0.2;fill:#231F20;}
	.st12{display:inline;}
	.st13{fill:none;stroke:#231F20;stroke-width:1.25;stroke-linecap:round;stroke-linejoin:round;stroke-miterlimit:10;}
	.st14{display:inline;fill:#CA2027;}
	.st15{fill:#8C4799;}
	.st16{fill:#CB333B;}
	.st17{fill:#003D51;}
	.st18{clip-path:url(#SVGID_6_);fill:#231F20;}
	.st19{clip-path:url(#SVGID_6_);fill:#003D51;}
	.st20{fill:#FFA300;}
	.st21{clip-path:url(#SVGID_8_);fill:#231F20;}
	.st22{clip-path:url(#SVGID_8_);}
	.st23{clip-path:url(#SVGID_10_);}
	.st24{fill:#E35205;}
</style>
<g id="Layer_1" class="st0">
	<path class="st2" d="M117.6,205.7l-97.3,74.7l-1.3,68.7c0,0-34,40.7,13.3,126.7s54,152,134,205.3s6.7,207.3,6.7,207.3
		s-64.7,47.3-74,90c-9.3,42.7,725.3,0.7,725.3,0.7S520.6,829.9,519.9,691.9c-0.7-138,21-294.2,21-294.2s38.7-87.3-98-142.7
		S117.6,205.7,117.6,205.7z"/>
	<path class="st3" d="M143.9,47.4c0,0,1-9.3-5.3-12.3c-6.3-3-15.7-2-15.7-2s-3,15-28.3,21.7l-5.7,23.3l-3,8.3l5,21.7l-4.3,15v10.3
		l-17.7,27l-8-4l-4.7,1.3l-2.3-1l1.3-23l-22.7-26.7l-20,14.7c0,0,6,31.3,4,41.3s7.7,18.3,7.7,18.3l11.7,3.3l4.3,8.3l20.3,22.3
		c0,0-4.7,17,10.3,33l-6.7,50.3l-24,58.7c0,0-13,73,27,118.3l15,17.7l2.7,13.7l45.7,16.7l24.7-13.3l23.7-25l8-5.7
		c0,0,17,33.3,70.3,64.3c0,0,11.3,33.3,26.3,48l-11,12l3.3,96.3l-18.7,47.7l-52,223.7l400.7,2.7l0.7-22.7l6.7-5l-39-237.3l9-11.3
		l52.3,12.3l22.7,14l12,12l3.7,2l7,6.7l47,19.3l16.7-7l7.3-3.7l3.7-10.3l22.7-10.3l1.3-21.7l12.7-10l1.7-10c0,0-13.3-10.7-9.3-16
		c4-5.3,8.3-10.7,8.3-10.7l-2.7-17.3l-10.3-3.3l-21-17.7l-16-1.7l-10.7-11.7c0,0-32-12-46,17l-10,3c0,0-40.7-10-70.7-36.7
		c0,0-35.7-51.7-70-61.3l-2-10.3c0,0,16-20.7,4.7-54.3c0,0,23.3-32.7,2.7-72.7c0,0-27-89-109.7-129.3s-198-74.3-198-74.3l-30.3,11
		c0,0,23-26,22.7-27c-0.3-1-2.3-20-2.3-20l-8.3-5.3c0,0,11.3-22,11.3-23.3c0-1.3,0.3-16.7,0.3-16.7l-14.7-10l-12.7,9
		c0,0-13,27.7-20.7,16c-7.7-11.7,6.3-32.7,6.3-32.7l1-11l6.7-4.3l12-19.7l-2.3-8.7l-14-7.3l-15.7,12l-7,2.3l-0.3,6.7l-10,9
		c0,0-1.7,4-5,10s-3.7,15.7-3.7,15.7l-12.7,7.3l-9.3-8.3l3.3-21.3C127.9,77.4,142.2,57.7,143.9,47.4z"/>
	<g class="st4">
		<defs>
			<path id="SVGID_1_" class="st5" d="M143.9,47.4c0,0,1-9.3-5.3-12.3c-6.3-3-15.7-2-15.7-2s-3,15-28.3,21.7l-5.7,23.3l-3,8.3
				l5,21.7l-4.3,15v10.3l-17.7,27l-8-4l-4.7,1.3l-2.3-1l1.3-23l-22.7-26.7l-20,14.7c0,0,6,31.3,4,41.3s7.7,18.3,7.7,18.3l11.7,3.3
				l4.3,8.3l20.3,22.3c0,0-4.7,17,10.3,33l-6.7,50.3l-24,58.7c0,0-13,73,27,118.3l15,17.7l2.7,13.7l45.7,16.7l24.7-13.3l23.7-25
				l8-5.7c0,0,17,33.3,70.3,64.3c0,0,11.3,33.3,26.3,48l-11,12l3.3,96.3l-18.7,47.7l-52,223.7l400.7,2.7l0.7-22.7l6.7-5l-39-237.3
				l9-11.3l52.3,12.3l22.7,14l12,12l3.7,2l7,6.7l47,19.3l16.7-7l7.3-3.7l3.7-10.3l22.7-10.3l1.3-21.7l12.7-10l1.7-10
				c0,0-13.3-10.7-9.3-16c4-5.3,8.3-10.7,8.3-10.7l-2.7-17.3l-10.3-3.3l-21-17.7l-16-1.7l-10.7-11.7c0,0-32-12-46,17l-10,3
				c0,0-40.7-10-70.7-36.7c0,0-35.7-51.7-70-61.3l-2-10.3c0,0,16-20.7,4.7-54.3c0,0,23.3-32.7,2.7-72.7c0,0-27-89-109.7-129.3
				s-198-74.3-198-74.3l-30.3,11c0,0,23-26,22.7-27c-0.3-1-2.3-20-2.3-20l-8.3-5.3c0,0,11.3-22,11.3-23.3c0-1.3,0.3-16.7,0.3-16.7
				l-14.7-10l-12.7,9c0,0-13,27.7-20.7,16c-7.7-11.7,6.3-32.7,6.3-32.7l1-11l6.7-4.3l12-19.7l-2.3-8.7l-14-7.3l-15.7,12l-7,2.3
				l-0.3,6.7l-10,9c0,0-1.7,4-5,10s-3.7,15.7-3.7,15.7l-12.7,7.3l-9.3-8.3l3.3-21.3C127.9,77.4,142.2,57.7,143.9,47.4z"/>
		</defs>
		<clipPath id="SVGID_2_">
			<use xlink:href="#SVGID_1_"  style="overflow:visible;"/>
		</clipPath>
		<path class="st6" d="M54.9,211.4c0,0,22,14,24.5,28.5s7.5,44.5,7.5,44.5l-12.5,71.5l20-21.5c0,0-24,93.5-2.5,118.5
			s38.5,75,38.5,75l-76-20.5l-22.5-165L54.9,211.4z"/>
		<path class="st6" d="M548.4,445.9c0,0-17,27-31.5,23.5l15.5,16.5c0,0-2.5,27-17.5,38c-15,11,28.5-2.5,28.5-2.5l12-65L548.4,445.9z
			"/>
		<path class="st6" d="M534.9,531.9l15,74l24.5,99l147.5,58.5l-37-25l-4.5-19l15.5-13l20,20l-20-26.5l8-16l25,9.5l-15-11.5l-13-8.5
			v-28l-19,29c0,0-22,17.5-23,22s-54.5-35.5-54.5-35.5l36.5-4l-64-51l-29.5-71L534.9,531.9z"/>
		<path class="st6" d="M513.9,725.4c0,0-29,59-46,80s-37,199-37,199l82-8l17-138c0,0-37,34-37,31S525.9,752.4,513.9,725.4z"/>
		<path class="st6" d="M137.6,364.9l19.3,62.7C156.9,427.6,178.2,418.9,137.6,364.9z"/>
		<path class="st6" d="M141.2,33.2l-32.7,42.7c0,0,12.7,37.3,10.7,37.3s-7.3,23.3-7.3,23.3l28-36.7l16-70L141.2,33.2z"/>
		<polygon class="st6" points="204.6,45.2 179.2,75.2 168.6,124.6 169.9,135.2 157.2,151.9 189.2,125.9 214.6,57.2 		"/>
		<polygon class="st6" points="229.2,105.2 197.9,169.2 230.6,148.6 		"/>
		<polygon class="st6" points="71.9,153.9 67.2,168.6 44.6,154.6 28.6,93.9 73.9,128.6 		"/>
		<g class="st7">
			<path class="st8" d="M253.1,336.6c-0.4-1.2-0.7-1.7-0.7-1.7S252.6,335.5,253.1,336.6z"/>
			<path class="st8" d="M371.9,464.9l68-18.5l-60.5-1.5c-81.8-17-120.6-95.8-126.3-108.3c1.7,4.6,5.8,19.3,4.3,54.3
				c-2,44-72,89.5-72,89.5l-4,5l74,117.5l-78.5,374l171,2.5l5-79l28.5-97l-31,26c0,0,13.5-108.5,14.5-150s-42.5-149-42.5-149
				l38.5,13l-15.5-51l41.5,7L371.9,464.9z M257.9,479.2l43.3,31.3C301.2,510.6,262.6,519.9,257.9,479.2z M287.2,438.6l52,46.7
				C339.2,485.2,272.6,479.9,287.2,438.6z"/>
		</g>
		<path class="st6" d="M466.6,502.6c0,0,10.7,46.7,12,74c1.3,27.3,18,57.3,18,57.3s6-36.7-9.3-59.3s-6-72.7-6-72.7
			S460.6,459.2,466.6,502.6z"/>
		<polygon class="st6" points="93.2,114.6 103.2,138.6 98.6,203.2 94.6,138.6 		"/>
		<polygon class="st6" points="136.6,133.9 117.9,198.6 141.2,137.2 		"/>
		<polygon class="st6" points="741.2,613.9 746.6,645.9 737.9,674.6 717.9,669.9 742.6,680.6 773.9,663.2 803.2,641.2 		"/>
		<path class="st6" d="M784.6,711.2l-48-15.3l52.7,26l-15.3,26l-48.7-18.7l36,30.7c0,0,49.3-17.3,48-19.3s5.3-73.3,5.3-73.3
			l-45.3,0.7l27.3,20.7l0.7,23.3L784.6,711.2z"/>
		<path class="st6" d="M243.4,228.4c0,0,174.5,102.5,196.5,85.5s-7-55.5-7-55.5l-46.5,23.5l-38-12.5L243.4,228.4z"/>
		<path class="st6" d="M199.4,206.9l-7,24.5l-18,17c0,0-6.5,72,3.5,84.5s18,37.5,18,37.5s47.5-24,37-72.5s7-72,7-72
			S241.9,174.4,199.4,206.9z M184.9,263.9c30-13,33,29,33,29C206.9,274.9,184.9,263.9,184.9,263.9z"/>
	</g>
	<path class="st2" d="M195.9,212.9l99.5,36.2l83.3,35.6c7.1,2.8,15.1,2.3,21.8-1.4c18.5-10.1,54.9-30.6,58.4-36.6l0.7-22
		c0,0-31,2.3-30.3-137.3c0,0-16-50.7-34.7-73.3c0,0-41.7-6-46.7-11.7c0,0-36.3,13.7-41.3,23.3s-31.3,39.7-31.3,39.7
		s-30,66.3-38.7,71c0,0-0.7,19-20.3,19.3S195.9,212.9,195.9,212.9z"/>
	<path class="st3" d="M317.6,120.1l69.7,16.3c0,0,53.7,80,47.7,105.7c-3.9,16.8-28.9,26.8-45.6,31.6c-9.2,2.7-19.2,1.2-27.3-4
		l-102.4-66.3c0,0-29.7-20.7,4.3-42S317.6,120.1,317.6,120.1z"/>
	<g class="st4">
		<defs>
			<path id="SVGID_3_" class="st5" d="M318.2,120.1l69.7,16.3c0,0,53.7,80,47.7,105.7c-4.1,17.4-30.8,27.5-47.5,32.1
				c-8.2,2.3-17.1,0.9-24.2-3.7l-103.6-67.1c0,0-29.7-20.7,4.3-42S318.2,120.1,318.2,120.1z"/>
		</defs>
		<clipPath id="SVGID_4_">
			<use xlink:href="#SVGID_3_"  style="overflow:visible;"/>
		</clipPath>
		<path class="st9" d="M298.9,132.9c0.8,0,27.5,24.8,27.5,24.8l7.2-1l2.8-17l1.5,16.5c0,0,2.8,5,6,2s14-18,14-18l-6.8,17l45.2-11.8
			l2.2,6.5c0,0-14.2,21-21,19.2s-24.2-7.8-24.2-7.8l3.5,8.5l-17.2-10.8l-29.2,3.2l6.2-5.8c0,0-21.8,1-29.8-13
			S298.9,132.9,298.9,132.9z"/>
		<path class="st9" d="M401.9,152.4c0,0-13.7,52-15,52c-1.3,0-38,27-38,27l-4.7,11l-32.3,0.3l60.7,37.2l50.7-13.3l-42.3-18.2l6-31.7
			l23.3-23.7l-14.7,4.3l13-37.3L401.9,152.4z"/>
		<polygon class="st9" points="270.2,153.7 269.2,175.1 283.6,206.7 282.2,224.4 241.9,197.1 235.9,155.4 		"/>
	</g>
	<path class="st10" d="M354.2,156.7l28.7-7c0,0-10.3,9.3-11.3,9.3S354.2,156.7,354.2,156.7z"/>
	<polygon class="st10" points="317.9,151.1 299.6,137.1 303.2,147.7 	"/>
	<polygon class="st11" points="316.9,180.1 326.2,189.7 340.6,183.7 324.6,198.4 	"/>
	<path class="st11" d="M288.2,201.1l15.3-3.7c0,0,21.7,13,34.7,9.7l12.3,9.7l-20.3-3.3c0,0,0-7.3-26-7L288.2,201.1z"/>
	<polygon class="st3" points="196.4,215.6 232.2,179.1 230.2,156.4 208.2,148.4 177.6,196.6 	"/>
	<g class="st12">
		
			<rect x="440.6" y="350.3" transform="matrix(0.989 -0.1479 0.1479 0.989 -47.1178 69.8971)" class="st15" width="11.5" height="2.8"/>
		<polygon class="st15" points="432.4,364 432.3,364 431.6,359.4 439.4,358.2 454.8,355.9 462.7,354.8 463.4,359.4 463.2,359.4 		
			"/>
		<path class="st15" d="M400.5,384.8c0.3,2,0.6,3.8,1,5.5c2.2,14.2,9.7,17.9,13.2,25.3c4.2,8.9,0.2,22,7.6,22.4
			c7.5,0.4,5.7-8.4,1.8-18.2c-3.9-9.8-0.8-23.6,6.7-15.6c7.5,8,11.4,18.2,22.5,18.7c11.1,0.6,16.8-3,17.8,7.4
			c1,10.5-3.1,21.1,1.7,26c4.8,5,15.1,0.8,9.7-12.1c-5.5-12.9-6.2-27-3.1-24.6c3,2.3,0.5,13.4,5.5,17.1c4.9,3.7,9.6-2.4,6.2-11.7
			c-3.4-9.3-2.7-11-2.7-11s5.6-8.3,6.9-17.7c3.3-8,4.6-17,3.2-26.2c-4-27-29.2-45.7-56.3-41.6S396.5,357.7,400.5,384.8z M427.3,358
			c-0.2-1.1,0.6-2.1,1.7-2.3l7.8-1.2l-0.7-4.8c-0.2-1.1,0.6-2.1,1.7-2.3l15.4-2.3c1.1-0.2,2.1,0.6,2.3,1.7l0.7,4.8l7.8-1.2
			c1.1-0.2,2.1,0.6,2.3,1.7l1.3,8.6c0.2,1.1-0.6,2.1-1.7,2.3l-0.1,0l4.5,29.8c0.5,3.5-1.9,6.8-5.4,7.3l-22.1,3.3
			c-3.5,0.5-6.8-1.9-7.3-5.4l-4.5-29.8l-0.1,0c-1.1,0.2-2.1-0.6-2.3-1.7L427.3,358z"/>
		<path class="st15" d="M461.8,363.7l-26.8,4l4.5,29.8c0.2,1.3,1.4,2.2,2.7,2l22.1-3.3c1.3-0.2,2.2-1.4,2-2.7L461.8,363.7z
			 M446.7,393c0.2,1.1-0.6,2.1-1.7,2.3c-1.1,0.2-2.1-0.6-2.3-1.7l-3.1-20.7c-0.2-1.1,0.6-2.1,1.7-2.3c1.1-0.2,2.1,0.6,2.3,1.7
			L446.7,393z M454.4,391.8c0.2,1.1-0.6,2.1-1.7,2.3c-1.1,0.2-2.1-0.6-2.3-1.7l-3.1-20.7c-0.2-1.1,0.6-2.1,1.7-2.3
			c1.1-0.2,2.1,0.6,2.3,1.7L454.4,391.8z M462.1,390.7c0.2,1.1-0.6,2.1-1.7,2.3c-1.1,0.2-2.1-0.6-2.3-1.7l-3.1-20.7
			c-0.2-1.1,0.6-2.1,1.7-2.3c1.1-0.2,2.1,0.6,2.3,1.7L462.1,390.7z"/>
	</g>
</g>
<g id="Layer_2" class="st0">
	<g class="st12">
		<path class="st16" d="M189.6,224.5c0,0-51.8-99.8,28.9-140.1c0,0,44.9,37.3,68.5,5.3s70.8-65.5,70.8-65.5s67-34.3,84.5-5.3
			c17.5,28.9,2.3,35.8,2.3,35.8s0.8,66.3,74.6,43.4s128.8-50.9,135.5-30.5c0.8,2.3,0,35.8,16.8,36.6s106.6-15.2,132.5,0.8
			c25.9,16,75.4,96.7,75.4,96.7s-118.8-50.3-181.2,30.5s-198,37.3-198,37.3l-99.8-32c0,0,28.9-78.4-45.7-67.8
			c-74.6,10.7-87.6,29.7-94.4,45.7S189.6,224.5,189.6,224.5z"/>
		<path class="st17" d="M278.2,210.2l0.5-6.1l-3-3l3.6-24.4c0,0,2-32.5,15.2-42.6l3,19.3l13.2-13.2l0.5,11.7c0,0,27.4-6.1,52.8,4.1
			l17.3,73.1c0,0,42.1,3.6,91.4,35.5c0,0,64.5,14.7,81.7,35.5s22.3,107.1,20.8,147.2c0,0,70.6,31.5,39.1,88.8l-24.9,72.6l-2.5,17.3
			l1.5,10.2l-9.6,10.2l-7.1,6.6H561l-14.2,4.6l-8.6-3.6l-7.6,4.1l-11.2-2l-7.6-12.7l-6.1-2.5l4.1-21.3l-6.1-13.7l8.6-8.6
			c0,0-0.5-14.7,18.3-6.6c0,0,15.2-10.7,23.9-9.1c0,0-8.1-23.9-17.8-33.5c-9.6-9.6-14.7-57.4-14.7-57.4l-29.4-41.1
			c0,0-20.8,21.8-45.2,51.3c0,0-14.2,15.7-21.8,83.3s-16.8,84.3-16.8,84.3s-24.9,29.4-59.4,60.4l-18.8,28.9c0,0,9.1,64.5-62.4,100.5
			c0,0-25.9,22.8-33.5,47.2s-13.7,61.9-50.3,81.7l-11.2-1.5c0,0-6.1-48.7,6.6-61.9s27.4-35,27.4-35s11.2-22.3,10.7-27.4
			s12.7-20.8,21.3-16.8c0,0,5.6-29.4,2-40.6c-3.6-11.2-3-48.2,32-68.5l15.2-47.2c0,0,23.4-92.4,31-100l-10.2,5.6
			c0,0-5.1,26.9-17.8,39.1c-12.7,12.2-15.2,37.6-15.2,37.6L260.4,690c0,0-8.6,9.6-12.2,10.2c-3.6,0.5-7.6-1.5-7.6-1.5
			s8.1-60.4,15.2-67c0,0-26.9,8.6-47.7,29.4s-48.2,42.1-80.2,37.6c-32-4.6-51.3-28.9-51.3-28.9l39.6-65c0,0,36.6-80.7,136.6-102.6
			c0,0,65-23.4,18.8-55.8s-25.4-66-25.4-66s-14.2-7.1-17.8-13.2l-32,22.3c0,0-19.8,35.5-68,38.1c0,0-20.3,7.1-21.3,16.8
			c-1,9.6,8.1,14.2,8.1,14.2l3,7.6l-12.7,31l-18.8,3.6l-13.7,5.1l-5.1-5.1c0,0-9.6,1.5-18.3-6.6c-8.6-8.1-17.8-13.2-17.8-13.2
			l4.1-10.2l41.1-60.4c0,0,15.2-75.6,77.2-85.8l23.4-25.4c0,0-11.2-70.6,18.8-76.2c30-5.6,39.1-24.4,81.2-11.2L278.2,210.2z"/>
		<g class="st5">
			<defs>
				<path id="SVGID_5_" class="st5" d="M278.2,210.2l0.5-6.1l-3-3l3.6-24.4c0,0,2-32.5,15.2-42.6l3,19.3l13.2-13.2l0.5,11.7
					c0,0,27.4-6.1,52.8,4.1l17.3,73.1c0,0,42.1,3.6,91.4,35.5c0,0,64.5,14.7,81.7,35.5c17.3,20.8,22.3,107.1,20.8,147.2
					c0,0,70.6,31.5,39.1,88.8l-24.9,72.6l-2.5,17.3l1.5,10.2l-9.6,10.2l-7.1,6.6H561l-14.2,4.6l-8.6-3.6l-7.6,4.1l-11.2-2l-7.6-12.7
					l-6.1-2.5l4.1-21.3l-6.1-13.7l8.6-8.6c0,0-0.5-14.7,18.3-6.6c0,0,15.2-10.7,23.9-9.1c0,0-8.1-23.9-17.8-33.5
					c-9.6-9.6-14.7-57.4-14.7-57.4l-29.4-41.1c0,0-20.8,21.8-45.2,51.3c0,0-14.2,15.7-21.8,83.3s-16.8,84.3-16.8,84.3
					s-24.9,29.4-59.4,60.4l-18.8,28.9c0,0,9.1,64.5-62.4,100.5c0,0-25.9,22.8-33.5,47.2s-13.7,61.9-50.3,81.7l-11.2-1.5
					c0,0-6.1-48.7,6.6-61.9c12.7-13.2,27.4-35,27.4-35s11.2-22.3,10.7-27.4c-0.5-5.1,12.7-20.8,21.3-16.8c0,0,5.6-29.4,2-40.6
					c-3.6-11.2-3-48.2,32-68.5l15.2-47.2c0,0,23.4-92.4,31-100l-10.2,5.6c0,0-5.1,26.9-17.8,39.1c-12.7,12.2-15.2,37.6-15.2,37.6
					L260.5,690c0,0-8.6,9.6-12.2,10.2c-3.6,0.5-7.6-1.5-7.6-1.5s8.1-60.4,15.2-67c0,0-26.9,8.6-47.7,29.4s-48.2,42.1-80.2,37.6
					s-51.3-28.9-51.3-28.9l39.6-65c0,0,36.6-80.7,136.6-102.6c0,0,65-23.4,18.8-55.8s-25.4-66-25.4-66s-14.2-7.1-17.8-13.2l-32,22.3
					c0,0-19.8,35.5-68,38.1c0,0-20.3,7.1-21.3,16.8c-1,9.6,8.1,14.2,8.1,14.2l3,7.6l-12.7,31l-18.8,3.6l-13.7,5.1l-5.1-5.1
					c0,0-9.6,1.5-18.3-6.6c-8.6-8.1-17.8-13.2-17.8-13.2l4.1-10.2l41.1-60.4c0,0,15.2-75.6,77.2-85.8l23.4-25.4
					c0,0-11.2-70.6,18.8-76.2c30-5.6,39.1-24.4,81.2-11.2L278.2,210.2z"/>
			</defs>
			<clipPath id="SVGID_6_">
				<use xlink:href="#SVGID_5_"  style="overflow:visible;"/>
			</clipPath>
			<path class="st18" d="M281.3,204.7l18.8,5.1l0.5,24.9l6.6,4.1l1.5,11.7h11.2l11.7,4.1l-21.8,4.6l-1.5,28.4l23.4-1.5l28.4-22.8
				l-40.6,54.8c0,0-13.7,24.4-34.5,0.5s-63-42.6-63-42.6l-22.3,30.5l-10.2-31c0,0,6.6-35,33-38.6c26.4-3.6,44.7-5.6,44.7-5.6
				l18.3,55.8c0,0-2-18.8-3-30c-1-11.2-6.1-34.5-6.1-34.5L281.3,204.7z"/>
			<polygon class="st18" points="309.7,206.7 318.3,212.3 317.8,219.4 336.6,211.3 328,206.7 337.1,202.6 326.4,199.6 314.8,207.7 
							"/>
			<path class="st18" d="M229.5,373.2c0,0-19.8-37.6-19.8-40.1c0-2.5-28.4,45.7-54.8,51.8c0,0-8.1-38.6-3.6-42.1
				c0,0-47.7,36.6-49.8,57.9c-2,21.3-7.1,29.4-7.1,29.4l17.3,24.4l77.2-25.4L229.5,373.2z"/>
			<polygon class="st18" points="85.3,500.6 86.8,465.1 58.9,477.3 70.1,477.8 65,487.4 77.7,479.3 			"/>
			<path class="st18" d="M477.7,263l-44.2,37.1c0,0,86.8-7.6,106.1,76.2s7.6,106.1,7.6,106.1l14.7-15.2c0,0,54.8,24.9,22.8,96.5
				c0,0-11.7,52.8-2.5,68c9.1,15.2,36-4.1,36-4.1l17.3-190.9l-59.4-135L477.7,263z"/>
			<path class="st18" d="M493.5,458.5c0,0-41.6-77.2-40.6-83.8l-45.2,34.5l-74.1,4.1l93.9,13.7c0,0,14.2,20.3-15.2,36.6
				c0,0-42.1-5.6-53.3-24.9c0,0,19.3,31.5,31,37.1c11.7,5.6-64,5.1-79.7-14.7c-15.7-19.8-7.6,23.4-7.6,23.4l-7.6,11.2l-6.6-5.6
				l-2,9.1l-27.4,12.7c0,0,28.9,33.5,31.5,45.7c2.5,12.2-69.6,44.2-69.6,44.2l32-53.3c0,0-67,71.1-80.2,89.4
				c-13.2,18.3-55.8,38.1-69,35c-13.2-3-24.9,20.3-24.9,20.3l89.4,23.4l72.1,21.3l50.8-87.8l32-68c0,0,79.7-87.8,72.6,7.6
				c-7.1,95.4-54.8,113.2-54.8,113.2L301.6,754l17.3-5.6l-55.3,122.9l128.4-103.1l79.7-239.1L493.5,458.5z"/>
			<path class="st18" d="M339.6,588.5l-27.9,97C311.7,685.4,311.2,607.8,339.6,588.5z"/>
			<polygon class="st18" points="245.2,380.8 277.2,403.7 238.1,388.4 			"/>
			<path class="st18" d="M279.7,843.3c0,0-44.7,54.8-40.6-7.6c4.1-62.4-113.7,94.4-113.7,94.4l11.2,93.9l164-41.1L279.7,843.3z"/>
			<path class="st19" d="M441.2,427.5l24.4-8.1C465.5,419.4,464,437.7,441.2,427.5z"/>
			<path class="st19" d="M436.1,448.1l24.4-8.1C460.5,440,458.9,458.2,436.1,448.1z"/>
			<path class="st18" d="M539.2,642.8l7.1-22.3C546.3,620.4,553.4,635.2,539.2,642.8z"/>
			<path class="st18" d="M509.2,630.4l3.2-23.2C512.3,607.2,521.9,620.5,509.2,630.4z"/>
			<path class="st18" d="M403.6,292c0,0-31-7.6-22.3-37.6s47.2-19.8,47.2-19.8L403.6,292z"/>
			<path class="st18" d="M341.5,316.6l40-16C381.5,300.6,351.4,293.4,341.5,316.6z"/>
		</g>
		<path class="st17" d="M295.7,212.1c-0.6,0-11.2-1.5-11.2-1.5l5.7,3.8L295.7,212.1z"/>
		<path class="st16" d="M219.3,263.3l42.6-10.7c0,0-4.6-29.7,6.9-57.1s-83.8,10.7-83.8,10.7S185.8,238.9,219.3,263.3z"/>
		<path class="st16" d="M386.1,298.3l52.5,7.6l82.2-38.8c0,0-85.3-84.5-106.6-57.9C392.9,235.9,386.1,298.3,386.1,298.3z"/>
		<g>
			<path class="st20" d="M315.4,387l-19.7-15.2l-0.8,20.9l41.9,1.6c0.7-0.3,1.4-0.6,2-0.9l0.8-20l-20.8,13.7
				C317.8,387.7,316.4,387.7,315.4,387z"/>
			<polygon class="st20" points="317.3,382.2 334.8,370.7 300.7,369.3 			"/>
			<path class="st20" d="M369.9,356.2c3.2,3.5,4.5,7.6,3.5,12c-1,4.5-4.1,9.2-9.6,13.6c-5.1,4.1-11.9,8-19.6,10.9l-0.2,4.1
				c0,0.7-0.4,1.4-1.1,1.8c0.7-0.2,1.4-0.4,2.1-0.7c10.7-3.7,20.4-8.8,27.4-14.5c3.4-2.8,6.2-5.7,8.1-8.6c1.9-2.9,2.9-5.6,3.2-8.2
				c0.6-5.1-1.5-9.8-6.2-13.4c-4.6-3.6-11.5-6.3-19.7-7.9c-8.1-1.6-17.5-2.1-26.8-1.3c8.8,0.4,17,1.5,23.6,3.6
				C361.5,349.9,366.6,352.8,369.9,356.2z"/>
			<path class="st20" d="M300,355.4c8.5-1.2,17-1.4,24.7-0.7c7.9,0.7,14.7,2.2,19.6,5c2.7,1.5,4.8,3.3,6.2,5.3c-2.2-1.6-5.1-3-8.6-4
				c-3.9-1.1-8.4-1.8-13.3-2c-9.6-0.4-20.1,0.9-29.8,3.6c-1.8,0.5-3.6,1.1-5.3,1.7l49,1.9c0,0,0.1,0,0.2,0c0.1,0,0.1,0,0.2,0
				c0.1,0,0.2,0,0.3,0.1c0.1,0,0.2,0,0.2,0.1c0.1,0,0.2,0.1,0.2,0.1c0.1,0,0.1,0.1,0.2,0.1c0.1,0,0.1,0.1,0.2,0.1
				c0.1,0.1,0.1,0.1,0.2,0.2c0.1,0,0.1,0.1,0.2,0.1c0,0,0.1,0.1,0.1,0.1c0,0,0.1,0.1,0.1,0.1c0,0,0.1,0.1,0.1,0.2
				c0,0.1,0.1,0.1,0.1,0.2c0,0.1,0.1,0.1,0.1,0.2c0,0.1,0,0.1,0.1,0.2c0,0.1,0,0.1,0,0.2c0,0.1,0,0.1,0,0.2c0,0,0,0.1,0,0.1
				l-0.9,21.9c2.9-1.7,5.6-3.5,7.9-5.4c6.6-5.5,10.2-11.4,10.3-16.7c0-5.2-3.4-9.8-9.7-13c-3.1-1.6-6.9-2.9-11.1-3.9
				c-4.2-0.9-8.8-1.5-13.4-1.8c-9.3-0.7-19.4-0.1-29,1.6c-9.5,1.6-18.6,4.5-26.3,8.3c-7.6,3.8-13.9,8.6-17.9,13.7
				c5.8-4.7,12.6-8.7,20.3-11.7C283.2,358.7,291.6,356.6,300,355.4z"/>
			<path class="st20" d="M379.1,386.9c-6.9,4.8-15.3,9-24.3,12.4c-9,3.3-18.4,5.7-27.3,6.8c-9,1.1-17.2,0.9-23.6-0.9
				c-6-1.7-10.4-4.5-12.8-8.2c-0.9-0.4-1.5-1.3-1.5-2.2l0.8-20.3c-3.1,2.3-5.5,4.9-7.3,7.6c-3.8,5.9-4.6,11.9-2.2,17.2
				c2.3,5.3,7.9,9.4,15.9,11.7c4,1.1,8.6,1.8,13.6,1.9c5,0.1,10.3-0.3,15.6-1.1c10.7-1.6,21.9-4.8,31.9-9.1
				c10.1-4.3,18.9-9.5,25.4-15c6.4-5.4,10.5-11,11.5-15.9C391.3,377,386,382.1,379.1,386.9z"/>
			<path class="st20" d="M300,401.5c3.7,1.3,8.2,2,13.2,2.1c8.8,0.1,18.8-1.5,28.3-4.4c-0.1,0-0.1,0-0.2,0l-49.2-1.9
				c-0.2,0-0.5-0.1-0.7-0.1c0.8,0.4,1.6,0.8,2.5,1.2C295.6,399.6,297.6,400.7,300,401.5z"/>
			<path class="st20" d="M284.8,416.8c-6-2.7-10.1-6.5-12.4-10.9c-2.2-4.4-2.5-9.4-0.9-14.4c1.5-5,4.8-9.8,10.1-14.1
				c2.5-2,5.5-3.9,8.8-5.6l0.2-5.2c0,0,0-0.1,0-0.1c0,0,0-0.1,0-0.2c0-0.1,0-0.1,0.1-0.2c0-0.1,0.1-0.2,0.1-0.2
				c0-0.1,0.1-0.1,0.1-0.2c0-0.1,0.1-0.1,0.1-0.2c0-0.1,0.1-0.1,0.1-0.2c-6.6,2.6-12.5,5.8-17.1,9.6c-3.2,2.6-5.9,5.5-7.9,8.4
				c-2,3-3.3,6-4,8.9c-1.5,6-0.6,11.8,2.7,16.6c3.2,4.9,9,8.6,16.3,10.9c7.5,2.1,16.7,2.8,26.5,1.6
				C298.6,420.9,290.8,419.5,284.8,416.8z"/>
		</g>
	</g>
</g>
<g id="Layer_3">
	<g>
		<path class="st17" d="M663.4,360.3l6.6-9.1l-12.4-3.3l-2.5-6.6l-28.8,4.9l-6.6,28l-65.1-26.4l3.3-4.9
			c40.4-37.1,26.4-75.8,26.4-75.8v-23.9c4.9-48.6-28-88.2-28-88.2v26.4c-33-16.5-75,4.9-75,4.9l-18.1-27.2
			c-15.7,28.8-6.6,104.6-6.6,104.6l-17.3-2.5c-14-23.9-65.9-28.8-65.9-28.8l-28.8-9.1l20.6-35.4c38.7-54.4,115.3-51.9,115.3-51.9
			c25.5-18.9,16.5-47,16.5-47c-6.6,17.3-28,30.5-28,30.5s-33.8,1.6-44.5-7.4c-10.7-9.1-4.9-24.7,4.9-42s37.9-4.1,37.9-4.1
			c-0.8-11.5-28.8-22.2-28.8-22.2l-11.5,2.5c0,0-9.1,22.2-20.6,27.2c-11.5,4.9-11.5-9.9-11.5-9.9h9.9l-2.5-9.9l4.1-10.7l18.9-4.1
			c-4.1-8.2-25.5-15.7-25.5-15.7l-9.1,21.4c-2.5-5.8-23.1-8.2-23.1-8.2L361,57.9l-8.2,2.5l-21.4,32.1c20.6,8.2,42.8,43.7,42.8,43.7
			s-12.4,10.7-46.1,27.2c-33.8,16.5-81.6,66.7-73.3,93.1c8.2,26.4,94.7,31.3,94.7,31.3C301.7,324,304.2,404,304.2,404
			s-33.8,25.5-25.5,112.9c0.5,5,1.2,9.8,2.2,14.4c-45.2,27.9-121,55.5-160-39.6C63,350.9,160.7,348.8,189.1,378.2
			c28.4,29.4,27.3,5.3,27.3,5.3s-1.1-34.7-32.6-46.2c-31.5-11.6-74.6-24.2-93.5,15.8c-18.9,39.9-34.7,93.5-4.2,147.1
			c30.5,53.6,66.2,79.8,88.2,88.2c17.2,6.5,69.9,7.3,118.2-24.7c27.6,52.3,85,72.7,85,72.7c32.1,28.8,54.4,18.1,54.4,18.1l24.7,19.8
			c0,0,23.9,9.1,26.4-11.5c2.5-20.6-25.5-47.8-25.5-47.8s-12.4-2.5-19.8-19.8c-7.4-17.3-19.8-14-19.8-14
			c2.5-20.6-24.7-57.7-24.7-57.7l9.1-9.1c8.2,13.2,45.3,39.5,45.3,39.5c1.6,34.6,46.1,75,46.1,75c9.9,40.4,31.3,60.1,57.7,84
			c26.4,23.9,33,76.6,31.3,92.3c-1.6,15.7-1.6,48.6-1.6,48.6l-11.5,49.4l18.1,47.8c0,0,35.4,19.8,51.1,4.1
			c15.7-15.7,8.2-60.1,8.2-60.1l-26.4-71.7c0,0-0.8,64.3-3.3-83.2s-73.3-159-73.3-159s-12.4-38.7-19.8-89c-7.4-50.3-85.7-70-85.7-70
			l-7.4-6.6c10.7,0.8,20.6-11.5,20.6-11.5c68.4,25.5,55.2-25.5,55.2-25.5c5.8,8.2,51.1,10.7,51.1,10.7s77.4,13.2,89,9.1
			c11.5-4.1,10.7-9.9,10.7-9.9l9.1-8.2l-4.9-7.4l6.6-4.9L663.4,360.3z M383.3,54.1c6.5,0-6.2,10.8-6.2,10.8S376.8,54.1,383.3,54.1z
			 M352.4,83.2l6.2-5.9l0.6,7.4L352.4,83.2z"/>
		<g class="st5">
			<defs>
				<path id="SVGID_7_" class="st5" d="M663.4,360.3l6.6-9.1l-12.4-3.3l-2.5-6.6l-28.8,4.9l-6.6,28l-65.1-26.4l3.3-4.9
					c40.4-37.1,26.4-75.8,26.4-75.8v-23.9c4.9-48.6-28-88.2-28-88.2v26.4c-33-16.5-75,4.9-75,4.9l-18.1-27.2
					c-15.7,28.8-6.6,104.6-6.6,104.6l-17.3-2.5c-14-23.9-65.9-28.8-65.9-28.8l-28.8-9.1l20.6-35.4c38.7-54.4,115.3-51.9,115.3-51.9
					c25.5-18.9,16.5-47,16.5-47c-6.6,17.3-28,30.5-28,30.5s-33.8,1.6-44.5-7.4c-10.7-9.1-4.9-24.7,4.9-42s37.9-4.1,37.9-4.1
					c-0.8-11.5-28.8-22.2-28.8-22.2l-11.5,2.5c0,0-9.1,22.2-20.6,27.2c-11.5,4.9-11.5-9.9-11.5-9.9h9.9l-2.5-9.9l4.1-10.7l18.9-4.1
					c-4.1-8.2-25.5-15.7-25.5-15.7l-9.1,21.4c-2.5-5.8-23.1-8.2-23.1-8.2L361,57.9l-8.2,2.5l-21.4,32.1
					c20.6,8.2,42.8,43.7,42.8,43.7s-12.4,10.7-46.1,27.2c-33.8,16.5-81.6,66.7-73.3,93.1c8.2,26.4,94.7,31.3,94.7,31.3
					C301.7,324,304.2,404,304.2,404s-33.8,25.5-25.5,112.9c8.2,87.3,98.9,119.5,98.9,119.5c32.1,28.8,54.4,18.1,54.4,18.1l24.7,19.8
					c0,0,23.9,9.1,26.4-11.5c2.5-20.6-25.5-47.8-25.5-47.8s-12.4-2.5-19.8-19.8c-7.4-17.3-19.8-14-19.8-14
					c2.5-20.6-24.7-57.7-24.7-57.7l9.1-9.1c8.2,13.2,45.3,39.5,45.3,39.5c1.6,34.6,46.1,75,46.1,75c9.9,40.4,31.3,60.1,57.7,84
					c26.4,23.9,33,76.6,31.3,92.3c-1.6,15.7-1.6,48.6-1.6,48.6l-11.5,49.4l18.1,47.8c0,0,35.4,19.8,51.1,4.1
					c15.7-15.7,8.2-60.1,8.2-60.1l-26.4-71.7c0,0-0.8,64.3-3.3-83.2s-73.3-159-73.3-159s-12.4-38.7-19.8-89
					c-7.4-50.3-85.7-70-85.7-70l-7.4-6.6c10.7,0.8,20.6-11.5,20.6-11.5c68.4,25.5,55.2-25.5,55.2-25.5c5.8,8.2,51.1,10.7,51.1,10.7
					s77.4,13.2,89,9.1c11.5-4.1,10.7-9.9,10.7-9.9l9.1-8.2l-4.9-7.4l6.6-4.9L663.4,360.3z M383.3,54.1c6.5,0-6.2,10.8-6.2,10.8
					S376.8,54.1,383.3,54.1z M352.4,83.2l6.2-5.9l0.6,7.4L352.4,83.2z"/>
			</defs>
			<clipPath id="SVGID_8_">
				<use xlink:href="#SVGID_7_"  style="overflow:visible;"/>
			</clipPath>
			<path class="st21" d="M527.2,357.5c0,0,54.1-19.2,53.4-76.3c-0.6-57.2-0.6-57.2-0.6-57.2s-4.9-42.3-50-38.6
				c-45.1,3.7-65.2,14.2-59.6,67.7C476,306.5,468.5,322.9,527.2,357.5z"/>
			<path class="st21" d="M322.4,289.2c0,0,55.6-3.7,68.6,18.2c0,0-3.7-39.9-49.4-45.7c-45.7-5.9-5.6-29.3-5.6-29.3l34.6-41.7
				l49.7-40.2l-55.6,16.1l-96.1,89.9c0,0-13.9,5.9-35.5-5.6s19.8,28.4,19.8,28.4L322.4,289.2z"/>
			<path class="st21" d="M455.3,65.2c0,0-8.3-8.3-27.2-4c-18.8,4.3-20.4,18.5-20.4,18.5l15.4,21.9L455.3,65.2z"/>
			<path class="st21" d="M404,60.6c-0.3-0.9-11.1-12.4-11.1-12.4s12.7-12.7,22.2-9c9.6,3.7,3.1,7.1,3.1,7.1L404,60.6z"/>
			<path class="st21" d="M396.2,66.8l-7.1-8l-13-6.5c0,0-10.2,0-10.5,10.5c0,0,13.3,10.8,14.2,17l-22.2-3.7l-14.8,16.7
				c0,0,23.2,10.8,36.5,3.7c13.3-7.1,21.6-11.4,21.9-16.1C401.5,75.8,396.2,66.8,396.2,66.8z"/>
			<g class="st22">
				<path class="st8" d="M434.9,372c0,0.5,0,0.9,0,1.4C434.9,372.5,434.9,372,434.9,372z"/>
				<path class="st8" d="M281.9,546.5c-7.6-18.1-13.3-31.4-13.3-31.4C271.3,526.4,275.9,536.8,281.9,546.5z"/>
				<path class="st8" d="M655.8,575L524.1,472.7l-20.4-70.1c0,0-42.9,5.9-62.7-8c0,0-6-10-6.2-21.2c-0.2,5.1-3.6,22.6-38.9,21.8
					c-41.4-0.9-39.5-34.9-39.5-34.9s-14.5,26,9.6,40.5c0,0-36.5,21.9-2.8,22.2c33.7,0.3,8.3,4.6,8.3,4.6s-22.6,6.8-21,19.8
					s-30.3,14.2-36.8,24.1c-6.5,9.9,10.5,27.8,24.7,34c14.2,6.2,74.1,91.8,64.6,108.4c-8.1,14.2-87-12.9-121.1-67.4
					c15.8,37.3,40.1,94.6,40.5,95.2c0.6,0.9,172.7,285.8,172.7,285.8l114.3,55.9l59.3-20.4L655.8,575z M610,725.1
					c-6.8-21.3-62.4-73.2-62.4-73.2s-61.5-48.8-69.5-78.5c-8-29.7-31.5-36.5-55-65.8c-23.5-29.3-3.4-60.9-3.4-60.9
					c12.7-16.1,33.7,9,58.1,20.1c24.4,11.1,64.3,119.3,64.3,119.3c52.2,28.4,77.9,128.8,77.9,128.8S616.8,746.5,610,725.1z"/>
			</g>
			<path class="st21" d="M508.7,386.4c0,0-8.2-9.5-4.5-12.4c3.7-2.9,9.7-16.9,9.7-16.9l13.6,7.2l31.9-17.9l57.7,26.2
				c0,0,15.2,6.2,18.7,1.6c3.5-4.5,4.7-18.1,4.7-18.1l4.1-0.6c0,0-1.2,16.9,0.4,17.9s-2.9,10.7-2.9,10.7l7.8,2.3l-11.7,5.1l9.1,3.5
				l-28.6,10.3L508.7,386.4z"/>
			<path class="st21" d="M466.5,277.7c0,0-3.7,41.2,22.7,61.4c26.4,20.2,29,21.2,29,21.2l-10.9,14.6c0,0-45.3-15-46.3-52.3
				C459.9,285.3,466.5,277.7,466.5,277.7z"/>
		</g>
		<path class="st17" d="M482.4,271.6c0,0,27.8,2.2,38.6,11.1c0,0-11.1,9.3-22.9,4C486.5,281.5,482.4,271.6,482.4,271.6z"/>
		<path class="st17" d="M547.6,281.5c0,0,16.7-12,30.9-10.8c0,0,0.9,12-12.7,15.1C552.3,288.9,547.6,281.5,547.6,281.5z"/>
		<polygon class="st17" points="533.4,308.1 545.8,304.1 537.1,313.3 		"/>
		<g>
			<defs>
				<path id="SVGID_9_" d="M663.8,360.7l6.6-9.1l-12.4-3.3l-2.5-6.6l-28.8,4.9l-6.6,28L555,348.3l3.3-4.9
					c40.4-37.1,26.4-75.8,26.4-75.8v-23.9c4.9-48.6-28-88.2-28-88.2v26.4c-33-16.5-75,4.9-75,4.9l-18.1-27.2
					c-15.7,28.8-6.6,104.6-6.6,104.6l-17.3-2.5c-14-23.9-65.9-28.8-65.9-28.8l-28.8-9.1l20.6-35.4c38.7-54.4,115.3-51.9,115.3-51.9
					c25.5-18.9,16.5-47,16.5-47c-6.6,17.3-28,30.5-28,30.5s-33.8,1.6-44.5-7.4c-10.7-9.1-4.9-24.7,4.9-42s37.9-4.1,37.9-4.1
					c-0.8-11.5-28.8-22.2-28.8-22.2l-11.5,2.5c0,0-9.1,22.2-20.6,27.2c-11.5,4.9-11.5-9.9-11.5-9.9h9.9l-2.5-9.9l4.1-10.7l18.9-4.1
					c-4.1-8.2-25.5-15.7-25.5-15.7l-9.1,21.4c-2.5-5.8-23.1-8.2-23.1-8.2l-6.6,21.4l-8.2,2.5l-21.4,32.1
					c20.6,8.2,42.8,43.7,42.8,43.7s-12.4,10.7-46.1,27.2c-33.8,16.5-81.6,66.7-73.3,93.1c8.2,26.4,94.7,31.3,94.7,31.3
					c-47.8,36.2-45.3,116.2-45.3,116.2s-33.8,25.5-25.5,112.9c8.2,87.3,98.9,119.5,98.9,119.5c32.1,28.8,54.4,18.1,54.4,18.1
					l24.7,19.8c0,0,23.9,9.1,26.4-11.5c2.5-20.6-25.5-47.8-25.5-47.8s-12.4-2.5-19.8-19.8c-7.4-17.3-19.8-14-19.8-14
					c2.5-20.6-24.7-57.7-24.7-57.7l9.1-9.1c8.2,13.2,45.3,39.5,45.3,39.5c1.6,34.6,46.1,75,46.1,75c9.9,40.4,31.3,60.1,57.7,84
					c26.4,23.9,33,76.6,31.3,92.3c-1.6,15.7-1.6,48.6-1.6,48.6l-11.5,49.4l18.1,47.8c0,0,35.4,19.8,51.1,4.1
					c15.7-15.7,8.2-60.1,8.2-60.1l-26.4-71.7c0,0-0.8,64.3-3.3-83.2s-73.3-159-73.3-159s-12.4-38.7-19.8-89
					c-7.4-50.3-85.7-70-85.7-70l-7.4-6.6c10.7,0.8,20.6-11.5,20.6-11.5c68.4,25.5,55.2-25.5,55.2-25.5c5.8,8.2,51.1,10.7,51.1,10.7
					s77.4,13.2,89,9.1c11.5-4.1,10.7-9.9,10.7-9.9l9.1-8.2l-4.9-7.4l6.6-4.9L663.8,360.7z M383.7,54.5c6.5,0-6.2,10.8-6.2,10.8
					S377.2,54.5,383.7,54.5z M352.8,83.6l6.2-5.9l0.6,7.4L352.8,83.6z"/>
			</defs>
			<clipPath id="SVGID_10_">
				<use xlink:href="#SVGID_9_"  style="overflow:visible;"/>
			</clipPath>
			<g class="st23">
				<polygon class="st24" points="438.6,388.3 437.8,390.3 431.9,390.9 427.8,387 428.6,385.1 				"/>
				<path class="st24" d="M444.5,343.4c-6.8-1.5-13-2.1-18.4-1.8c-5.5,0.2-10.3,1.3-14,3.2c-3.6,2-5.9,4.8-6.8,8.2
					c-1,3.8-0.3,8,2,12.5c2.4,4.8,6.4,10,11.4,14.5c1.7,1.6,3.5,3.1,5.5,4.5l-0.9,2.3c-0.3,0.7-0.1,1.6,0.4,2.1l2.9,2.8
					c-4.1-2.4-8-5.4-11.7-8.7c-6.4-5.7-11.6-12.2-14.6-18.3c-1.5-3-2.4-5.8-2.8-8.4c-0.3-2.4-0.1-4.7,0.6-6.8c1.4-4,4.7-7,9.4-8.7
					c4.5-1.8,10.5-2.5,17.2-2c6.6,0.4,13.5,1.8,19.9,4.2c0.1,0,0.1,0.1,0.1,0.2C444.6,343.4,444.6,343.4,444.5,343.4z"/>
				<path class="st24" d="M423.5,361.9c-2.5,6-1.6,12.4,2.4,17.2c0.2,0.3,0.3,0.7,0.2,1l-1.8,4.4c-1.4-1.3-2.6-2.7-3.8-4.1
					c-2.5-2.9-4.6-6.1-6.1-9.3c-2.8-5.9-3.3-11.3-1.4-15.5c1.9-4,6.1-6.8,11.8-8c2.9-0.6,6.1-0.9,9.5-0.7c3.2,0.1,6.7,0.6,10.4,1.3
					c0.7,0.1,1.4,0.3,2,0.4c-4.1-0.5-8.4,0.3-12.3,2.2C429.3,353.2,425.5,357.1,423.5,361.9z"/>
				<path class="st24" d="M455.5,370.8c-2,5-6.2,8.8-11.4,10.1c-1.8,0.5-3.3,1.7-4,3.4l-10-3.1c0.6-1.6,0.3-3.4-0.8-4.7
					c-3.1-3.8-3.8-8.8-1.9-13.5c1.6-3.7,4.5-6.8,8.4-8.7c3.9-1.9,8.1-2.3,12-1.2C455.1,355.3,458.5,363.3,455.5,370.8z"/>
				<path class="st24" d="M463,359.1c-1.2-0.6-2.5-1.2-3.7-1.7c-1.6-3.4-4.4-6.1-7.9-7.5c4.8,1.4,9.4,3.4,13.6,5.7
					c6.3,3.4,11.8,7.9,16.1,13c4.3,5.3,7,11,8,16.6c0,0.1,0,0.1-0.1,0.2c-0.1,0-0.1,0-0.2-0.1c-2.5-5.8-6.1-10.9-10.5-15.3
					C474.2,365.8,468.9,362,463,359.1z"/>
				<path class="st24" d="M388.5,350.7c0.1,0,0.1,0,0.1,0.1c0.6,4.6,2.7,9.7,5.9,14.7l0,0c3.2,5.2,7.7,10.6,13.1,15.7
					c5.3,5.1,11.3,9.6,17.3,13c6.4,3.6,12.2,5.7,17.4,6c4.7,0.3,8.7-0.8,11.8-3.1c-0.7,0.1-1.4,0.2-2.1,0.3c-1.8,0.6-3.6,1-5.6,1
					c-3.1,0.1-6.6-0.6-10.4-2c-1.1-0.4-2.3-0.9-3.4-1.4l6.8-0.8c0.8-0.1,1.6-0.7,1.9-1.4l2.8-7.1c0.1-0.4,0.5-0.6,0.9-0.7
					c6.6-1.7,12.1-6.6,14.6-13.1c0-0.1,0-0.1,0.1-0.2c1.3,1.6,2.4,3.3,3.4,5.1c1.6,2.9,2.6,6.1,2.9,9.2c0.7,6.1-1,11.7-4.7,15.7
					c-3.6,4-9.3,6-15.9,5.7c-3.4-0.2-6.9-1.1-10.5-2.4c-3.5-1.4-7.2-3.2-10.9-5.5c-7.2-4.5-14.1-10.1-19.8-16.3
					c-5.7-5.9-10.2-12.1-13.1-18c-2.8-5.7-3.7-10.7-2.6-14.4C388.4,350.7,388.4,350.7,388.5,350.7z"/>
				<path class="st24" d="M433.8,412.5c6.7,2.6,12.9,3.7,18,3.1c5.1-0.5,9.5-2.6,12.8-5.9c3.2-3.3,5.2-7.6,5.9-12.4
					c0.8-5.1,0-10.1-2.2-15c-1.8-4.1-4.8-8.1-8.4-11.5c0.6-1.9,1-3.9,1-5.9c0.2,0.1,0.3,0.3,0.5,0.4c6,4.5,10.8,10.4,13.6,16.5
					c1.4,3.2,2.3,6.4,2.7,9.5c0.3,3.1,0.2,6.1-0.3,9.1c-1.1,5.9-3.9,10.9-8,14.3c-4.1,3.4-9.6,5-15.9,4.8c-3.5-0.3-7.2-1.1-10.9-2.5
					c-3-1.1-5.9-2.6-8.9-4.3c-0.1,0-0.1-0.1,0-0.2S433.7,412.5,433.8,412.5z"/>
			</g>
		</g>
	</g>
</g>
</svg>
