<svg id="Layer_2" data-name="Layer 2" xmlns="http://www.w3.org/2000/svg" xmlns:xlink="http://www.w3.org/1999/xlink" width="800.96" height="950.89" viewBox="0 0 800.96 950.89"><defs><style>.cls-1{fill:none;}.cls-2{fill:#cb333b;}.cls-3{fill:#003d51;}.cls-4{opacity:0.2;}.cls-5{clip-path:url(#clip-path);}.cls-6{fill:#231f20;}.cls-7{fill:#ffa300;}</style><clipPath id="clip-path"><path class="cls-1" d="M278.23,210.25l0.51-6.09-3-3,3.55-24.37s2-32.49,15.23-42.64l3,19.29,13.2-13.2,0.51,11.68s27.41-6.09,52.8,4.06L381.28,229s42.14,3.55,91.38,35.54c0,0,64.47,14.72,81.74,35.54s22.34,107.12,20.81,147.23c0,0,70.57,31.48,39.09,88.84l-24.88,72.6L586.89,626l1.52,10.15-9.65,10.15-7.11,6.6H561l-14.21,4.57L538.16,654,530.54,658l-11.17-2-7.62-12.69-6.09-2.54,4.06-21.32-6.09-13.71,8.63-8.63s-0.51-14.72,18.28-6.6c0,0,15.23-10.66,23.86-9.14,0,0-8.12-23.86-17.77-33.51s-14.72-57.37-14.72-57.37l-29.45-41.12s-20.81,21.83-45.18,51.28c0,0-14.21,15.74-21.83,83.26s-16.75,84.27-16.75,84.27a686.06,686.06,0,0,1-59.4,60.41l-18.78,28.94S339.66,822,268.07,858c0,0-25.89,22.85-33.51,47.21S220.86,967.19,184.31,987l-11.17-1.52s-6.09-48.74,6.6-61.94,27.41-35,27.41-35,11.17-22.34,10.66-27.41,12.69-20.81,21.32-16.75c0,0,5.58-29.45,2-40.61s-3-48.23,32-68.54L288.38,688s23.35-92.4,31-100l-10.15,5.58s-5.08,26.91-17.77,39.09S276.2,670.2,276.2,670.2L260.46,690s-8.63,9.65-12.18,10.15-7.62-1.52-7.62-1.52,8.12-60.41,15.23-67c0,0-26.91,8.63-47.72,29.45S159.94,703.2,128,698.63s-51.28-28.94-51.28-28.94l39.6-65S152.83,524,252.84,502.16c0,0,65-23.35,18.78-55.84s-25.38-66-25.38-66-14.21-7.11-17.77-13.2l-32,22.34s-19.8,35.54-68,38.08c0,0-20.31,7.11-21.32,16.75s8.12,14.21,8.12,14.21l3,7.62-12.69,31-18.78,3.55-13.71,5.08L68,500.64A23.26,23.26,0,0,1,49.77,494,100.31,100.31,0,0,0,32,480.84l4.06-10.15,41.12-60.41s15.23-75.64,77.17-85.8l23.35-25.38s-11.17-70.57,18.78-76.15,39.09-24.37,81.23-11.17Z"/></clipPath></defs><title>hero1</title><path class="cls-2" d="M189.62,224.46S137.84,124.7,218.56,84.34c0,0,44.93,37.31,68.54,5.33s70.82-65.49,70.82-65.49,67-34.27,84.53-5.33,2.28,35.79,2.28,35.79,0.76,66.25,74.63,43.41S648.11,47.2,654.91,67.59c0.76,2.28,0,35.79,16.75,36.55s106.61-15.23,132.5.76,75.39,96.71,75.39,96.71-118.8-50.26-181.24,30.46-198,37.31-198,37.31l-99.76-32S429.5,159,354.87,169.63s-87.57,29.7-94.43,45.69S189.62,224.46,189.62,224.46Z"/><path class="cls-3" d="M278.21,210.25l0.51-6.09-3-3,3.55-24.37s2-32.49,15.23-42.64l3,19.29,13.2-13.2,0.51,11.68s27.41-6.09,52.8,4.06L381.27,229s42.14,3.55,91.38,35.54c0,0,64.47,14.72,81.74,35.54s22.34,107.12,20.81,147.23c0,0,70.57,31.48,39.09,88.84l-24.88,72.6L586.88,626l1.52,10.15-9.65,10.15-7.11,6.6H561l-14.21,4.57L538.14,654,530.53,658l-11.17-2-7.62-12.69-6.09-2.54,4.06-21.32-6.09-13.71,8.63-8.63s-0.51-14.72,18.28-6.6c0,0,15.23-10.66,23.86-9.14,0,0-8.12-23.86-17.77-33.51s-14.72-57.37-14.72-57.37l-29.45-41.12s-20.81,21.83-45.18,51.28c0,0-14.21,15.74-21.83,83.26s-16.75,84.27-16.75,84.27a686.06,686.06,0,0,1-59.4,60.41L330.5,757.52S339.64,822,268.06,858c0,0-25.89,22.85-33.51,47.21S220.85,967.19,184.29,987l-11.17-1.52s-6.09-48.74,6.6-61.94,27.41-35,27.41-35,11.17-22.34,10.66-27.41,12.69-20.81,21.32-16.75c0,0,5.58-29.45,2-40.61s-3-48.23,32-68.54L288.37,688s23.35-92.4,31-100l-10.15,5.58s-5.08,26.91-17.77,39.09-15.23,37.57-15.23,37.57L260.45,690s-8.63,9.65-12.18,10.15-7.62-1.52-7.62-1.52,8.12-60.41,15.23-67c0,0-26.91,8.63-47.72,29.45s-48.23,42.14-80.21,37.57-51.28-28.94-51.28-28.94l39.6-65S152.82,524,252.83,502.16c0,0,65-23.35,18.78-55.84s-25.38-66-25.38-66-14.21-7.11-17.77-13.2l-32,22.34s-19.8,35.54-68,38.08c0,0-20.31,7.11-21.32,16.75s8.12,14.21,8.12,14.21l3,7.62-12.69,31-18.78,3.55-13.71,5.08L68,500.64A23.26,23.26,0,0,1,49.76,494,100.31,100.31,0,0,0,32,480.84l4.06-10.15,41.12-60.41s15.23-75.64,77.17-85.8l23.35-25.38s-11.17-70.57,18.78-76.15,39.09-24.37,81.23-11.17Z"/><g class="cls-4"><g class="cls-5"><path class="cls-6" d="M281.26,204.66L300,209.74l0.51,24.88,6.6,4.06,1.52,11.68h11.17l11.68,4.06L309.69,259l-1.52,28.43,23.35-1.52L359.95,263l-40.61,54.83s-13.71,24.37-34.52.51-63-42.64-63-42.64L199.52,306.2l-10.15-31s6.6-35,33-38.58S267,231.06,267,231.06l18.28,55.84s-2-18.78-3-30-6.09-34.52-6.09-34.52Z"/><polygon class="cls-6" points="309.69 206.69 318.32 212.28 317.81 219.38 336.6 211.26 327.97 206.69 337.1 202.63 326.44 199.59 314.77 207.71 309.69 206.69"/><path class="cls-6" d="M229.48,373.21s-19.8-37.57-19.8-40.11-28.43,45.69-54.83,51.78c0,0-8.12-38.58-3.55-42.14,0,0-47.72,36.55-49.75,57.87s-7.11,29.45-7.11,29.45l17.26,24.37,77.17-25.38Z"/><polygon class="cls-6" points="85.3 500.64 86.82 465.1 58.9 477.28 70.07 477.79 64.99 487.44 77.68 479.31 85.3 500.64"/><path class="cls-6" d="M477.73,263l-44.17,37.06s86.81-7.62,106.1,76.15,7.62,106.1,7.62,106.1L562,467.13s54.83,24.88,22.85,96.46c0,0-11.68,52.8-2.54,68s36-4.06,36-4.06l17.26-190.89-59.4-135Z"/><path class="cls-6" d="M493.47,458.5s-41.63-77.17-40.61-83.77l-45.18,34.52-74.12,4.06L427.47,427s14.21,20.31-15.23,36.55c0,0-42.14-5.58-53.31-24.88,0,0,19.29,31.48,31,37.06s-64,5.08-79.7-14.72-7.62,23.35-7.62,23.35L295,495.56l-6.6-5.58-2,9.14-27.41,12.69s28.94,33.51,31.48,45.69-69.55,44.17-69.55,44.17l32-53.31s-67,71.07-80.21,89.35-55.84,38.08-69,35S78.7,693,78.7,693L168,716.4l72.09,21.32,50.77-87.83,32-68s79.7-87.83,72.6,7.62-54.83,113.21-54.83,113.21L301.57,754l17.26-5.58L263.49,871.24,391.93,768.18l79.7-239.11Z"/><path class="cls-6" d="M339.64,588.46l-27.92,97S311.21,607.76,339.64,588.46Z"/><polygon class="cls-6" points="245.22 380.82 277.2 403.67 238.11 388.44 245.22 380.82"/><path class="cls-6" d="M279.74,843.32s-44.68,54.83-40.61-7.62S125.4,930.13,125.4,930.13L136.57,1024l164-41.12Z"/><path class="cls-3" d="M441.18,427.53l24.37-8.12S464,437.68,441.18,427.53Z"/><path class="cls-3" d="M436.1,448.09L460.47,440S458.95,458.25,436.1,448.09Z"/><path class="cls-6" d="M539.16,642.79l7.11-22.34S553.37,635.17,539.16,642.79Z"/><path class="cls-6" d="M509.16,630.44l3.16-23.23S521.86,620.49,509.16,630.44Z"/><path class="cls-6" d="M403.61,292s-31-7.62-22.34-37.57,47.21-19.8,47.21-19.8Z"/><path class="cls-6" d="M341.55,316.6l40-16S351.45,293.38,341.55,316.6Z"/></g></g><path class="cls-3" d="M295.67,212.09c-0.57,0-11.23-1.52-11.23-1.52l5.71,3.81Z"/><path class="cls-2" d="M219.32,263.3L262,252.64s-4.57-29.7,6.85-57.11-83.77,10.66-83.77,10.66S185.82,238.93,219.32,263.3Z"/><path class="cls-2" d="M386.09,298.33l52.54,7.62,82.24-38.84s-85.29-84.53-106.61-57.87S386.09,298.33,386.09,298.33Z"/><path class="cls-7" d="M315.43,387l-19.7-15.23-0.81,20.94,41.9,1.63q1-.44,2-0.89l0.78-20L318.8,387.09A3,3,0,0,1,315.43,387Z"/><polygon class="cls-7" points="317.31 382.16 334.82 370.67 300.73 369.34 317.31 382.16"/><path class="cls-7" d="M369.93,356.24a13.11,13.11,0,0,1,3.52,12c-1,4.53-4.06,9.18-9.62,13.64a73.46,73.46,0,0,1-19.6,10.9L344.07,397a2.27,2.27,0,0,1-1.06,1.79l2.06-.68c10.67-3.67,20.41-8.84,27.39-14.52a40.35,40.35,0,0,0,8.1-8.56,19.64,19.64,0,0,0,3.21-8.16c0.63-5.13-1.53-9.77-6.2-13.36s-11.5-6.31-19.67-7.85a100.12,100.12,0,0,0-26.77-1.31,93.07,93.07,0,0,1,23.6,3.64C361.47,349.91,366.64,352.8,369.93,356.24Z"/><path class="cls-7" d="M300,355.41a108.43,108.43,0,0,1,24.71-.65c7.92,0.65,14.74,2.24,19.6,5a16.88,16.88,0,0,1,6.18,5.33,27.49,27.49,0,0,0-8.58-4,55.32,55.32,0,0,0-13.31-2,96.28,96.28,0,0,0-29.77,3.61q-2.69.76-5.27,1.67l49,1.9,0.17,0,0.23,0,0.25,0.06,0.25,0.08,0.24,0.1,0.22,0.12,0.21,0.13,0.2,0.16,0.16,0.15,0.11,0.12,0.09,0.12,0.12,0.18,0.11,0.2a2.17,2.17,0,0,1,.09.22,1.9,1.9,0,0,1,.11.44,2,2,0,0,1,0,.21s0,0.11,0,.14l-0.85,21.89a57.16,57.16,0,0,0,7.89-5.42c6.64-5.52,10.2-11.43,10.29-16.71s-3.44-9.78-9.67-13a45.9,45.9,0,0,0-11.07-3.86,87,87,0,0,0-13.44-1.81,118,118,0,0,0-29,1.62,97.94,97.94,0,0,0-26.25,8.27c-7.63,3.81-13.93,8.55-17.88,13.68a76.52,76.52,0,0,1,20.33-11.68A105.41,105.41,0,0,1,300,355.41Z"/><path class="cls-7" d="M379.06,386.86a114.06,114.06,0,0,1-24.28,12.4,124.66,124.66,0,0,1-27.34,6.83c-9,1.11-17.15.93-23.64-.86-6-1.65-10.4-4.53-12.83-8.18a2.37,2.37,0,0,1-1.49-2.21l0.79-20.28a31.46,31.46,0,0,0-7.25,7.58c-3.83,5.85-4.56,11.93-2.2,17.16s7.9,9.44,15.86,11.75a56.4,56.4,0,0,0,13.58,1.88,97.54,97.54,0,0,0,15.59-1.12,132.75,132.75,0,0,0,31.89-9.11,103.28,103.28,0,0,0,25.45-15c6.41-5.4,10.52-11,11.52-15.9C391.28,377,386,382.15,379.06,386.86Z"/><path class="cls-7" d="M300,401.54a43.55,43.55,0,0,0,13.2,2.09,95.71,95.71,0,0,0,28.34-4.42H341.3l-49.24-1.91a3,3,0,0,1-.71-0.11,21.53,21.53,0,0,0,2.52,1.18A24,24,0,0,0,300,401.54Z"/><path class="cls-7" d="M284.83,416.77c-6-2.68-10.13-6.5-12.39-10.9a18.9,18.9,0,0,1-.95-14.4c1.49-5,4.76-9.83,10.11-14.09a51.44,51.44,0,0,1,8.77-5.62l0.2-5.17s0-.1,0-0.14a2,2,0,0,1,0-.2c0-.07,0-0.14.05-0.21a2.15,2.15,0,0,1,.09-0.23,2.12,2.12,0,0,1,.11-0.22l0.12-.18,0.14-.17A65.44,65.44,0,0,0,274,374.82a39.64,39.64,0,0,0-7.91,8.39,28,28,0,0,0-4,8.9,19.77,19.77,0,0,0,2.7,16.58c3.23,4.87,9,8.64,16.35,10.9s16.72,2.76,26.46,1.59C298.61,420.94,290.77,419.48,284.83,416.77Z"/></svg>