<svg id="Layer_5" data-name="Layer 5" xmlns="http://www.w3.org/2000/svg" xmlns:xlink="http://www.w3.org/1999/xlink" width="800.96" height="950.89" viewBox="0 0 800.96 950.89"><defs><style>.cls-1,.cls-11,.cls-9{fill:none;}.cls-2{fill:#003d51;}.cls-11,.cls-3,.cls-7{opacity:0.2;}.cls-4{clip-path:url(#clip-path);}.cls-5,.cls-7{fill:#231f20;}.cls-6{clip-path:url(#clip-path-2);}.cls-8{clip-path:url(#clip-path-3);}.cls-9{stroke:#003d51;}.cls-11,.cls-9{stroke-miterlimit:10;stroke-width:3px;}.cls-10{fill:#00955f;}.cls-11{stroke:#231f20;}</style><clipPath id="clip-path"><path class="cls-1" d="M495.65,32.38s117.15,43.47,159,133S713,381.17,713,381.17l3.71,27.56s2.12,273-169.62,314.86c0,0,139.94-16.43,142.06-311.68L679.06,325s-15.37-134.11-54.6-186.59S495.65,32.38,495.65,32.38Z"/></clipPath><clipPath id="clip-path-2"><path class="cls-1" d="M110.11,294.42c1.06,0,38.87,11.31,38.87,11.31S175.13,328,203.4,320.57l6,18.73s-2.83,51.59,18.38,77.74l10.6,39.23,38.52,77.39-0.35,12-3.89,7.42,1.41,7.77L267.72,569s-30.74-5.65-50.53,1.41c0,0-41-16.26-64.67.71s-13.43,49.12-13.43,49.12l6.36,20.5,13.43,19.44s12.37,59,51.24,79.51c0,0,41,39.58,109.2,80.57,0,0,8.13,9.89,15.2,11L344.4,840s13.08,27.92,50.89,44.88c0,0,13.78,31.1,25.09,37.11s15.9,5.3,15.9,5.3,14.84,5.3,19.08-18.73-8.13-55.13-8.13-55.13l-25.09-27.92-4.24-5.65s-3.53-29-8.48-33.57-9.89-2.12-9.89-2.12-14.84-9.54-33.57-5.65l-12-3.53-6-4.95-4.24-.71-2.12-10.25-8.13-2.47-42.05-49.83s20.14,2.12,36.4-9.72c0,0,42.76-6.18,58.31-15l4.24,1.06,9.89,14s20.14,51.42,48.06,79.69l9.54,14.49s43.82,62.9,52.65,70.68c0,0,8.83,35.69,31.45,53.71l47,96.47s62.55,6.36,62.55,5.3S641.6,992,641.6,992s-22.26-139.23-51.95-158.32l-50.89-45.59S502,645.68,489.29,628.36l-15.9-48.77S456.78,529.77,449,524.12,440.52,475,440.52,475l2.83-31.1s22.26-36.75,24.74-52.65c0,0,29.33,1.41,35.34.71l31.8,7.77s9.19,20.5,74.56,14.49c0,0,68.2-.71,71-3.89l13.43,8.13,18,0.35,14.84-11.31s13.43,1.06,11.31-20.85c0,0,1.06-12.72-4.24-17.32L725.7,349.9l-22.26-6.36-12.37,7.07-9.89-.35-6,7.77-4.95,3.89L666,365.8l-33.92-1.41S562.79,330.81,528.87,334c0,0-25.09-22.26-41.35-17.67l-5.65-6s10.25-19.08,8.83-23c0,0-26.5-14.49-73.86-8.13l-58.66-26.86L215.42,233.63l-8.13,8.13-65.73-8.13Z"/></clipPath><clipPath id="clip-path-3"><path class="cls-1" d="M90.32,228l-16.61,1.77s-22.26,16.61-9.19,38.52,35.34,38.87,89.41,25.8L167,292.65l33.57,2.12s9.89,14.49,15.2,17l3.18,14.49,4.59,21.2s6.71,2.12,8.13-6S231,328.69,231,328.69l-1.41-8.83,3.89-13.08,5.65-1.77,3.18,17,10.25,17,9.54-3.53-6-22.26-3.53-4.59-1.77-10.25L267,293.71l6.36,13.78s-0.71,10.25,2.83,13.08l7.07-3.89,1.41-9.19,1.77-3.18,6.36-6.36,1.41-18s-7.07-7.07-13.08-5.3-16.26.35-16.26,0.35L226.72,261.2l-13.08-8.13L155,237.17S128.48,205.36,90.32,228Z"/></clipPath></defs><title>hero4</title><path class="cls-2" d="M496.18,33.44s117.15,43.47,159,133,58.31,215.74,58.31,215.74l3.71,27.56s2.12,273-169.62,314.86c0,0,134.64-44,142.06-311.68L679.59,326S664.21,191.93,625,139.46,496.18,33.44,496.18,33.44Z"/><g class="cls-3"><g class="cls-4"><path class="cls-5" d="M528,43s99.65,66.26,125.63,136.76,43.47,171.74,46.65,205.67S690.72,598,643.54,664.76s88-67.32,88-67.32l12.72-331.3S608,57.3,605.9,57.3,528,43,528,43Z"/></g></g><path class="cls-2" d="M109.58,294.42c1.06,0,38.87,11.31,38.87,11.31S174.6,328,202.87,320.57l6,18.73s-2.83,51.59,18.38,77.74l10.6,39.23,38.52,77.39-0.35,12-3.89,7.42,1.41,7.77L267.19,569s-30.74-5.65-50.53,1.41c0,0-41-16.26-64.67.71s-13.43,49.12-13.43,49.12l6.36,20.5,13.43,19.44s12.37,59,51.24,79.51c0,0,41,39.58,109.2,80.57,0,0,8.13,9.89,15.2,11l9.89,8.83s13.08,27.92,50.89,44.88c0,0,13.78,31.1,25.09,37.11s15.9,5.3,15.9,5.3,14.84,5.3,19.08-18.73-8.13-55.13-8.13-55.13l-25.09-27.92-4.24-5.65s-3.53-29-8.48-33.57-9.89-2.12-9.89-2.12-14.84-9.54-33.57-5.65l-12-3.53-6-4.95-4.24-.71L341,759.12l-8.13-2.47-42.05-49.83s20.14,2.12,36.4-9.72c0,0,42.76-6.18,58.31-15l4.24,1.06,9.89,14s20.14,51.42,48.06,79.69l9.54,14.49S501.13,854.18,510,862c0,0,8.83,35.69,31.45,53.71l47,96.47s62.55,6.36,62.55,5.3S641.07,992,641.07,992,618.8,852.76,589.12,833.68l-50.89-45.59s-36.75-142.41-49.47-159.73l-15.9-48.77s-16.61-49.83-24.38-55.48S440,475,440,475l2.83-31.1s22.26-36.75,24.74-52.65c0,0,29.33,1.41,35.34.71l31.8,7.77s9.19,20.5,74.56,14.49c0,0,68.2-.71,71-3.89l13.43,8.13,18,0.35,14.84-11.31s13.43,1.06,11.31-20.85c0,0,1.06-12.72-4.24-17.32l-8.48-19.44-22.26-6.36-12.37,7.07-9.89-.35-6,7.77-4.95,3.89-4.24,3.89-33.92-1.41S562.26,330.81,528.34,334c0,0-25.09-22.26-41.35-17.67l-5.65-6s10.25-19.08,8.83-23c0,0-26.5-14.49-73.86-8.13l-58.66-26.86L214.89,233.63l-8.13,8.13L141,233.63Z"/><g class="cls-6"><path class="cls-7" d="M709.62,385.94l6-9.19-8.13-11.66,5.65-7.77-11-6.36-19.44,4.24s-11,12.37-11,11.31-2.83,7.42-2.83,7.42L616,370c-24-18.73-93.29-30-93.29-30-8.48-10.25-51.59-24.74-51.59-24.74-27.56-28.27-66.44-19.44-66.44-19.44L342.1,267.21s-28.62-4.59-77.74-19.44c-46.39-14-58.11,7.58-59.27,10l-10.53-.39s-74.21,14.84-50.36,38.7c19.31,19.31,57,17.78,70.7,16.49-5,30.85,11.64,83.6,11.64,83.6l9.89,10.6s4.59,31.1,3.53,39.93,35.69,62.55,35.69,62.55h-5.3l17,34.63-7.07,9.19,3.53,13.78-7.07,7.42s-0.35,1.41,21.56,11,40.29,64.67,40.29,64.67L352.71,669s-28.27,15.2-22.62,11.31,8.48-17,8.48-17c-4.95,6-25.8,5.65-25.8,5.65,3.18-2.47,5.3-17.67,5.3-17.67-11,13.43-49.83,27.56-49.83,27.56-11.31,74.21-61.49,65-61.49,65L310.65,825.2,388.75,928l73.86,18.73,3.53-77s-42.41-85.17-43.82-88-60.78-14.14-60.78-14.14l-53.36-55.83,71-16.61,60.08,85.17,123,246,96.12,13.08s-30.74-236.77-45.94-181.29-38.52,58-38.52,58l-33.57-51.59,5.3-13.43s-8.83,3.53-13.43,2.47-19.44-13.78-19.44-13.78l12.72,0.71L511.37,828,504,808.94l-7.07,12c-8.48-5.3-18.38-35.34-18.38-35.34l25.09,7.77s-1.41-11-14.84-19.79-46.29-76.51-46.29-76.51L430.1,645.68l-12,8.83,9.54-31.1-41.7,36.4-13.08,1.06L388.4,621.3l-4.95-21.91,42.05-30-30,13.78,24.38-49.83-25.09,3.53,18-29.33s-43.11,26.5-43.47,25.44-0.35-42.05,4.95-51.59S381.33,457,381.33,457s-4.24-21.56,11.66-32.51S420.2,376.4,420.2,376.4l48.41,17,138.88,42.05s102.83-16.61,103.89-21.56a12.49,12.49,0,0,0-1.06-8.48s2.12-3.89,3.89-12.37S709.62,385.94,709.62,385.94Z"/></g><path class="cls-2" d="M89.79,228l-16.61,1.77S50.92,246.36,64,268.27s35.34,38.87,89.41,25.8l13.08-1.41L200,294.77s9.89,14.49,15.2,17l3.18,14.49,4.59,21.2s6.71,2.12,8.13-6-0.71-12.72-.71-12.72L229,319.86l3.89-13.08,5.65-1.77,3.18,17,10.25,17,9.54-3.53-6-22.26L252,308.55l-1.77-10.25,16.26-4.59,6.36,13.78s-0.71,10.25,2.83,13.08l7.07-3.89,1.41-9.19,1.77-3.18,6.36-6.36,1.41-18s-7.07-7.07-13.08-5.3-16.26.35-16.26,0.35L226.19,261.2l-13.08-8.13-58.66-15.9S128,205.36,89.79,228Z"/><path class="cls-2" d="M267.19,258.72s-14.14.35-15.2-5.65c0,0,8.48.35,8.13-1.77,0,0-10.6-5.65-9.54-9.19,0,0,3.89,1.41,6.36-1.06l0.71-15.9-6.36-6.71,9.89-37.81,2.83-17,8.83,0.71s42.05-19.08,68.56,5.3,38.52,48.06,38.52,48.06l19.79,20.85-21.2,11.31-9.89-1.06-3.53,24.38-0.35,5.65,4.59-1.77s-4.24,10.25-6.71,9.89c0,0,2.12,10.25,1.77,16.26,0,0-.35,19.44,10.25,13.78s1.41-.35,1.41-0.35,2.12,19.44-19.08,13.78c0,0-17,15.55-25.8,6,0,0,7.07-2.83,5.3-9.19s-27.92-21.56-27.92-21.56l-13.78-9.89S267.89,282,267.19,258.72Z"/><path class="cls-7" d="M266.48,227.1L337,246.18l-26,2.65-2.12,4.59,5.83-1.59s20.85,6.71,29,3,11.13-6.89,11.13-6.89l12,0.88s-1.77,11.13-6,12.9l-15.55-.35L331,268.8l-10.07,7.6s-13.08-.71-18.38-7.07c0,0,2.65,5.83,6,8,0,0-2.47,3.36-4.59,1.77l16.79,9,15-10.07s-0.71,3.89,1.06,4.59c0,0-8.13,6.18-9.72,8.3s-12.55,3.53-13.61,1.59c0,0,6,7.07,9.36,7.77l1.59,12.9L299.7,297.42,300.93,282s-14-12-6-28.62S266.48,227.1,266.48,227.1Z"/><polygon class="cls-2" points="311.89 259.78 328.32 259.78 318.96 263.67 311.89 259.78"/><polygon class="cls-2" points="350.76 254.66 359.6 251.66 359.24 248.65 350.76 254.66"/><g class="cls-8"><path class="cls-7" d="M62.75,237A35.81,35.81,0,0,0,87,253.25c17,3,40.64,11.66,40.64,11.66l51.24,1.94s29.68-7.77,44-1.06,37.81,20,37.81,20L270.9,287l-2.47,4.59-19.08,5.12-4.95-6.18s-10.25.71-8,6.18-12.19,4.42-12.19,4.42-8,7.07-8.48,6.89-13.25-9-13.43-13.43l-4.42-4.42-57.42-6.71-33.75,6.89L86.08,272.86l-13.43-1.41-18.2-15.9Z"/></g><line class="cls-9" x1="511.55" y1="41.39" x2="555.55" y2="722.54"/><path class="cls-10" d="M288.57,413.31a1,1,0,0,0-.31,1.23,1.17,1.17,0,0,0,1.07.62h0.17c0.23,0,6.62-2,9.83-4.47a28.65,28.65,0,0,0,5.23.41c11.46-.14,20.34-6.7,19.79-14.6s-10.23-14.72-21.55-15.2-20.17,6-19.75,14.57c0.23,4.84,3.48,9.39,8.75,12.26A11.56,11.56,0,0,1,288.57,413.31Z"/><path class="cls-10" d="M285.1,374.44a82.65,82.65,0,0,1,20-.24c6.83,0.69,12.31,2.13,16.3,4.29a17,17,0,0,1,4.95,3.68,27.31,27.31,0,0,0-6.69-2.86,47.42,47.42,0,0,0-11-1.74c-1.37-.08-2.76-0.11-4.17-0.1a33.27,33.27,0,0,1,15.72,5.78c5.2,3.63,8.27,8.34,8.63,13.31a13,13,0,0,1-.31,3.9c0.63-.51,1.25-1,1.82-1.56,4.9-4.47,7.35-9.23,6.93-13.46s-3.72-7.8-9.16-10.49a43.69,43.69,0,0,0-9.37-3.31,75.59,75.59,0,0,0-11.08-1.77,87.76,87.76,0,0,0-23.38.83,65.16,65.16,0,0,0-20.72,7.05c-6.09,3.53-10.83,7.9-13.7,12.63a0.15,0.15,0,0,0,0,.19,0.14,0.14,0,0,0,.19,0,53.15,53.15,0,0,1,15.75-10.75A71.24,71.24,0,0,1,285.1,374.44Z"/><path class="cls-10" d="M296.34,430.55c-7.56.44-14.18-.32-19.15-2.22a20.74,20.74,0,0,1-10.93-8.88,18.53,18.53,0,0,1-1.73-12.84,24.05,24.05,0,0,1,7.29-12.84,38.64,38.64,0,0,1,8.68-6.16,17.73,17.73,0,0,1,5.11-5.76,22.49,22.49,0,0,1,6.07-3.12,67.5,67.5,0,0,0-7.07,1.75,49.4,49.4,0,0,0-19.4,10.94,31.9,31.9,0,0,0-5.93,7.79,26.57,26.57,0,0,0-2.73,8.3,19.76,19.76,0,0,0,3.31,15.1c3,4.21,8,7.24,14.36,8.76a46.47,46.47,0,0,0,11.81.83,64.8,64.8,0,0,0,10.34-1.38,0.13,0.13,0,0,0,.11-0.15A0.14,0.14,0,0,0,296.34,430.55Z"/><path class="cls-10" d="M363.76,387.83a0.14,0.14,0,0,0-.16,0c-2.32,4-6.23,7.94-11.31,11.53h0a94.15,94.15,0,0,1-18.79,10.42,107.38,107.38,0,0,1-21.59,6.72,131.54,131.54,0,0,0,15.24-5.73c8.33-3.54,15.71-8.1,20.78-12.84a24.17,24.17,0,0,0,5-6.88,12,12,0,0,0,1.32-5.24,11.34,11.34,0,0,0,.16-1.68c0-3.94-2.21-7.52-6.42-10.38-4-2.85-9.79-5.14-16.79-6.62a83.54,83.54,0,0,0-21.84-1.81,0.11,0.11,0,0,0-.11.12,0.16,0.16,0,0,0,.15.13,82,82,0,0,1,19.41,3.56c5.51,1.68,10,4,13.07,6.81s4.32,5.95,4,9.27c-0.37,3.65-2.58,7.22-6.56,10.65a54.05,54.05,0,0,1-12,7.75,17.8,17.8,0,0,1-5.33,6,29.86,29.86,0,0,1-17.15,5.42,33.79,33.79,0,0,1-4.17-.18,42.91,42.91,0,0,1-10.25,4.28,6.05,6.05,0,0,1-.83.08,5.71,5.71,0,0,1-5.3-3.07,4.83,4.83,0,0,1,1.47-6.09,5.44,5.44,0,0,0,.55-0.68c-4.6-3.59-7.37-8.5-7.61-13.63a15.59,15.59,0,0,1,.77-5.64l-0.25.2a24.77,24.77,0,0,0-6.08,7.45c-2.73,5.31-2.95,10.82-.61,15.45s7.29,8,14,9.55a44.91,44.91,0,0,0,11.42.78,81.28,81.28,0,0,0,12.84-1.89,115.07,115.07,0,0,0,25.6-9.05A83.67,83.67,0,0,0,356,400.15c4.86-4.32,7.59-8.52,7.91-12.19A0.13,0.13,0,0,0,363.76,387.83Zm-82.56,23.22,0.63,0.3a4.26,4.26,0,0,0,.1.54C281.67,411.62,281.42,411.34,281.19,411.05Z"/><path class="cls-9" d="M317.54,427.29s30.21,20.14,76.33,1.59"/><path class="cls-11" d="M231.67,616.53s31.27,28.09,37.11,59.9"/></svg>