<?xml version="1.0" encoding="utf-8"?>
<!-- Generator: Adobe Illustrator 19.2.1, SVG Export Plug-In . SVG Version: 6.00 Build 0)  -->
<svg version="1.1" id="Layer_6" xmlns="http://www.w3.org/2000/svg" xmlns:xlink="http://www.w3.org/1999/xlink" x="0px" y="0px"
	 width="801px" height="950.9px" viewBox="0 0 801 950.9" style="enable-background:new 0 0 801 950.9;" xml:space="preserve">
<style type="text/css">
	.st0{fill:#003D51;}
	.st1{opacity:0.2;}
	.st2{clip-path:url(#SVGID_2_);}
	.st3{fill:#231F20;}
	.st4{fill:#45C1CB;}
</style>
<title>hero5</title>
<path class="st0" d="M40.6,916.1c-5.4-75-5.7-173.5-5.7-201.8l11.3,11.4l9.3-2.9l19.4,3.9l2.7-1.4c-0.7,67.9,21,195.7,21,195.7
	c-5.5-75.2-5.7-174-5.7-202l10.1-1l8.2-10.2l-1-32.2l-14.9-3.8l-0.3-22.5l6.4-17.4l27.1-25.1l8.6-32.9c0,0,24.6,8.4,40.1-3.7
	c0,0,26.7,12.6,50.5,0.7c0,0,43.8,21.3,80.8,17.3c0,0,11.6,12.5,25.1,6.8c0,0,36.7,8.8,48.7,4c0,0,53.2,34.2,85.5,38.4
	c0,0,88.2,56.8,155.1,51.3c0,0,32.9-1.2,63.2-14.7c0,0,46.5-0.9,56.7-13c0,0,16.2-7.7,21.1-30.3c4.9-22.5-11.4-46.4-11.4-46.4
	l-12.7-14.7l-10.8-2.1c0,0-35.1-48.9-78-23.7c0,0-68.2-28.2-92.9-22.3l3.6-16.3l-9.2-26.5c0,0,30.7-21.1,27.8-45.5
	c0,0,24.3-18.7-13.2-48.4l-14.1-13.7l-19.6-19.6c0,0-34.1-6.9-44.5,4.4c0,0-6.4-47.9-31.8-62.2l2.3-25.2c0,0,37.2-28.1,43.8-69.7
	l51.2-4.6l17.9-21.5l13.3-6.5l15.9,10.4l11-6.9l9,9.9l8.9-0.6c0,0-4.7,8.2,6,9.6l11.8-6.3l18.7-5.8l2-22.1l2-16.2
	c66.1,5.3,110.2,47.3,110.2,47.3c-42.5-55.4-89.3-62.5-117.3-60.5l-2.6-2.4L661,112l-16.3-7.9c63.1-7.8,113.1,21.3,113.1,21.3
	c-48.5-39.6-91.4-40.6-119.1-34.3l-39.8-6.7l-23.6-7l-18.4,8c0,0-45.4-12-68.5,9.5c0,0-36.8,5.5-37.5,31.2c0,0-27.2,9.3-29,22.4
	c0,0-46.5,0.9-57.5,48.4c0,0-70.2,8.2-68.8,78.7c-15.3,9.8-30.1,20.5-44.3,31.9c-3.2-5.6-6.9-11.1-10.9-16.2l-20.8-26.6l-10.5,71.9
	c0,0-53.9,22.4-58,59.8l-27.9-29.5c0,0,3.4,50.6,14.2,72c-11.9,2.3-28.8,9.2-37.2,29.8c0,0-13.8,13.3-15.1,24.8
	c0,0-41,7.6-49.7,65.3l-2.8,56.8L26,626.4l1.3,8.8l-9.7,10.5l-2.2,10.1l-5.1,6l1.2,13.4c0,0-7.5,15.4-0.9,24.2
	c2.4,3.2,5.8,5.6,9.6,6.6c0,0.6-0.1,1.1-0.1,1.7C16,770.8,40.7,916.1,40.6,916.1z"/>
<g class="st1">
	<g>
		<defs>
			<path id="SVGID_1_" d="M10.7,700.2c6.6,8.8,16.9,7.3,16.9,7.3l18.6,19l9.3-2.9l19.4,3.9l14-7.3l14.1-1.3l8.2-10.3l-1-32.2
				l-14.9-3.8L95,650l6.4-17.5l27.1-25.1l8.6-32.9c0,0,24.6,8.4,40.1-3.7c0,0,26.7,12.6,50.5,0.7c0,0,43.8,21.3,80.8,17.3
				c0,0,11.6,12.5,25.1,6.8c0,0,36.7,8.8,48.7,4c0,0,53.2,34.2,85.5,38.4c0,0,88.2,56.8,155.1,51.3c0,0,33-1.1,63.3-14.7
				c0,0,46.5-0.9,56.7-13c0,0,16.2-7.7,21.1-30.2S752.6,585,752.6,585l-12.7-14.6l-10.9-2.2c0,0-35.1-48.9-78-23.7
				c0,0-68.1-28.2-92.8-22.3l3.6-16.3l-9.2-26.5c0,0,30.7-21.1,27.8-45.5c0,0,24.3-18.7-13.2-48.4L553,371.8l-19.6-19.6
				c0,0-34.1-6.9-44.5,4.4c0,0-6.4-47.9-31.8-62.2l2.3-25.2c0,0,37.2-28.1,43.8-69.7l51.2-4.6l17.9-21.5l13.3-6.5l15.9,10.4l11-6.9
				l9,9.9l8.9-0.6c0,0-4.7,8.2,6,9.6l11.8-6.3l18.7-5.8l2-22.1l2.7-22.2l-10.5-9.8l-0.1-10.5l-20.3-9.8l-1.6-11L599,85.1l-23.6-7
				l-18.4,8c0,0-45.4-12-68.5,9.5c0,0-36.8,5.5-37.5,31.2c0,0-27.2,9.3-29,22.4c0,0-46.5,0.9-57.5,48.4c0,0-70.2,8.2-68.8,78.7
				c-15.3,9.8-30.1,20.5-44.3,31.9c-3.2-5.6-6.9-11.1-10.9-16.2l-20.7-26.6l-8.5,55.5c0,0-59.1,41.1-63.2,78.5l-24.8-31.8
				c0,0,3.4,50.6,14.2,72c-11.9,2.3-28.8,9.2-37.2,29.8c0,0-13.8,13.3-15.1,24.8c0,0-41,7.6-49.7,65.3l-2.8,56.8l-6.7,10.8l1.3,8.8
				l-9.7,10.5l-2.2,10.1l-5.1,6l1.2,13.4C11.6,676,4.1,691.4,10.7,700.2z"/>
		</defs>
		<clipPath id="SVGID_2_">
			<use xlink:href="#SVGID_1_"  style="overflow:visible;"/>
		</clipPath>
		<g class="st2">
			<path class="st3" d="M250.7,468.3l-10.1-0.4l4,5.1l-5.9,1.9l-19.8,10.2l-21.3,1.7l7.7,4.4l16.6,10.6l49,8.5
				c0,0,2.3,24.4,5.8,24.4s-30.4,10.4-30.4,10.4l-30.6,37L364,624.4l162.2,91.9l216.9-23.6l30.4-78.8l-28.1,13.7
				c-4.7,15.8-38.6,16.8-38.6,16.8l-14.9-9.1l-18.4-7l-1.4-9.6l-26.5-2.6l-32.1,11.8l-18.2-6.3l-19.4-7.1l-16.2-36.4l-32.8-6.2
				l-0.7-25l-54.1,15.8l9.7-25.5l-29.6,21.7c0,0,19.7-19,20.5-19.1s-5.3-27.3-5.3-27.3L457,541.6l-20.4,18.1l8.4-19.5l-14.3-26.7
				c0,0,0.1,19.3,0,20.1s-8.2,12-8.2,12l-13.2,9.2l-5.1-7l1.3-23.5l-11.8-18.3l1.4,21.1l-5.7,10.4l-29.2-32.6l-6.5,2l-0.9-24.7
				l-10.3-22l-6.2,10.5l-4.3-20.7l-7,6.7l14.1-51.8l-33.5-123.6l-88-25.2l21.2,121.6l17.8,18.4l6.6,23.9c0,0-4.6,6.3-5.2,6.9
				s-2.4,32.5-2.4,32.5L243,462L250.7,468.3z"/>
			<path class="st3" d="M176.4,590.7l-68.5,81.9l-37.5-6l3.5-20.6l-1.8-11.2l25.8-39l-7.4-12.4l9.3-35c12.8,11.6,32.2,7.2,32.2,7.2
				c-11.6-3.8-9-30.2-9-30.2c11.8,18.8,53.5,22.1,53.5,22.1s39.5-37.5,53.8-19.1s-13.2,49.6-13.2,49.6L176.4,590.7z"/>
			<polygon class="st3" points="90.4,683.3 84.2,715.8 99,691.9 92.1,674 			"/>
			<path class="st3" d="M81.3,685.6l-20.1,33.1c0,0-9.1-0.6-10.6-0.4s15.2-22.8,15.2-22.8l0.5-16.6l15.6,0.2L81.3,685.6z"/>
			<path class="st3" d="M57.4,683.7c0,0-22.7,22.4-24.6,23.2c-1.9,0.8,2.1-9.3,2.1-9.3L26,684.9l9.5-24l-9.6-4.1l7.5-3.6l0.4-14.1
				l11.7,7.8l12.8,25.7L57.4,683.7z"/>
			<path class="st3" d="M612.8,414.4c2.7-1.9-21.7-241.6-21.7-241.6l-23.8-15l-5.9-19.2l-33.1,20L488.4,140c0,0,8.7,10.7,8.4,32.3
				s-54,88.3-57.8,76.3s-28.2-23.8-28.2-23.8s5.5,6.7,16.7,54.7s-59.3,63-59.3,63c19.5,23.2,74.7-17.1,74.7-17.1l14.6,33.9l1.9,56.4
				L416,502.4l40.6-30.1l18.2-42.8l2-54l9.8,32.1l-1.2,45.8L471,474.5l6.1,30.7l5.8-18.4l11.4-14.2l10.2-19.1c0,0,8.6,50.9,18.8,8.2
				s33.5,26.5,33.5,26.5S610.1,416.3,612.8,414.4z"/>
			<polygon class="st3" points="645.6,98 646.5,77.3 619.1,122.5 610.2,136.4 596.7,126.8 596.7,143.4 619.4,148 640,107.3 			"/>
			<path class="st3" d="M671.2,115.2l-16.9,14.6l-18.9,24.9l-19.9,11l8.2,4.8L673,127l-2.5,16.9c0,0-37,31.1-38.4,31.8
				s24.6-9.7,24.6-9.7l15.5-19.8l1.8,42.4l-39.5,7.4l-22.5-19.7l-2.1-17.7l14.8-5.2l18.1-23.3l23-21L671.2,115.2z"/>
			<path class="st3" d="M337.9,292.5C325,255,281.7,283,281.7,283l39.3,23l22.3,25.3C343.3,331.3,350.8,329.9,337.9,292.5z"/>
			<path class="st3" d="M183.6,482.1c0,0-47.4,11.3-57.4-11.9s9.5-32.5,9.5-32.5c7.2,11.8,33.3,33.7,33.3,33.7L183.6,482.1z"/>
			<path class="st3" d="M327.2,443.4l31.5-78.4C309.9,387.6,327.2,443.4,327.2,443.4z"/>
			<path class="st3" d="M590.4,107.8l-5.8-3.7l2.1,14l-9.9-6l3.7,14.5l10.5,5.2l-1.4-9.6c0,0,7.2-7.1,9.4-7.4
				c2.2-0.3,0.1-19.6,0.1-19.6L590.4,107.8z"/>
		</g>
	</g>
</g>
<path class="st0" d="M314.6,466c4.3,4.9,8,24.9,8,24.9s-0.6,17.6-14.3,21.7s-23.8-8.5-23.8-8.5l5.3,2.3l0.1-3.3c0,0,1.4,4.1,13.6,4
	s10.3-18.9,10.3-18.9l-6.8-7.6l5.9-2l-8.9-15.2C303.9,463.4,310.3,461.1,314.6,466z"/>
<path class="st0" d="M283.2,462.4c0,0-7,18.8-10,23.8s-13.8,10.3-13.8,10.3c2.6,2.6,11.8,2,11.8,2l-2.8-5.1c0,0,4.7,1.6,11.8-5
	c7-6.6,5.8-16.7,5.8-16.7l6-0.4c0-3.5-5.2-9.8-5.2-9.8C283.1,460,283.2,462.4,283.2,462.4z"/>
<polygon class="st0" points="266.8,429.8 268.5,449.4 260.4,457.8 262.9,440.5 "/>
<polygon class="st0" points="235.4,489.3 219,490.8 236.1,483 "/>
<path class="st4" d="M381.6,470.7c-4,5.3-7.2,11.1-9.6,17.3c-2.3,6.1-3.1,11.3-2.1,15.5c0.4,2,1.3,3.9,2.6,5.4
	c-0.7-2.2-1-4.4-0.8-6.7c0.3-3,1-5.9,2.2-8.7c0.5,4.8,4,9.3,9.6,11.6c-0.8,5.2,3.1,10.4,9.5,12.2l0.4,0.1c-0.1,0.1-0.2,0.1-0.4,0.2
	c-7.8,2.9-15.2,3.5-20.9,1.8c-5.3-1.5-9.2-5.9-10.1-11.3c-0.5-3-0.5-6.1,0.2-9.2c0.7-3.5,1.8-6.9,3.2-10.1c3.1-7.3,7.2-14,12.3-20.1
	c4.9-6.1,10.7-11.5,17.1-16.1c6.2-4.3,12.6-7.3,18.4-8.5c0.1,0,0.1,0,0.2,0.1c0,0.1,0,0.1-0.1,0.2c0,0,0,0,0,0
	c-6.3,2.7-12.1,6.4-17.3,10.8C390.6,459.8,385.7,465,381.6,470.7z"/>
<path class="st4" d="M406,475.1c1.6-1.9,4.2-2.7,6.6-1.9c3,0.9,4.6,3.8,3.6,6.3l-11,29.7c-1.3,3.6-6.1,5.5-10.7,4.2
	c-4.6-1.3-7-5.2-5.6-8.8c0.3-1.1-0.3-2.3-1.5-2.6c-0.1,0-0.1,0-0.2,0c-6.5-2-9.9-7.8-7.6-13.1c1.9-4.4,7.2-7.2,12.7-6.7
	c0.7,0.1,1.4-0.1,1.9-0.5c0.5-0.4,0.8-1,0.8-1.6c0-0.6,0.1-1.1,0.3-1.6c1-2.4,4.1-3.7,6.9-2.8c0.2,0.1,0.4,0.1,0.6,0.2
	C404,476.2,405.3,476,406,475.1z"/>
<path class="st4" d="M443.6,479.3c-0.7-4.8-3.1-9.1-6.6-12.3c-3.6-3-8-4.8-12.7-5.1c-5.5-0.5-11,0.5-16,2.8
	c-4.2,1.9-8.2,4.3-11.7,7.2c-2.5,0.8-4.6,2.7-5.8,5.1c-0.1,0.3-0.2,0.6-0.3,0.9c-3.2,0.1-6.4,1-9.2,2.7c2.2-3,4.7-5.9,7.3-8.5
	c5.6-5.8,12.3-10.5,19.7-13.9c3.2-1.4,6.7-2.5,10.2-3c3.1-0.5,6.2-0.5,9.3-0.1c5.5,0.6,10.5,3.1,14.2,7.2c3.5,3.9,5.4,9.2,5.6,15.3
	c0,3.7-0.6,7.3-1.7,10.8c-0.9,3.1-2.2,6-3.8,8.9c0,0.1-0.1,0.1-0.2,0.1c-0.1,0-0.1-0.1-0.1-0.2C443.9,490.5,444.5,484.3,443.6,479.3
	z"/>
<path class="st4" d="M364.4,543.4c0-0.1,0.1-0.1,0.2-0.1c7.4-0.8,14.6-2.9,21.4-6.1l0,0c7.4-3.5,14.3-7.9,20.6-13.2
	c5.8-5,10.9-10.9,15-17.4c3.8-6.4,5.8-12.2,5.9-17.2c0.3-4.1-1-8.2-3.7-11.4c0.2,0.7,0.3,1.4,0.4,2.1c0.7,1.7,1.1,3.6,1.2,5.4
	c0.1,3.5-0.6,6.9-1.9,10.2c-2.7,7.1-8,14.6-15,21.1c-6.9,6.4-15,11.4-23.7,14.8c-3.8,1.5-7.8,2.4-11.8,2.9c-3.3,0.4-6.7,0.2-9.9-0.5
	c-5.8-1.3-10-4.4-12.1-9c-2.1-4.4-2.4-10.1-0.8-16.6c1.8-7,4.8-13.5,8.9-19.4c0.1-0.1,0.1-0.1,0.2-0.1c0.1,0,0.1,0.1,0.1,0.1
	c0,0,0,0,0,0c-3.2,6.7-4.9,12.6-5.3,17.9c-0.4,5.2,0.6,10,2.9,13.5c2.8,3.6,6.8,5.9,11.3,6.4c5.3,0.9,11.2,0.1,17.5-2.3
	c4.4-1.7,8.5-3.9,12.4-6.6c5.5-0.1,10.4-2.9,12-7.4l10.7-29.7c1.7-4.8-1.3-10.1-6.7-11.7c-3.8-1.2-7.9-0.4-10.9,2.2
	c-1.1-0.3-2.2-0.4-3.4-0.3c0.6-0.4,1.3-0.7,1.9-1c3.3-1.6,6.7-2.7,10.3-3.2c6.6-0.9,12.5,0.5,16.6,3.9c4.2,3.4,6.6,8.8,6.5,15.3
	c-0.1,3.6-0.8,7.1-2,10.4c-1.4,3.8-3.2,7.5-5.4,10.9c-5,7.6-11.3,14.4-18.5,20c-7.2,5.6-15.2,10.1-23.7,13.3
	c-8.1,2.8-15.5,3.8-21.2,2.9C364.5,543.5,364.5,543.4,364.4,543.4z"/>
</svg>
