<?xml version="1.0" encoding="utf-8"?>
<!-- Generator: Adobe Illustrator 19.2.1, SVG Export Plug-In . SVG Version: 6.00 Build 0)  -->
<svg version="1.1" id="Layer_1" xmlns="http://www.w3.org/2000/svg" xmlns:xlink="http://www.w3.org/1999/xlink" x="0px" y="0px"
	 width="200px" height="280px" viewBox="0 0 200 280" style="enable-background:new 0 0 200 280;" xml:space="preserve">
<style type="text/css">
	.st0{opacity:0.2;fill:#FFFFFF;enable-background:new    ;}
	.st1{opacity:0.5;enable-background:new    ;}
	.st2{fill:#4C4B4D;}
	.st3{opacity:0.2;clip-path:url(#SVGID_2_);fill:#231F20;enable-background:new    ;}
	.st4{fill:#B4B4B4;}
	.st5{fill:#FFFFFF;}
</style>
<g>
	<path class="st0" d="M201.3,287.9H-0.4c-2.3,0-4.1-1.9-4.1-4.1v-287c-0.1-2.2,1.8-4.1,4.1-4.1h201.8c2.3,0,4.1,1.9,4.1,4.1v286.9
		C205.4,286,203.5,287.9,201.3,287.9z"/>
	<g>
		<g>
			<g class="st1">
				<path class="st2" d="M72.7,143.3c0,0,18.8,17.1,2,22.7c-16.8,5.5-26.5,11.3-23.8,29.2s-22.8,28.7-23.5,12.3
					c0,0-12.1,25.4,13.6,33s62.4-61.7,62.4-61.7L95,141L72.7,143.3z"/>
				<path class="st2" d="M56.4,89.2c0,0,0.7-18.4,3.2-22.9c0,0-15.3-4.3-15.3-16.9s12.9-22.9,16.8-24.7S93,16.9,106.9,28
					c0,0,50.7-8.3,57.4,41.8c0,0-2.5,35.3,4.2,53.4s25.5,45.4,25.5,45.4s25,16.9,7.9,79.9l5.9,27.2c0,0-28.2,23.9-28.7,22.9
					s-18.6-32-18.6-32l-19.1,56.9l-80-1.5L49,305.1l2-13.9c0,0-48.3-8.1-10.6-52.9c0,0,16.3-13.4,18.3-25.2c0,0-7.9-28.7,36.1-31
					c0,0,7.7-4.8-5.2-34.8c0,0-22-1.3-27.5,0s-5.7-10.6-5.7-10.6l1.7-5.5l-2.7-2.5l0.5-3l-1.2-0.3l-3-4.3l3-3.5l-7.4-5l0.2-2.8
					L56.4,89.2z"/>
				<g>
					<g>
						<defs>
							<path id="SVGID_1_" d="M56.4,88.8c0,0,0.7-18.4,3.2-22.9c0,0-15.3-4.3-15.3-16.9s12.9-22.9,16.8-24.7
								c4-1.8,31.9-7.8,45.8,3.3c0,0,50.7-8.3,57.4,41.8c0,0-2.5,35.3,4.2,53.4s25.5,45.4,25.5,45.4s25,16.9,7.9,79.9l5.9,27.2
								c0,0-28.2,23.9-28.7,22.9s-18.6-32-18.6-32l-19.1,56.9l-80-1.5L49,304.7l2-13.9c0,0-48.3-8.1-10.6-52.9
								c0,0,16.3-13.4,18.3-25.2c0,0-7.9-28.7,36.1-31c0,0,7.7-4.8-5.2-34.8c0,0-22-1.3-27.5,0s-5.7-10.6-5.7-10.6l1.7-5.5l-2.7-2.5
								l0.5-3l-3.2,0.7l-1-5.3l3-3.5l-7.4-5l0.2-2.8L56.4,88.8z"/>
						</defs>
						<clipPath id="SVGID_2_">
							<use xlink:href="#SVGID_1_"  style="overflow:visible;"/>
						</clipPath>
						<path class="st3" d="M66.1,94.6l-1.2-2.8l-3.5-1l-2.7-3.5l3.7,1.5l1.7-1.3c0,0,1.2-18.1,3.5-20.4c2.2-2.3,10.6-33,18.6-11.8
							s-7.2,28,14.9,41.6c0,0,4.5,0,8.2-6.6s8.4-7.6,8.4-7.6l2.2,0.8c0,0,6.2,10.8,1.5,20.7c0,0-1,16.9-9.4,25.2
							s-17.3,24.7-1.2,49.6s-8.9,40.8-8.9,40.8s11.4-2,14.1-10.6c0,0-4,23.7,5.2,28c0,0-4.7-17.6,8.2-37.8c0,0,8.7-21.9,4,6
							c0,0,4.7-12.5,15.8-21.8L167,187c0,0,19.6,26,24.8,51.9c5.2,26,16.1,44.9,16.1,44.9L147,330l-76.2-1L54,304.3l7.2-16.9
							c0,0-51-9.3-12.1-52.7l3.2-8.3c0,0-0.2-30.5,10.3-38.5c10.3-7.8,20.1-8,20.1-8l5.8-19.6l-24-17.1l-3-7.3l1.7-10.1l-4.5-10.1
							l1.7-16.4L66.1,94.6z"/>
					</g>
					<path class="st4" d="M123.2,211.6l16.6,5.8c0,0,18.1-27.2,34.7-22.2c0,0,14.4,18.6,17.1,27c2.7,8.3,6.7,21.9,6.7,21.9l9.7,31.2
						l50.7-54.4c0,0-41.3-76.1-95.6-52.9C163.1,168,130.2,178.8,123.2,211.6z"/>
					<g>
						<path class="st5" d="M72.5,246.8c2.6-0.3,5.3-0.3,8.1,0c0.7,0.9,1.3,2.1,1.5,3.4l0.3,1.8L72,253.5l-0.3-1.8
							C71.3,249.9,71.7,248.1,72.5,246.8z"/>
						<path class="st5" d="M86.2,243.2c-1.7-0.2-3.5-0.3-5.2-0.2c-1.7-1.4-3.8-2.1-5.9-1.9c-2.1,0.3-3.9,1.6-5,3.4
							c-2.9,0.9-5.2,2.2-6.9,3.8c-1.1,1.1-1.9,2.3-2.4,3.7c1-1.2,2.2-2.2,3.7-3c1.3-0.7,2.8-1.2,4.4-1.6c-0.3,1.5-0.4,3.1-0.1,4.8
							l0.3,1.8l-2.3,0.3c-0.8,0.1-1.3,1-1.1,2l2.3,13.1c0.2,1.4,0.7,2.6,1.2,3.8c-0.1,0-0.1-0.1-0.2-0.1c-2.6-1.3-5.2-3.1-7.4-5
							c-4.1-3.8-6.7-8.2-7.4-12.3c-0.6-4,0.7-7.7,3.6-10.5c1.5-1.4,3.3-2.5,5.5-3.4c2-0.8,4.4-1.5,7-1.9c4.9-0.9,10.3-0.8,15.6,0
							c5.2,0.8,10.3,2.4,14.8,4.7s8.3,5.2,10.9,8.5v0.1h-0.1c-3.6-2.9-7.6-5.3-11.9-6.9C95.6,244.8,90.9,243.7,86.2,243.2z"/>
						<path class="st5" d="M80.7,266.5l0.3,1.6c0.1,0.4-0.1,0.8-0.5,0.9s-0.7-0.2-0.8-0.7l-0.3-1.6c0-0.2-0.2-0.5-0.3-0.6
							c-0.3-0.3-0.5-0.6-0.6-1.1c-0.2-0.9,0.3-1.7,1-1.8c0.7-0.1,1.4,0.5,1.6,1.4c0.1,0.4,0,0.9-0.2,1.2
							C80.7,266,80.6,266.3,80.7,266.5z"/>
						<path class="st5" d="M100.6,285.8c2.7-2.4,4.5-5.4,5.3-8.7c0.7-3.3,0.3-6.8-1-10.1c-1.4-3.5-3.6-6.6-6.7-9.1
							c-2.5-2.1-5.6-3.9-9-5.2l0,0c-0.2-0.9-0.9-1.6-1.7-1.5l-2.3,0.3l0,0l-0.3-1.7c-0.2-0.8-0.4-1.6-0.7-2.4
							c1.1,0.2,2.3,0.5,3.4,0.8c5.4,1.4,10.5,4,14.4,7.3c2,1.6,3.7,3.4,5,5.4c1.3,1.8,2.3,3.8,3,5.9c1.4,4.1,1.5,8.1,0.3,11.8
							c-1.2,3.7-3.7,6.9-7.4,9.2c-2.1,1.3-4.5,2.3-7.1,2.9c-2.1,0.5-4.3,0.8-6.6,0.8c0,0-0.1,0-0.1-0.1s0-0.1,0.1-0.1
							C94,290.1,97.9,288.2,100.6,285.8z"/>
						<path class="st5" d="M37.8,260L37.8,260c2.6,4,6,7.8,10.1,10.9l0,0c4.1,3.2,9,5.9,14.2,7.9c5.1,1.9,10.3,2.9,15.1,3
							c5,0.1,9.1-0.8,12.2-2.6c2.8-1.6,4.7-3.9,5.7-6.5c-0.3,0.3-0.7,0.7-1.1,1c-0.8,1.1-1.8,2-2.9,2.8c-1.8,1.2-4,2.1-6.7,2.6
							c-5.1,0.9-11.3,0.3-17.4-1.6c-6-2-11.7-5.3-16.1-9.3c-2.2-2-4-4.1-5.3-6.2c-1.3-2-2.2-4.2-2.7-6.3c-1-4.1-0.4-7.8,1.7-10.8
							c2-2.9,5.3-5.3,9.6-6.8s9.1-2.1,14.1-1.9l0.1,0.1c0,0.1,0,0.1-0.1,0.1c-4.9,0.6-8.9,1.8-12.1,3.5c-3.3,1.7-5.7,4.1-7.1,6.9
							c-1.3,2.8-1.4,6.1-0.4,9.4c1.1,3.6,3.3,7,6.7,10c3.4,3.1,7.9,5.7,12.7,7.4c0.6,0.2,1.2,0.4,1.8,0.6c2.2,3.7,5.8,5.8,9.5,5
							l4.8-1c5-1.1,8.3-6.9,7.2-13.1l-2.1-11.6c1.2,0.7,2.4,1.4,3.5,2.3c2.1,1.5,3.8,3.3,5.2,5.4c2.6,3.9,3.7,8.1,3,12.1
							s-3.2,7.4-7.1,9.8c-2,1.2-4.3,2.1-6.9,2.6c-2.5,0.5-5.3,0.7-8.3,0.6c-5.8-0.3-12-1.7-17.7-4.2s-10.9-5.9-15.2-9.8
							c-4.1-4-6.9-8.1-8-12C37.8,260,37.8,260,37.8,260z"/>
						<path class="st5" d="M86.6,254.8L69,257.7l2,11.3c0.8,4.5,4.3,7.5,7.8,6.8l4.8-1c3.5-0.7,5.8-4.8,5-9.1L86.6,254.8z
							 M82.4,264.3c0.1,0.8,0,1.6-0.3,2.3l0.2,1.2c0.3,1.4-0.5,2.7-1.6,3c-1.1,0.2-2.3-0.8-2.5-2.2l-0.2-1.2c-0.5-0.5-0.9-1.3-1-2.1
							c-0.3-1.9,0.6-3.6,2.1-3.9C80.6,261.2,82.1,262.5,82.4,264.3z"/>
					</g>
				</g>
			</g>
		</g>
	</g>
</g>
</svg>
