<?xml version="1.0" encoding="utf-8"?>
<!-- Generator: Adobe Illustrator 19.2.1, SVG Export Plug-In . SVG Version: 6.00 Build 0)  -->
<svg version="1.1" id="Layer_1" xmlns="http://www.w3.org/2000/svg" xmlns:xlink="http://www.w3.org/1999/xlink" x="0px" y="0px"
	 width="200px" height="280px" viewBox="0 0 200 280" style="enable-background:new 0 0 200 280;" xml:space="preserve">
<style type="text/css">
	.st0{fill:url(#SVGID_1_);}
	.st1{fill:#003D51;}
	.st2{clip-path:url(#SVGID_4_);}
	.st3{opacity:0.2;clip-path:url(#SVGID_5_);fill:#231F20;enable-background:new    ;}
	.st4{clip-path:url(#SVGID_5_);}
	.st5{fill:#00955F;}
</style>
<g>
	
		<linearGradient id="SVGID_1_" gradientUnits="userSpaceOnUse" x1="99.95" y1="289.3797" x2="99.95" y2="-5" gradientTransform="matrix(1 0 0 -1 0 282)">
		<stop  offset="0" style="stop-color:#00965E"/>
		<stop  offset="1" style="stop-color:#84BD00"/>
	</linearGradient>
	<path class="st0" d="M200.8,287H-0.9c-2.3,0-4.1-1.9-4.1-4.1V-3.3c0-2.3,1.9-4.1,4.1-4.1h201.8c2.3,0,4.1,1.9,4.1,4.1v286
		C204.9,285.1,203.1,287,200.8,287z"/>
	<g>
		<g>
			<g>
				<path class="st1" d="M12.3,62.5l19.2,14.6l22.5,2L66,80l-8.3,19.7l2.2,6.6l-4.6,3.1l-9.8,19.5l4.8,4.9h4.1c0,0-2.6,4.9,0.7,7.1
					l1.7,5.8c0,0-1.7,4.2-2.4,4.2s0.4,4.2,0.4,4.2s-9.2,3.1-8.5,7.3l-8.1-0.9l8.3,6.9l-7.6,2c0,0,16.1,8.9,23.1,6.4
					s13.3-7.3,13.3-7.3l-5.2,7.7l10.9-7.5l1.7,7.1l-0.4,9.5l1.5,2l-18.3,11.9c0,0,1.7,19-0.2,24.1c-2,5.1,2.6,6.4,2.6,6.4l-10,22.8
					l2.6,12.8l-2.2,14.2l189.8-0.7c0,0-38.4-85.9-48-89.8c-9.6-4-9.6-4-9.6-4l-0.2-4c0,0-27.5-19-26.4-27s-19,0-19,0l-0.7-4.4
					c0,0,10.7-2,15.9-6.2s7.6-10.6,7.6-10.6s-5.9,1.8-7.8-0.7c0,0,9.4-2.2,10.9-7.3c0,0-7.6,2.2-4.1-8s4.8-31-2.2-36.3l8.7-0.2
					c0,0,1.5-30.3,4.6-35.6c0,0-3.5-5.3-8.5-6c0,0,1.1-11.7-0.4-11.9s-30.3-9.3-30.3-9.3s-32.9,17.7-55.4,13.3l-6.5,7.3
					c0,0-10.7,14.6-8.9,17.3l-43.6,7.7L12.3,62.5z"/>
				<g>
					<g>
						<defs>
							<path id="SVGID_2_" d="M12.3,62.8l19.2,14.6l22.5,2l12,0.9L57.7,100l2.2,6.6l-4.6,3.1l-9.8,19.5l4.8,4.9h4.1
								c0,0-2.6,4.9,0.7,7.1l1.7,5.8c0,0-1.7,4.2-2.4,4.2s0.4,4.2,0.4,4.2s-9.2,3.1-8.5,7.3l-8.1-0.9l8.3,6.9l-7.6,2
								c0,0,16.1,8.9,23.1,6.4s13.3-7.3,13.3-7.3l-5.2,7.7L81,170l1.7,7.1l-0.4,9.5l1.5,2l-18.3,11.9c0,0,1.7,19-0.2,24.1
								c-2,5.1,2.6,6.4,2.6,6.4l-10,22.8l2.6,12.8l-2.2,13.2l189.8-0.7c0,0-38.4-84.9-48-88.8c-9.6-4-9.6-4-9.6-4l-0.2-4
								c0,0-27.5-19-26.4-27s-19,0-19,0l-0.7-4.4c0,0,10.7-2,15.9-6.2s7.6-10.6,7.6-10.6s-5.9,1.8-7.8-0.7c0,0,9.4-2.2,10.9-7.3
								c0,0-7.6,2.2-4.1-8s4.8-31-2.2-36.3l8.7-0.2c0,0,1.5-30.3,4.6-35.6c0,0-3.5-5.3-8.5-6c0,0,1.1-11.7-0.4-11.9
								s-30.3-9.3-30.3-9.3S105.8,36.4,83.3,32l-6.5,7.3c0,0-10.7,14.6-8.9,17.3l-43.6,7.7L12.3,62.8z"/>
						</defs>
						<defs>
							<path id="SVGID_3_" d="M12.3,62.8l19.2,14.6l22.5,2l12,0.9L57.7,100l2.2,6.6l-4.6,3.1l-9.8,19.5l4.8,4.9h4.1
								c0,0-2.6,4.9,0.7,7.1l1.7,5.8c0,0-1.7,4.2-2.4,4.2s0.4,4.2,0.4,4.2s-9.2,3.1-8.5,7.3l-8.1-0.9l8.3,6.9l-7.6,2
								c0,0,16.1,8.9,23.1,6.4s13.3-7.3,13.3-7.3l-5.2,7.7L81,170l1.7,7.1l-0.4,9.5l1.5,2l-18.3,11.9c0,0,1.7,19-0.2,24.1
								c-2,5.1,2.6,6.4,2.6,6.4l-10,22.8l2.6,12.8l-2.2,14.2l189.8-0.7c0,0-38.4-85.9-48-89.8c-9.6-4-9.6-4-9.6-4l-0.2-4
								c0,0-27.5-19-26.4-27s-19,0-19,0l-0.7-4.4c0,0,10.7-2,15.9-6.2s7.6-10.6,7.6-10.6s-5.9,1.8-7.8-0.7c0,0,9.4-2.2,10.9-7.3
								c0,0-7.6,2.2-4.1-8s4.8-31-2.2-36.3l8.7-0.2c0,0,1.5-30.3,4.6-35.6c0,0-3.5-5.3-8.5-6c0,0,1.1-11.7-0.4-11.9
								s-30.3-9.3-30.3-9.3S105.8,36.4,83.3,32l-6.5,7.3c0,0-10.7,14.6-8.9,17.3l-43.6,7.7L12.3,62.8z"/>
						</defs>
						<clipPath id="SVGID_4_">
							<use xlink:href="#SVGID_2_"  style="overflow:visible;"/>
						</clipPath>
						<clipPath id="SVGID_5_" class="st2">
							<use xlink:href="#SVGID_3_"  style="overflow:visible;"/>
						</clipPath>
						<path class="st3" d="M74.8,78.7c0,0-12.6,9.3-7.6,24.1l4.1-1.5l7.6,3.3l-12.6,3.1l0.7,4l-3.3,3.1l-5.2,5.3l6.3,5.5l-4.1,6.6
							h-3.5c0,0-0.9,6.6,1.5,8c2.4,1.3,6.1,3.8,6.1,3.8l-5.2,2.7L58.5,158l-5.9,6.6l4.8,2.7l-3.3,4.2c0,0,20.7-3.3,26.8-11.3
							l-1.7,7.5c0,0,9.4,2.4,19.6-3.1l3.1,11.1l-12.4,6.2v15l-12,6.9L76,227.3c0,0,3.9,13.5,2.4,13.5s-10.9,31.4-10.9,31.4L67,288
							l171.8-5.5l-53-88.7l-0.7-9.5c0,0-20.1-13.1-24-18.6s-5.9-8.2-5.9-8.2l-15.3,2.9l1.3-9.7l-16.1-17.5l12.4-16.4
							c0,0-1.3-14.6-5.7-16.2c0,0,18.3-1.3,20.1-11.5c1.7-10.2-0.7-11.5-0.7-11.5l-22-3.3l-38.6,4.9L74.8,78.7z"/>
						<g class="st4">
							<g>
								<path class="st5" d="M73,274.3c-0.3,0.2-0.4,0.7-0.3,1c0.2,0.3,0.5,0.5,0.9,0.5h0.1c0.2,0,5.5-1.7,8.2-3.8
									c1.4,0.3,2.9,0.4,4.4,0.4c9.6-0.1,17-5.7,16.5-12.4c-0.5-6.7-8.6-12.5-18-12.9c-9.5-0.4-16.9,5.1-16.5,12.4
									c0.2,4.1,2.9,8,7.3,10.4C75.2,271.6,73.7,273.8,73,274.3z"/>
								<path class="st5" d="M70.1,241.3c5.7-0.8,11.5-0.8,16.7-0.2c5.7,0.6,10.3,1.8,13.6,3.6c1.7,0.9,3.1,1.9,4.1,3.1
									c-1.6-1-3.4-1.8-5.6-2.4c-2.6-0.8-5.7-1.3-9.2-1.5c-1.1-0.1-2.3-0.1-3.5-0.1c4.8,0.5,9.5,2.2,13.1,4.9
									c4.3,3.1,6.9,7.1,7.2,11.3c0.1,1.1,0,2.2-0.3,3.3c0.5-0.4,1-0.9,1.5-1.3c4.1-3.8,6.1-7.8,5.8-11.4c-0.4-3.5-3.1-6.6-7.7-8.9
									c-2.3-1.2-4.9-2.1-7.8-2.8c-2.8-0.7-5.9-1.2-9.3-1.5c-6.4-0.6-13.2-0.4-19.5,0.7c-6.3,1.1-12.3,3.1-17.3,6
									c-5.1,3-9.1,6.7-11.5,10.7c0,0.1,0,0.1,0,0.2c0,0,0.1,0,0.2,0c3.8-3.8,8.2-6.9,13.2-9.1C58.7,243.7,64.3,242.1,70.1,241.3z"
									/>
								<path class="st5" d="M79.5,289c-6.3,0.4-11.9-0.3-16-1.9s-7.3-4.2-9.1-7.5s-2.3-7.1-1.4-10.9c0.8-4,2.8-7.7,6.1-10.9
									c2-1.9,4.5-3.7,7.3-5.2c1-1.8,2.4-3.5,4.3-4.9c1.5-1.1,3.2-2,5.1-2.6c-2,0.4-4,0.9-5.9,1.5c-6.4,2-12.1,5.3-16.2,9.3
									c-2.1,2.1-3.8,4.3-5,6.6c-1.2,2.2-1.9,4.6-2.3,7c-0.8,4.8,0.2,9.2,2.8,12.8c2.5,3.6,6.6,6.1,12,7.4c3,0.7,6.4,0.9,9.9,0.7
									c2.8-0.1,5.7-0.5,8.6-1.2c0.1,0,0.1-0.1,0.1-0.1C79.6,289,79.5,289,79.5,289z"/>
								<path class="st5" d="M135.8,252.7c-0.1,0-0.1,0-0.1,0c-1.9,3.4-5.2,6.7-9.5,9.8l0,0c-4.3,3.2-9.7,6.2-15.7,8.8
									c-5.9,2.6-12.1,4.5-18,5.7c4.2-1.3,8.6-3,12.7-4.9c7-3,13.1-6.9,17.4-10.9c2.1-2,3.2-3.9,4.2-5.8c0.8-1.5,1.1-3,1.1-4.4
									c0.1-0.5,0.1-1,0.1-1.4c0-3.3-1.8-6.4-5.4-8.8c-3.3-2.4-8.2-4.4-14-5.6c-5.8-1.3-12.1-1.8-18.3-1.5c-0.1,0-0.1,0-0.1,0.1
									s0.1,0.1,0.1,0.1c6.3,0.5,11.7,1.5,16.2,3c4.6,1.4,8.4,3.4,10.9,5.8c2.5,2.3,3.6,5,3.3,7.9c-0.3,3.1-2.2,6.1-5.5,9
									c-2.6,2.3-6.1,4.6-10.1,6.6c-1,1.9-2.5,3.6-4.5,5.1c-3.8,2.8-8.9,4.5-14.3,4.6c-1.2,0-2.3,0-3.5-0.1
									c-3.3,2.1-7.9,3.5-8.6,3.6c-0.2,0-0.5,0.1-0.7,0.1c-1.9,0.1-3.6-1-4.4-2.6c-0.9-1.8-0.4-3.9,1.2-5.2
									c0.1-0.1,0.3-0.3,0.5-0.6c-3.8-3-6.2-7.2-6.4-11.6c-0.1-1.7,0.1-3.3,0.6-4.8c-0.1,0.1-0.1,0.1-0.2,0.2
									c-2.2,1.9-3.9,4-5.1,6.3c-2.3,4.5-2.5,9.2-0.5,13.1c1.9,3.9,6.1,6.8,11.7,8.1c2.9,0.6,6.1,0.8,9.6,0.7
									c3.3-0.2,6.9-0.7,10.7-1.6c7.4-1.7,14.8-4.3,21.4-7.7c6.5-3.1,12.2-6.8,16.4-10.6c4.1-3.7,6.3-7.2,6.6-10.3
									C135.9,252.8,135.9,252.7,135.8,252.7z M66.8,272.4c0.2,0.1,0.3,0.2,0.5,0.3c0,0.2,0,0.3,0.1,0.5
									C67.2,272.9,67,272.7,66.8,272.4z"/>
							</g>
						</g>
					</g>
				</g>
			</g>
		</g>
	</g>
</g>
</svg>
