<svg id="Layer_4" data-name="Layer 4" xmlns="http://www.w3.org/2000/svg" xmlns:xlink="http://www.w3.org/1999/xlink" width="800.96" height="950.89" viewBox="0 0 800.96 950.89"><defs><style>.cls-1{fill:none;}.cls-2{fill:#00a3e0;}.cls-3{fill:#003d51;}.cls-4{clip-path:url(#clip-path);}.cls-5{fill:#231f20;opacity:0.2;}.cls-6{fill:#9957a3;}</style><clipPath id="clip-path"><path class="cls-1" d="M655.5,189.49L652.88,179,645,176.35,638,165l-14.89,4.38-15.76,6.13-2.63,12.26s-14,6.13-3.5,22.77l0.88,6.13s7.88,7.88,11.38,1.75c0,0,8.76,7.88,12.26,6.13l-3.5,14.89-63,2.63S497,226.27,476,250.79c0,0-16.64,9.63-23.64-8.76,0,0-10.51-23.64-6.13-36.78s42-49.91,58.67-26.27-16.64,23.64-16.64,23.64,39.41,12.26,37.65-15.76c0,0,57.8,20.14,68.3-10.51V165.84s98.08-20.14,86.69-67.43c0,0-11.38,30.65-32.4,34.15,0,0,36.78-34.15,12.26-56-14.24-12.72-47.39-23.36-72.68-30.05,10.48,4.76,17.1,12.27,7,23.93C572.31,96.67,522.4,89.66,522.4,89.66S570.56,57.26,532.91,45c0,0,14.89,32.4-44.66,42s-68.3,2.63-68.3,2.63S288.59,76.52,342.88,142.2c0,0-14,28,6.13,46.41,0,0-5.25,28,13.14,44.66,0,0,7,25.39,21.89,20.14l14.89-5.25s5.25,9.63.88,16.64-11.38,14-24.52,19.27-10.51,0-10.51,0-30.65-6.13-53.42,30.65l-14,21-48.16,38.53s-46.41,1.75-68.3,28.9l-63,35-25.39-7-7.88,2.63-23.64-5.25-4.38,1.75-14-2.63-12.26-3.5-14.89-1.75s5.25,11.38,11.38,12.26a22.25,22.25,0,0,0,10.51-.88L11,446.06s6.13,3.5,18.39-.88A46.49,46.49,0,0,1,53,443.44L33.77,458.32,18.88,468l6.13,3.5,32.4-15.76,3.5,6.13L53,477.59,41.65,495.1l23.64-4.38,14-8.76,18.39-.88,24.52-10.51L135.35,461l123.47-43.78,67.43-42.91L348.14,355l18.39,24.52s-2.63,27.15,1.75,35L356,439.06s-53.42,14-57.8,21c0,0-63,22.77-57.8,65.68s10.51,39.41,10.51,39.41S229,580.92,206.28,622.08s-14.89,153.24-14.89,153.24-46.41,13.14-64.8,85.82S67,956.59,67,956.59L92.44,1003l35-35,15.76-40.28,38.53-56s60.42-43.78,63-63.93l22.77-18.39L279,783.2l5.25-15.76S388.42,728,431.33,565.16l4.38-30.65s46.41-61.3,46.41-72.68c0,0,25.39-50.79,28-81.44,0,0,24.52-25.39,0-59.55l1.75-21.89,14.89-6.13s78.81-2.63,99.83-14.89l32.4-7.88,16.64-18.39L666,214.88ZM59.16,480.65l7.44-10.51,3.5,3.94Z"/></clipPath></defs><title>hero3</title><path class="cls-2" d="M338.8,336.9l5.84,47.29s-25.69,28.61,7.59,63.63S462,554.07,529.7,560.49l28-7.59s2.92-26.85-4.09-31.52,1.17-7,1.17-7v-28l-18.1-13.43s-46.05,45.43-47.29,4.67c-0.58-19.27,11.68-11.09,13.43-11.09s44.37-30.36,44.37-30.36L633,423.3l19.85-18.68s52,54.88,87-15.76,1.75-90.49,1.75-90.49l1.17-19.27s-63.63-30.94-34.44-115.59l48.45-9.92,39.7-39.7s-78.81,20.43-88.15,34.44-95.74,101-95.74,101L487.08,277.93Z"/><path class="cls-3" d="M655.5,189.49L652.88,179,645,176.35,638,165l-14.89,4.38-15.76,6.13-2.63,12.26s-14,6.13-3.5,22.77l0.88,6.13s7.88,7.88,11.38,1.75c0,0,8.76,7.88,12.26,6.13l-3.5,14.89-63,2.63S497,226.27,476,250.79c0,0-16.64,9.63-23.64-8.76,0,0-10.51-23.64-6.13-36.78s42-49.91,58.67-26.27-16.64,23.64-16.64,23.64,39.41,12.26,37.65-15.76c0,0,57.8,20.14,68.3-10.51V165.84s98.08-20.14,86.69-67.43c0,0-11.38,30.65-32.4,34.15,0,0,36.78-34.15,12.26-56-14.24-12.72-47.39-23.36-72.68-30.05,10.48,4.76,17.1,12.27,7,23.93C572.31,96.67,522.4,89.66,522.4,89.66S570.56,57.26,532.91,45c0,0,14.89,32.4-44.66,42s-68.3,2.63-68.3,2.63S288.59,76.52,342.88,142.2c0,0-14,28,6.13,46.41,0,0-5.25,28,13.14,44.66,0,0,7,25.39,21.89,20.14l14.89-5.25s5.25,9.63.88,16.64-11.38,14-24.52,19.27-10.51,0-10.51,0-30.65-6.13-53.42,30.65l-14,21-48.16,38.53s-46.41,1.75-68.3,28.9l-63,35-25.39-7-7.88,2.63-23.64-5.25-4.38,1.75-14-2.63-12.26-3.5-14.89-1.75s5.25,11.38,11.38,12.26a22.25,22.25,0,0,0,10.51-.88L11,446.06s6.13,3.5,18.39-.88A46.49,46.49,0,0,1,53,443.44L33.77,458.32,18.88,468l6.13,3.5,32.4-15.76,3.5,6.13L53,477.59,41.65,495.1l23.64-4.38,14-8.76,18.39-.88,24.52-10.51L135.35,461l123.47-43.78,67.43-42.91L348.14,355l18.39,24.52s-2.63,27.15,1.75,35L356,439.06s-53.42,14-57.8,21c0,0-63,22.77-57.8,65.68s10.51,39.41,10.51,39.41S229,580.92,206.28,622.08s-14.89,153.24-14.89,153.24-46.41,13.14-64.8,85.82S67,956.59,67,956.59L92.44,1003l35-35,15.76-40.28,38.53-56s60.42-43.78,63-63.93l22.77-18.39L279,783.2l5.25-15.76S388.42,728,431.33,565.16l4.38-30.65s46.41-61.3,46.41-72.68c0,0,25.39-50.79,28-81.44,0,0,24.52-25.39,0-59.55l1.75-21.89,14.89-6.13s78.81-2.63,99.83-14.89l32.4-7.88,16.64-18.39L666,214.88ZM59.16,480.65l7.44-10.51,3.5,3.94Z"/><path class="cls-2" d="M372.66,298.37l24.52-12.26-5.25-9.92s-29.77-13.43-37.95,7C354,283.19,370.32,291.94,372.66,298.37Z"/><path class="cls-2" d="M466.06,269.76l20.43-2.92s7-29.19,16.93-29.19-25.1-6.42-40.28,16.35C463.15,254,462,263.34,466.06,269.76Z"/><g class="cls-4"><path class="cls-5" d="M338.51,175.91s2.19-11.38,11.82-6.13,3.06,17.51,3.06,17.51l-5.25,10.07L356.9,207l-0.44,12.7,6.13,18-30.21-32.4Z"/><path class="cls-5" d="M359.52,247.28s20.58,7.44,34.59-8.76,11.82-58.67,11.82-58.67,2.63-30.21,15.32-31.52,24.08-22.77,39.41-6.57,41.6-6.57,56.48-1.31S596.83,147,596.83,147s66.55-4.38,80.56-17.08-76.18,44.22-76.18,44.22l-35,35.47L454.1,210.94,431.33,264.8s-6.13,32-45.54,7.44S359.52,247.28,359.52,247.28Z"/><path class="cls-5" d="M373.1,174.16s1.31-11.38,17.08-9.19c0,0-16.2-6.13-18-.88l-10.33,1,7.83,4.17S371.34,174.16,373.1,174.16Z"/><path class="cls-5" d="M515.83,320.4l-3.94-29.34s4.82-25.39,30.65-25S620.91,260,620.91,260s2.19-10.07,3.5-9.63,10.51,8.76,10.51,8.76,0-26.71,2.63-29.34-22.33-6.13-22.33-6.13l-5.69-16.2-1.31-14,10.07-12.26,14.89-2.63L627,186l-13.57,7s-2.63,6.57-.88,10.95,13.14-5.25,13.14-5.25L638.87,193,616.1,210.07s6.13,6.13,8.76,5.25,19.7-7,19.7-7S631,223.64,632.74,223.64s16.2-3.5,16.2-3.5l8.76-11.82-8.76-7.88L659,193l-14.89-3.94,16.64-12.26L691.85,253s-43.78,45.1-46.85,45.1S515.83,320.4,515.83,320.4Z"/><path class="cls-5" d="M524.59,341.42s-11.38-3.06-28.9,24.52c0,0-21,13.57-26.27,12.26s-25.83-29.34-25.83-29.34S441,367.69,434,368.13s-47.72-3.06-51.23,6.13-21.45-14-12.26-24.08-2.63-5.25-2.63-5.25l0.88-11.82L360,327.85,320.12,342.3,328,348s-60.42,51.67-77.94,51.23c0,0,3.94-10.95-.44-13.14S236.93,408,236.93,408l-55.61,21.89-67,36.78L83.68,490.72,363,383s26.27,29.34,41.6,26.27,39.84-31.09,39.84-31.09,26.71-4.38,38.09,10.07,5.69,24.52,5.69,24.52l9.63,2.19-26.27,24.08-14.89-8.76s-18.83,21-19.27,17.51,14-48.16,14-48.16-34.59,40.28-74,40.28c0,0,38.09,9.19,46.85,4.38s-20.14,42-20.14,42l-10.07,21L367,496.42l-15.76-.88S363,469.71,328,480.65L352.08,503s35,39,31.09,64.36c0,0,6.57,28.9-19.27,47.29l-17.51,7s-20.14,9.63-27.15,9.19-50.79,44.22-50.79,44.22-30.21,39-36.34,53.42-10.07,33.28-28,43.78l-12.26,22.33s-27.58,28-32,41.16S97.26,953.09,95.5,953.09s-14.89,51.23-14.89,51.23l89.76-7,74.87-137L518.9,531l10.95-139.23Z"/><path class="cls-5" d="M244.81,566.47s40.28-14,55.61-7c0,0-63.49-28-61.3-64.36l-26.27,67.43Z"/><polygon class="cls-5" points="22.89 436.39 44.39 434.39 79.39 450.39 79.89 465.39 70.11 474.09 35.89 494.39 3.39 475.39 7.39 439.39 22.89 436.39"/></g><path class="cls-6" d="M432.29,321.29a45,45,0,0,1,9.56,0,8.8,8.8,0,0,1,1.77,3.92l0.37,2-12.29,1.87-0.38-2.08A8.19,8.19,0,0,1,432.29,321.29Z"/><path class="cls-6" d="M448.48,317.13a58.62,58.62,0,0,0-6.13-.28,9.28,9.28,0,0,0-7-2.17,8.19,8.19,0,0,0-5.94,4,19.46,19.46,0,0,0-8.18,4.45,11.49,11.49,0,0,0-2.89,4.29,14.63,14.63,0,0,1,4.44-3.5,21.68,21.68,0,0,1,5.26-1.91,13.75,13.75,0,0,0-.11,5.58l0.38,2.1-2.68.41a1.86,1.86,0,0,0-1.29,2.32l2.78,15.29a16.82,16.82,0,0,0,1.44,4.4l-0.23-.11a39.45,39.45,0,0,1-8.74-5.87c-4.86-4.4-8-9.5-8.79-14.32a13.29,13.29,0,0,1,4.32-12.23,21.51,21.51,0,0,1,6.47-3.93,38.56,38.56,0,0,1,8.24-2.18,57,57,0,0,1,18.49.05A58.09,58.09,0,0,1,465.94,319a38.85,38.85,0,0,1,12.89,9.89,0.13,0.13,0,0,1,0,.16,0.1,0.1,0,0,1-.14,0A52,52,0,0,0,464.58,321,59.58,59.58,0,0,0,448.48,317.13Z"/><path class="cls-6" d="M442,344.25l0.34,1.85a0.78,0.78,0,1,1-1.51.28l-0.34-1.85a1.18,1.18,0,0,0-.41-0.72,2.07,2.07,0,0,1-.74-1.26,1.73,1.73,0,0,1,1.18-2.12,1.75,1.75,0,0,1,1.86,1.58,2,2,0,0,1-.25,1.43A1.17,1.17,0,0,0,442,344.25Z"/><path class="cls-6" d="M465.59,366.76a18.76,18.76,0,0,0,6.26-10.19,20,20,0,0,0-1.17-11.74,25.35,25.35,0,0,0-8-10.65,38.65,38.65,0,0,0-10.65-6V328.1a1.93,1.93,0,0,0-2-1.72l-2.67.41h0l-0.37-2a13.77,13.77,0,0,0-.82-2.8c1.35,0.25,2.69.56,4,.92a46.31,46.31,0,0,1,17.1,8.45,32.59,32.59,0,0,1,6,6.23,27.37,27.37,0,0,1,3.59,6.87,19.83,19.83,0,0,1-8.47,24.46,29.57,29.57,0,0,1-8.38,3.36,36.26,36.26,0,0,1-7.77,1,0.12,0.12,0,0,1-.11-0.12,0.12,0.12,0,0,1,.09-0.14C457.73,371.73,462.37,369.58,465.59,366.76Z"/><path class="cls-6" d="M391.19,336.63a0.1,0.1,0,0,1,.14,0,49.48,49.48,0,0,0,11.9,12.74h0a65.82,65.82,0,0,0,16.83,9.19,58,58,0,0,0,17.86,3.48c6,0.08,10.84-.94,14.49-3a14.4,14.4,0,0,0,6.74-7.62,12.7,12.7,0,0,1-1.33,1.13,14.58,14.58,0,0,1-3.4,3.24,20.81,20.81,0,0,1-8,3c-6,1-13.35.38-20.57-1.9a54.83,54.83,0,0,1-19.11-10.81,36.9,36.9,0,0,1-6.3-7.28,25.22,25.22,0,0,1-3.2-7.33,15.22,15.22,0,0,1,2-12.63c2.32-3.42,6.25-6.16,11.36-7.91a44.54,44.54,0,0,1,16.75-2.18,0.14,0.14,0,0,1,.12.13,0.11,0.11,0,0,1-.09.14,40.23,40.23,0,0,0-14.37,4.12,18.41,18.41,0,0,0-8.39,8.06,15.17,15.17,0,0,0-.52,11,25.76,25.76,0,0,0,7.89,11.62,45.83,45.83,0,0,0,15,8.66q1,0.37,2.12.68c2.57,4.32,6.93,6.78,11.3,5.88l5.67-1.18c6-1.24,9.79-8.07,8.5-15.21l-2.45-13.53a35.49,35.49,0,0,1,4.2,2.65,26.38,26.38,0,0,1,6.13,6.24c3.11,4.49,4.35,9.46,3.52,14s-3.77,8.67-8.4,11.41a27.12,27.12,0,0,1-8.18,3,43.89,43.89,0,0,1-9.81.65,62,62,0,0,1-21-4.94,63.81,63.81,0,0,1-18-11.45c-4.9-4.62-8.2-9.46-9.53-14A0.15,0.15,0,0,1,391.19,336.63Z"/><path class="cls-6" d="M449,330.6l-21,3.34,2.39,13.14c0.95,5.19,5.1,8.74,9.27,7.9l5.68-1.14c4.17-.83,6.82-5.58,5.91-10.58Zm-5,11.1a4.51,4.51,0,0,1-.31,2.65l0.26,1.43a2.84,2.84,0,0,1-1.92,3.46,2.8,2.8,0,0,1-3-2.54l-0.26-1.44a4.59,4.59,0,0,1-1.23-2.4c-0.4-2.18.73-4.2,2.52-4.51S443.67,339.54,444.06,341.7Z"/></svg>