<?xml version="1.0" encoding="utf-8"?>
<!-- Generator: Adobe Illustrator 19.2.1, SVG Export Plug-In . SVG Version: 6.00 Build 0)  -->
<svg version="1.1" id="Layer_1" xmlns="http://www.w3.org/2000/svg" xmlns:xlink="http://www.w3.org/1999/xlink" x="0px" y="0px"
	 width="200px" height="280px" viewBox="0 0 200 280" style="enable-background:new 0 0 200 280;" xml:space="preserve">
<style type="text/css">
	.st0{fill:url(#SVGID_1_);}
	.st1{fill:#CB333B;}
	.st2{fill:#003D51;}
	.st3{opacity:0.2;fill:#231F20;enable-background:new    ;}
	.st4{clip-path:url(#SVGID_3_);}
	.st5{fill:#FFA300;}
</style>
<g>
	
		<linearGradient id="SVGID_1_" gradientUnits="userSpaceOnUse" x1="100" y1="-4.5" x2="100" y2="288.975" gradientTransform="matrix(1 0 0 -1 0 282)">
		<stop  offset="0" style="stop-color:#F4B847"/>
		<stop  offset="1" style="stop-color:#E35205"/>
	</linearGradient>
	<path class="st0" d="M200.8,286.5H-0.8c-2.3,0-4.2-1.9-4.2-4.2V-2.8C-5-5.1-3.1-7-0.8-7h201.6c2.3,0,4.2,1.9,4.2,4.2v285.2
		C205,284.7,203.1,286.5,200.8,286.5z"/>
	<g>
		<path class="st1" d="M83.9,203.5c0,0,7.2-21.4,25.6-32l3.3,16L83.9,203.5z"/>
		<path class="st2" d="M155.6,48.1l-24.7-23.9c0,0-50.9,9.3-62.6,12.7c-0.6,0.2-1.2,0.3-1.7,0.4c-1.7-2.6-2.3-6-2.3-6
			c-1.9,2.1-2.1,3.9-1.9,5.2c-4.1-2.9-1.7-12.4-1.7-12.4c-20.5,17.7,4.5,30.7,4.5,30.7L61,77.1l4.8,6.5l-8.7,20.8l9.6,5.6l3,8.1
			l-2.7,4l3,7.7l-7.5,12.1l8.9,12.4l7.6,4l18.7-7.4c8.4,5.6,9.6,35.3,9.6,35.3l-19,12.1c-30,12.6-52.7,70.7-52.7,70.7v11l163.5,1.9
			c1.6,0,2.9-1.3,2.9-3l-2-143C157.4,104.8,155.6,48.1,155.6,48.1z"/>
		<path class="st3" d="M102.3,36.6L91.5,65.1l3.3,9.3L86,71l-17.2,8.7l2.4,1.6l-6.3,17l7.2,2.2l6-14.3h17.2l-2.7,5l13.3,19.9l3,14.6
			l-20.1,29l35.1-16.3l5.7,11.2l-9.3,36.3h8.1l2.7,20.2c0,0,34.3-4.6,29.8,74l38,1.9c1.6,0,2.9-1.3,2.9-3c0-20.7-2-144.8-2-143.1
			c0,1.9-44.4-31.6-44.4-87.8l-24.7-23.9L68.3,36.9L102.3,36.6z"/>
		<path class="st1" d="M117.8,206h13.4c0,0,26.4-33.8,68.8-33.8v-26.7C200,145.5,147.7,152.3,117.8,206z"/>
		<g>
			<g>
				<defs>
					<path id="SVGID_2_" d="M35.6,269c0,0,22.8-58,52.9-70.4l19-12.1c0,0-1.2-29.7-9.6-35.3l-18.7,7.4l-7.6-4l-8.9-12.4l7.5-12.1
						l-3-7.7l2.7-4l-3-8.1l-9.6-5.6L66,83.9l-4.8-6.5l4.2-22.3c0,0-25-13-4.5-30.7c0,0-4.2,16.1,7.5,12.7S131,24.4,131,24.4
						l24.7,23.9c0,0,1.7,56.8,44.4,87.8l2,145.8L35.6,280V269z"/>
				</defs>
				<clipPath id="SVGID_3_">
					<use xlink:href="#SVGID_2_"  style="overflow:visible;"/>
				</clipPath>
				<g class="st4">
					<path class="st5" d="M76.6,262.5L61.1,250l-0.9,16.8l33.3,1.9c0.5-0.2,1.1-0.5,1.6-0.7l0.9-16.1l-16.7,10.7
						C78.5,263.1,77.3,263.1,76.6,262.5z"/>
					<polygon class="st5" points="78.1,258.6 92.2,249.6 65.1,248.1 					"/>
					<path class="st5" d="M120.3,238.5c2.5,2.9,3.5,6.2,2.6,9.7c-0.8,3.6-3.3,7.3-7.8,10.9c-4.1,3.3-9.6,6.2-15.7,8.5l-0.2,3.3
						c0,0.6-0.4,1.1-0.9,1.4c0.5-0.2,1.1-0.3,1.6-0.5c8.5-2.8,16.3-6.9,22-11.3c2.8-2.2,5-4.5,6.5-6.8s2.3-4.5,2.7-6.5
						c0.6-4.1-1.1-7.9-4.8-10.8c-3.6-3-9.1-5.2-15.5-6.6c-6.4-1.4-13.9-1.9-21.3-1.4c7,0.4,13.5,1.5,18.7,3.2
						C113.7,233.3,117.7,235.6,120.3,238.5z"/>
					<path class="st5" d="M64.7,236.9c6.8-0.8,13.5-0.9,19.7-0.2c6.3,0.6,11.7,2,15.5,4.2c2.2,1.2,3.8,2.7,4.8,4.4
						c-1.7-1.3-4-2.5-6.8-3.3c-3.1-1-6.7-1.6-10.6-1.8c-7.6-0.5-16,0.4-23.7,2.5c-1.4,0.4-2.8,0.8-4.2,1.3l39,2.2h0.1
						c0,0,0.1,0,0.2,0s0.1,0,0.2,0s0.1,0,0.2,0.1c0.1,0,0.1,0.1,0.2,0.1s0.1,0.1,0.2,0.1s0.1,0.1,0.2,0.1s0.1,0.1,0.2,0.1l0.1,0.1
						l0.1,0.1c0,0,0,0.1,0.1,0.1l0.1,0.1c0,0.1,0.1,0.1,0.1,0.2c0,0.1,0,0.1,0.1,0.2c0,0.1,0,0.1,0.1,0.2c0,0.1,0,0.1,0,0.2
						c0,0.1,0,0.1,0,0.2v0.1l-1,17.6c2.4-1.3,4.5-2.8,6.3-4.3c5.3-4.4,8.3-9.1,8.4-13.3s-2.6-7.9-7.5-10.6c-2.5-1.3-5.4-2.4-8.7-3.2
						c-3.4-0.8-6.9-1.3-10.7-1.6c-7.4-0.7-15.4-0.4-23.1,0.9c-7.6,1.2-14.9,3.4-21,6.3c-6.1,3-11.2,6.7-14.4,10.8
						c4.6-3.7,10.2-6.8,16.3-9.1C51.3,239.3,58,237.7,64.7,236.9z"/>
					<path class="st5" d="M127.2,263.2c-5.6,3.8-12.3,7.1-19.5,9.7S93,277.3,85.9,278c-7.2,0.8-13.6,0.5-18.8-1
						c-4.7-1.4-8.2-3.8-10.1-6.8c-0.7-0.3-1.2-1-1.2-1.8l0.9-16.3c-2.5,1.8-4.4,3.9-5.9,6c-3.1,4.7-3.8,9.5-2,13.8s6.2,7.7,12.5,9.7
						c3.2,0.9,6.8,1.5,10.8,1.7c4,0.1,8.2-0.1,12.4-0.7c8.6-1.2,17.5-3.6,25.5-6.9c8.1-3.3,15.1-7.4,20.4-11.7
						c5.2-4.3,8.5-8.7,9.4-12.6C137,255.4,132.8,259.5,127.2,263.2z"/>
					<path class="st5" d="M64.1,274c2.9,1.1,6.5,1.7,10.5,1.9c7,0.2,14.9-1,22.6-3.2c-0.1,0-0.1,0-0.2,0l-39.1-2.2
						c-0.2,0-0.4,0-0.6-0.1c0.6,0.4,1.3,0.7,2,1C60.6,272.4,62.2,273.3,64.1,274z"/>
					<path class="st5" d="M51.9,286.1c-4.7-2.2-8-5.4-9.7-8.9c-1.7-3.6-1.9-7.6-0.6-11.6c1.3-4,3.9-7.9,8.2-11.2
						c2-1.6,4.4-3.1,7-4.4l0.2-4.2v-0.1c0,0,0-0.1,0-0.2c0-0.1,0-0.1,0-0.2c0-0.1,0-0.1,0.1-0.2c0-0.1,0.1-0.1,0.1-0.2l0.1-0.1
						l0.1-0.1c-5.3,2-10,4.5-13.7,7.5c-2.6,2.1-4.8,4.3-6.4,6.6c-1.6,2.4-2.7,4.8-3.3,7.1c-1.3,4.8-0.7,9.5,1.9,13.4
						c2.5,4,7,7.1,12.9,9c5.9,1.8,13.3,2.4,21,1.6C62.8,289.6,56.6,288.3,51.9,286.1z"/>
				</g>
			</g>
		</g>
	</g>
</g>
</svg>
