<?xml version="1.0" encoding="utf-8"?>
<!-- Generator: Adobe Illustrator 19.2.1, SVG Export Plug-In . SVG Version: 6.00 Build 0)  -->
<svg version="1.1" id="Layer_1" xmlns="http://www.w3.org/2000/svg" xmlns:xlink="http://www.w3.org/1999/xlink" x="0px" y="0px"
	 width="200px" height="280px" viewBox="0 0 200 280" style="enable-background:new 0 0 200 280;" xml:space="preserve">
<style type="text/css">
	.st0{fill:url(#SVGID_1_);}
	.st1{fill:#003D51;}
	.st2{clip-path:url(#SVGID_4_);}
	.st3{opacity:0.2;clip-path:url(#SVGID_5_);fill:#231F20;enable-background:new    ;}
	.st4{clip-path:url(#SVGID_5_);}
	.st5{fill:#45C1CB;}
	.st6{opacity:0.2;fill:#231F20;enable-background:new    ;}
</style>
<g>
	
		<linearGradient id="SVGID_1_" gradientUnits="userSpaceOnUse" x1="100.2" y1="-4" x2="100.2" y2="289.5371" gradientTransform="matrix(1 0 0 -1 0 282)">
		<stop  offset="0" style="stop-color:#00A3E0"/>
		<stop  offset="1" style="stop-color:#2DCCD3"/>
	</linearGradient>
	<path class="st0" d="M201.1,286H-0.7c-2.3,0-4.1-1.9-4.1-4.1V-3.4c0-2.2,1.8-4.1,4.1-4.1h201.8c2.3,0,4.1,1.9,4.1,4.1v285.2
		C205.2,284.1,203.3,286,201.1,286z"/>
	<g>
		<g>
			<g>
				<g>
					<path class="st1" d="M55.7,55c0,0-20.3,7.4-26,34.5l-6.3,8.2l5.3,8.5l-0.6,7.6l1.5,4.3l-1.2,6l5.2,2.9c0,0,1.5,10.2,3.5,11.3
						l-2,5.9c0,0,3.7,5.9,0.8,10.2s-0.2,13.9,2.7,16.5s7.2,5.1,7.2,5.1l0.5-3.4l3.2,3.2l1.2-2.6c0,0,11.8,0.9,13.9-0.3l9.8,9.1
						c0,0,8.2,3.2,9.8,3.4c1.5,0.2,7.6,5.6,4.7,12.5l-11.1,12.4c0,0-20.3,20.7-20.8,35.1c0,0-11.1,26.9,7.6,39.6s25.2,15,25.2,15
						L247,282.2c0,0,0.6-110.8,0-111.4s-46.3-34.9-65.3-34c0,0-12.4-22.1-38.3-19.8l-6.9-10.8c0,0,19.2-51.8,10.1-80.1L110,53.6
						c0,0-16.8-5.9-26.3-4.3c0,0-3.4-23.3-7.9-27.4C75.7,21.9,68.6,44.2,55.7,55z"/>
					<g>
						<g>
							<defs>
								<path id="SVGID_2_" d="M56.7,55.4c0,0-20.3,7.4-26,34.5l-6.3,8.2l5.3,8.5l-0.6,7.6l1.5,4.3l-1.2,6l5.2,2.9
									c0,0,1.5,10.2,3.5,11.3l-2,5.9c0,0,3.7,5.9,0.8,10.2s-0.2,13.9,2.7,16.5s7.2,5.1,7.2,5.1l0.5-3.4l3.2,3.2l1.2-2.6
									c0,0,11.8,0.9,13.9-0.3l9.8,9.1c0,0,8.2,3.2,9.8,3.4c1.5,0.2,7.6,5.6,4.7,12.5l-11.1,12.4c0,0-20.3,20.7-20.8,35.1
									c0,0-11.1,26.9,7.6,39.6s25.2,15,25.2,15L248,282.7c0,0,0.6-110.8,0-111.4c-0.6-0.6-46.3-34.9-65.3-34
									c0,0-12.4-22.1-38.3-19.8l-6.9-10.8c0,0,19.2-51.8,10.1-80.1L110.9,54c0,0-16.8-5.9-26.3-4.3c0,0-3.4-23.3-7.9-27.4
									C76.7,22.4,69.7,44.6,56.7,55.4z"/>
							</defs>
							<defs>
								<path id="SVGID_3_" d="M56.7,55.4c0,0-20.3,7.4-26,34.5l-6.3,8.2l5.3,8.5l-0.6,7.6l1.5,4.3l-1.2,6l5.2,2.9
									c0,0,1.5,10.2,3.5,11.3l-2,5.9c0,0,3.7,5.9,0.8,10.2s-0.2,13.9,2.7,16.5s7.2,5.1,7.2,5.1l0.5-3.4l3.2,3.2l1.2-2.6
									c0,0,11.8,0.9,13.9-0.3l9.8,9.1c0,0,8.2,3.2,9.8,3.4c1.5,0.2,7.6,5.6,4.7,12.5l-11.1,12.4c0,0-20.3,20.7-20.8,35.1
									c0,0-11.1,26.9,7.6,39.6s25.2,15,25.2,15L248,282.7c0,0,0.6-110.8,0-111.4c-0.6-0.6-46.3-34.9-65.3-34
									c0,0-12.4-22.1-38.3-19.8l-6.9-10.8c0,0,19.2-51.8,10.1-80.1L110.9,54c0,0-16.8-5.9-26.3-4.3c0,0-3.4-23.3-7.9-27.4
									C76.7,22.4,69.7,44.6,56.7,55.4z"/>
							</defs>
							<clipPath id="SVGID_4_">
								<use xlink:href="#SVGID_2_"  style="overflow:visible;"/>
							</clipPath>
							<clipPath id="SVGID_5_" class="st2">
								<use xlink:href="#SVGID_3_"  style="overflow:visible;"/>
							</clipPath>
							<path class="st3" d="M48.2,102.3c0,0-4-0.5-5.8-3.7l-2.6-3.7l4.4-9.1l1.1,7.6l48.2-23L142.1,34c0,0-7.8,64-12.8,74.7
								s-5.8,6.5-5.8,6.5L107.8,131l-1.7,15l-10.5,9.4l15.9,21.6l24.4,10.2l-7-28.4l15.6,8.7l17.9,17.5c0,0,43.7,20.7,47.9,39.7
								c4.3,19,6.6,54,6.3,54.4S45,279.7,45,279.7l19.1-105.4l14.8-9.4v-31.5l-30.5-12.2l2.3-3.4l-6-5.3l-6.3,1.4l4.6-4.3l-2.9-2
								L48.2,102.3z"/>
							<g class="st4">
								<path class="st5" d="M109.6,231.9c-5.3-1.5-10.5-2.3-15.2-2.3c-5.1,0-9.1,0.8-11.8,2.7c-1.4,0.9-2.5,2-3.3,3.4
									c1.3-1.1,2.8-1.9,4.7-2.4c2-0.6,4.3-0.8,7-0.8c-3.4,1.7-5.7,5.5-5.9,10.3c-4,0.8-6.7,5.1-6.3,10.4c0,0.1,0,0.2,0,0.3
									c-0.1-0.1-0.1-0.2-0.2-0.2c-4.2-4.9-6.7-10.3-7-14.9c-0.2-4.5,1.7-8.2,5.5-10.5c1.9-1.1,4.1-1.9,6.7-2.4
									c2.4-0.4,5.2-0.6,8.2-0.4c5.8,0.2,12,1.4,17.9,3.5c5.9,2,11.5,4.8,16.3,8.2c4.9,3.4,8.7,7.3,11.2,11.2v0.1h-0.1
									c-3.7-3.8-7.9-7.1-12.6-9.8C120.2,235.6,115,233.4,109.6,231.9z"/>
								<path class="st5" d="M113.1,251.1c1.7,0.5,3,2.3,3.2,4.3c0.1,2.4-1.5,4.4-3.6,4.4H88.1c-3,0-5.7-3-5.9-6.7
									c-0.3-3.7,1.9-6.5,4.9-6.6c0.9,0,1.6-0.9,1.5-1.9c-0.3-5.3,3-9.4,7.5-9.2c3.7,0.2,7.2,3.3,8.3,7.5c0.1,0.5,0.5,1,0.9,1.3
									s0.9,0.3,1.4,0.1c0.4-0.2,0.8-0.2,1.3-0.2c2,0.1,3.8,2,3.9,4.3c0,0.1,0,0.3,0,0.5C111.7,250,112.3,250.9,113.1,251.1z"/>
								<path class="st5" d="M120.2,279.9c3.4-2,5.9-4.8,7.2-8.2c1.2-3.3,1.4-7,0.3-10.8c-1-4-3.2-7.7-6.4-11
									c-2.3-2.4-5.2-4.7-8.4-6.7c-1.4-1.6-3.3-2.7-5.4-2.8c-0.3,0-0.5,0-0.8,0c-1-2.4-2.6-4.5-4.4-6c2.8,0.8,5.5,1.8,8.2,3.1
									c6,2.7,11.4,6.5,15.4,10.7c2,2.2,3.7,4.4,5,6.7c1.2,2.2,2.1,4.5,2.6,6.8c1,4.6,0.5,8.8-1.4,12.4s-5.2,6.5-9.6,8.3
									c-2.5,1-5.3,1.6-8.3,1.7c-2.4,0.1-4.9,0-7.5-0.4c-0.1,0-0.1-0.1-0.1-0.1c0-0.1,0-0.1,0.1-0.1
									C112.1,283.2,116.8,282,120.2,279.9z"/>
								<path class="st5" d="M52.1,239.2c0,0,0.1,0,0.1,0.1c2.4,4.9,5.9,9.8,10.2,14.1l0,0c4.3,4.3,9.6,8.3,15.2,11.5
									c5.6,3.1,11.4,5.2,16.7,6.3c5.7,1.1,10.4,0.9,14.1-0.4c3.4-1.2,5.9-3.2,7.3-5.8c-0.4,0.3-0.9,0.6-1.4,0.8
									c-1,1-2.3,1.8-3.6,2.4c-2.1,0.9-4.8,1.4-7.9,1.5c-5.9-0.1-12.8-1.9-19.5-5.2c-6.6-3.4-12.7-8.2-17.2-13.4
									c-2.2-2.6-4-5.3-5.3-7.9c-1.2-2.5-2-5-2.4-7.4c-0.6-4.6,0.5-8.6,3.2-11.4c2.6-2.7,6.7-4.5,11.9-5.2
									c5.1-0.6,10.8-0.2,16.5,1.2c0.1,0,0.1,0.1,0.1,0.1c0,0.1,0,0.1-0.1,0.1c-5.7-0.5-10.5-0.1-14.4,1c-4,1.1-7.1,3.1-9,5.9
									c-1.8,2.8-2.4,6.3-1.6,10.1c0.8,4.2,3,8.3,6.4,12.3c2.3,2.6,5.1,5.1,8.1,7.3c1.6,4,4.9,6.9,8.7,6.8l24.5-0.3
									c4,0,7-3.7,6.7-8.2c-0.2-3.2-2-6-4.6-7.4c-0.1-0.9-0.4-1.8-0.7-2.6c0.4,0.4,0.8,0.8,1.3,1.2c2.1,2,3.9,4.3,5.1,6.7
									c2.4,4.6,3,9.3,1.7,13.3c-1.3,4.1-4.6,7.3-9.3,9c-2.4,0.9-5.2,1.4-8.1,1.4s-6-0.3-9.4-1c-6.5-1.5-13.3-4.2-19.5-8.1
									s-11.7-8.6-16.1-13.8c-4.3-5.2-7-10.3-7.8-14.8C52,239.3,52.1,239.2,52.1,239.2z"/>
							</g>
						</g>
						<polygon class="st1" points="51.7,100.1 69.6,96.9 57.8,103.5 						"/>
					</g>
					<polygon class="st6" points="37.9,138.2 55.4,136.2 66.6,139.9 					"/>
				</g>
				<g>
					<polygon class="st6" points="29.8,123.2 38.3,121.3 45.8,119.5 34.4,126.5 					"/>
				</g>
			</g>
		</g>
	</g>
</g>
</svg>
