<?xml version="1.0" encoding="utf-8"?>
<!-- Generator: Adobe Illustrator 19.2.1, SVG Export Plug-In . SVG Version: 6.00 Build 0)  -->
<svg version="1.1" id="Layer_1" xmlns="http://www.w3.org/2000/svg" xmlns:xlink="http://www.w3.org/1999/xlink" x="0px" y="0px"
	 width="2760px" height="2760px" viewBox="0 0 2760 2760" style="enable-background:new 0 0 2760 2760;" xml:space="preserve">
<style type="text/css">
	.st0{fill:url(#SVGID_1_);}
	.st1{fill:url(#SVGID_2_);}
	.st2{fill:url(#SVGID_3_);}
</style>
<title>bg_sunburst</title>
<g>
	<radialGradient id="SVGID_1_" cx="2648.6401" cy="1930.3101" r="8.897326e-05" gradientUnits="userSpaceOnUse">
		<stop  offset="0" style="stop-color:#FFFFFF"/>
		<stop  offset="1" style="stop-color:#FFFFFF;stop-opacity:0"/>
	</radialGradient>
	<polygon class="st0" points="2648.6,1930.3 2648.6,1930.3 2648.6,1930.3 	"/>
	<radialGradient id="SVGID_2_" cx="2247.8799" cy="2455.1104" r="1.567285e-02" gradientUnits="userSpaceOnUse">
		<stop  offset="0" style="stop-color:#FFFFFF"/>
		<stop  offset="1" style="stop-color:#FFFFFF;stop-opacity:0"/>
	</radialGradient>
	<path class="st1" d="M2247.9,2455.1L2247.9,2455.1C2247.9,2455.1,2247.9,2455.1,2247.9,2455.1L2247.9,2455.1z"/>
	<radialGradient id="SVGID_3_" cx="1380.0009" cy="1378.3274" r="1380.006" gradientUnits="userSpaceOnUse">
		<stop  offset="0" style="stop-color:#FFFFFF"/>
		<stop  offset="1" style="stop-color:#FFFFFF;stop-opacity:0"/>
	</radialGradient>
	<path class="st2" d="M1533.2,1404.4c2-11.5,2.6-23.5,1.9-35.7c0-0.1,0-0.2,0-0.3l1224.9-90.2c-8.2-110.8-29.8-220.3-64.2-325.9
		l-1-3.2l-1166.5,382.7c-3.9-12.3-9.2-23.9-15.8-34.6l1042-648.5c-59.1-94.8-129.5-182-209.7-259.8L1490,1268.7
		c-8.9-8.9-18.8-16.7-29.6-23.2l619.5-1057.8c-95.9-56.1-198.3-100.4-304.8-132.1l-349.6,1174.3c-11.7-3.6-23.9-5.8-36.6-6.5
		L1446.3-0.2c-111.6-5.2-223.5,3.2-333.1,25l239,1200.8c-13.1,2.4-25.7,6.4-37.4,11.8L798.2,127.6C697,174.7,601.8,234,514.8,304
		l768.6,952.7c-9.8,7.8-18.7,16.8-26.3,26.7L282.5,542.8c-67.3,88.4-123.6,184.5-167.9,286.4l1122.8,487.5
		c-5,11.6-8.7,23.9-10.8,36.7l-1207-205.5C0.8,1258-4.5,1370,3.8,1481.3l1221.3-91.1c1,13.1,3.6,25.6,7.6,37.5L68.3,1807.2
		c34.5,105.7,81.6,206.8,140.2,301.2l1040.7-646.3c6.7,10.4,14.5,19.9,23.4,28.3L418,2368.5c79.8,77.5,168.6,145.1,264.6,201.4
		l620.3-1056.7c11,6.3,22.8,11.3,35.2,14.7L987.3,2702.3c106.9,31.9,217.3,50.7,328.8,56.1l58.6-1224.8c4.9,0.2,9.9,0.1,15-0.2
		c7.3-0.4,14.4-1.4,21.3-2.8l238.2,1203.2c54.1-10.7,107.4-24.6,159.8-41.6h0.1c52.9-17.2,104.7-37.5,155.2-60.9l-516.8-1112.9
		c11-5.3,21.2-11.8,30.6-19.4l769.9,956.3c86.9-69.8,164.9-149.9,232.5-238.6l-976.9-744c7.6-10,14-20.8,19.1-32.4l1126.1,490.2
		c44.5-102,76.4-208.9,95.3-318.5L1533.2,1404.4z"/>
</g>
</svg>
