<?xml version="1.0" encoding="utf-8"?>
<!-- Generator: Adobe Illustrator 19.2.1, SVG Export Plug-In . SVG Version: 6.00 Build 0)  -->
<svg version="1.1" xmlns="http://www.w3.org/2000/svg" xmlns:xlink="http://www.w3.org/1999/xlink" x="0px" y="0px" width="1920px"
	 height="1080px" viewBox="0 0 1920 1080" style="enable-background:new 0 0 1920 1080;" xml:space="preserve">
<style type="text/css">
	.st0{display:none;}
	.st1{display:inline;fill:#231F20;stroke:#FFFFFF;stroke-miterlimit:10;}
	.st2{display:inline;fill:none;stroke:#FFFFFF;stroke-width:4;stroke-miterlimit:10;}
	.st3{display:inline;opacity:0.5;fill:none;stroke:#FFFFFF;stroke-width:4;stroke-miterlimit:10;}
	.st4{fill:none;stroke:#FFFFFF;stroke-width:4;stroke-miterlimit:10;}
	.st5{opacity:0.5;fill:none;stroke:#FFFFFF;stroke-width:4;stroke-miterlimit:10;}
</style>
<g id="Layer_1" class="st0">
	<rect x="-22" y="-16" class="st1" width="1964" height="1121"/>
</g>
<g id="Layer_2" class="st0">
	<line class="st2" x1="1633" y1="204" x2="1637" y2="204"/>
	<line class="st2" x1="521" y1="305" x2="517" y2="305"/>
	<line class="st2" x1="560.7" y1="139.1" x2="556.7" y2="139.1"/>
	<line class="st2" x1="1617" y1="913.5" x2="1613" y2="913.5"/>
	<line class="st2" x1="1817.7" y1="747.6" x2="1813.7" y2="747.6"/>
	<line class="st2" x1="973" y1="32.6" x2="969" y2="32.6"/>
	<line class="st3" x1="1736" y1="322.5" x2="1732" y2="322.5"/>
	<line class="st2" x1="517" y1="567.5" x2="513" y2="567.5"/>
	<line class="st2" x1="556.7" y1="401.6" x2="552.7" y2="401.6"/>
	<line class="st2" x1="734" y1="139.1" x2="730" y2="139.1"/>
	<line class="st2" x1="1619" y1="69.5" x2="1615" y2="69.5"/>
	<line class="st2" x1="982" y1="266.7" x2="978" y2="266.7"/>
	<line class="st2" x1="1267.5" y1="235.7" x2="1263.5" y2="235.7"/>
	<line class="st2" x1="1254" y1="547" x2="1258" y2="547"/>
	<line class="st2" x1="723" y1="30.1" x2="719" y2="30.1"/>
	<line class="st2" x1="1406" y1="447.3" x2="1410" y2="447.3"/>
	<line class="st3" x1="411.7" y1="263.1" x2="407.7" y2="263.1"/>
	<line class="st3" x1="182" y1="193.5" x2="186" y2="193.5"/>
	<line class="st2" x1="469" y1="99.5" x2="465" y2="99.5"/>
	<line class="st2" x1="324.1" y1="804" x2="328.1" y2="804"/>
	<line class="st3" x1="1184" y1="887.1" x2="1188" y2="887.1"/>
	<line class="st3" x1="1127.8" y1="49.2" x2="1131.8" y2="49.2"/>
	<line class="st3" x1="1448" y1="20.1" x2="1452" y2="20.1"/>
	<line class="st3" x1="1452" y1="706.1" x2="1456" y2="706.1"/>
	<line class="st3" x1="38" y1="461.1" x2="42" y2="461.1"/>
</g>
<g id="Layer_4">
	<line class="st4" x1="233" y1="388" x2="237" y2="388"/>
	<line class="st4" x1="1337" y1="350.9" x2="1341" y2="350.9"/>
	<line class="st4" x1="164.7" y1="680.1" x2="168.7" y2="680.1"/>
	<line class="st5" x1="49" y1="41" x2="45" y2="41"/>
	<line class="st4" x1="1241" y1="825.1" x2="1237" y2="825.1"/>
	<line class="st4" x1="1482.7" y1="108.7" x2="1478.7" y2="108.7"/>
	<line class="st4" x1="289" y1="21.6" x2="285" y2="21.6"/>
	<line class="st4" x1="1575.7" y1="538.6" x2="1571.7" y2="538.6"/>
	<line class="st4" x1="757.7" y1="115.7" x2="753.7" y2="115.7"/>
	<line class="st5" x1="1692" y1="342.3" x2="1688" y2="342.3"/>
	<line class="st4" x1="446.3" y1="348.7" x2="442.3" y2="348.7"/>
	<line class="st4" x1="503.7" y1="185.1" x2="499.7" y2="185.1"/>
	<line class="st4" x1="1795" y1="157" x2="1799" y2="157"/>
	<line class="st5" x1="1873" y1="938.1" x2="1877" y2="938.1"/>
	<line class="st5" x1="451" y1="695.1" x2="455" y2="695.1"/>
</g>
<g id="Layer_3" class="st0">
	<line class="st2" x1="271.7" y1="256.1" x2="275.7" y2="256.1"/>
	<line class="st2" x1="742.7" y1="509.1" x2="746.7" y2="509.1"/>
	<line class="st2" x1="1846.7" y1="472" x2="1850.7" y2="472"/>
	<line class="st2" x1="124" y1="880" x2="128" y2="880"/>
	<line class="st2" x1="634.7" y1="967.1" x2="638.7" y2="967.1"/>
	<line class="st3" x1="1442" y1="308.6" x2="1438" y2="308.6"/>
	<line class="st2" x1="1882" y1="33" x2="1878" y2="33"/>
	<line class="st2" x1="1263" y1="92.5" x2="1259" y2="92.5"/>
	<line class="st2" x1="44" y1="337.5" x2="40" y2="337.5"/>
	<line class="st2" x1="942.8" y1="216.1" x2="946.8" y2="216.1"/>
	<line class="st2" x1="1572.7" y1="444" x2="1568.7" y2="444"/>
	<line class="st2" x1="434" y1="147.1" x2="438" y2="147.1"/>
	<line class="st2" x1="1706" y1="729" x2="1702" y2="729"/>
	<line class="st2" x1="122.7" y1="380.1" x2="126.7" y2="380.1"/>
	<line class="st3" x1="309" y1="495.1" x2="313" y2="495.1"/>
</g>
</svg>
