<?xml version="1.0" encoding="utf-8"?>
<!-- Generator: Adobe Illustrator 19.2.1, SVG Export Plug-In . SVG Version: 6.00 Build 0)  -->
<svg version="1.1" id="Layer_1" xmlns="http://www.w3.org/2000/svg" xmlns:xlink="http://www.w3.org/1999/xlink" x="0px" y="0px"
	 width="801px" height="950.9px" viewBox="0 0 801 950.9" style="enable-background:new 0 0 801 950.9;" xml:space="preserve">
<style type="text/css">
	.st0{fill-rule:evenodd;clip-rule:evenodd;fill:#8C4799;}
	.st1{fill:#8C4799;}
	.st2{fill:#4C4B4D;}
	.st3{opacity:0.2;}
	.st4{clip-path:url(#SVGID_2_);fill:#231F20;}
	.st5{clip-path:url(#SVGID_2_);}
	.st6{fill:#231F20;}
	.st7{clip-path:url(#SVGID_4_);fill:#231F20;}
	.st8{fill:#CB333B;}
	.st9{opacity:0.2;fill:#231F20;}
	.st10{fill:none;stroke:#231F20;stroke-width:1.25;stroke-linecap:round;stroke-linejoin:round;stroke-miterlimit:10;}
	.st11{fill:#CA2027;}
</style>
<path class="st1" d="M117.6,205.7l-97.3,74.7l-1.3,68.7c0,0-34,40.7,13.3,126.7s54,152,134,205.3s6.7,207.3,6.7,207.3
	s-64.7,47.3-74,90c-9.3,42.7,725.3,0.7,725.3,0.7S520.6,829.9,519.9,691.9c-0.7-138,21-294.2,21-294.2s38.7-87.3-98-142.7
	S117.6,205.7,117.6,205.7z"/>
<path class="st2" d="M143.9,47.4c0,0,1-9.3-5.3-12.3c-6.3-3-15.7-2-15.7-2s-3,15-28.3,21.7l-5.7,23.3l-3,8.3l5,21.7l-4.3,15v10.3
	l-17.7,27l-8-4l-4.7,1.3l-2.3-1l1.3-23l-22.7-26.7l-20,14.7c0,0,6,31.3,4,41.3s7.7,18.3,7.7,18.3l11.7,3.3l4.3,8.3l20.3,22.3
	c0,0-4.7,17,10.3,33l-6.7,50.3l-24,58.7c0,0-13,73,27,118.3l15,17.7l2.7,13.7l45.7,16.7l24.7-13.3l23.7-25l8-5.7
	c0,0,17,33.3,70.3,64.3c0,0,11.3,33.3,26.3,48l-11,12l3.3,96.3l-18.7,47.7l-52,223.7l400.7,2.7l0.7-22.7l6.7-5l-39-237.3l9-11.3
	l52.3,12.3l22.7,14l12,12l3.7,2l7,6.7l47,19.3l16.7-7l7.3-3.7l3.7-10.3l22.7-10.3l1.3-21.7l12.7-10l1.7-10c0,0-13.3-10.7-9.3-16
	c4-5.3,8.3-10.7,8.3-10.7l-2.7-17.3l-10.3-3.3l-21-17.7l-16-1.7l-10.7-11.7c0,0-32-12-46,17l-10,3c0,0-40.7-10-70.7-36.7
	c0,0-35.7-51.7-70-61.3l-2-10.3c0,0,16-20.7,4.7-54.3c0,0,23.3-32.7,2.7-72.7c0,0-27-89-109.7-129.3s-198-74.3-198-74.3l-30.3,11
	c0,0,23-26,22.7-27c-0.3-1-2.3-20-2.3-20l-8.3-5.3c0,0,11.3-22,11.3-23.3c0-1.3,0.3-16.7,0.3-16.7l-14.7-10l-12.7,9
	c0,0-13,27.7-20.7,16c-7.7-11.7,6.3-32.7,6.3-32.7l1-11l6.7-4.3l12-19.7l-2.3-8.7l-14-7.3l-15.7,12l-7,2.3l-0.3,6.7l-10,9
	c0,0-1.7,4-5,10s-3.7,15.7-3.7,15.7l-12.7,7.3l-9.3-8.3l3.3-21.3C127.9,77.4,142.2,57.7,143.9,47.4z"/>
<g class="st3">
	<defs>
		<path id="SVGID_1_" class="st3" d="M143.9,47.4c0,0,1-9.3-5.3-12.3c-6.3-3-15.7-2-15.7-2s-3,15-28.3,21.7l-5.7,23.3l-3,8.3l5,21.7
			l-4.3,15v10.3l-17.7,27l-8-4l-4.7,1.3l-2.3-1l1.3-23l-22.7-26.7l-20,14.7c0,0,6,31.3,4,41.3s7.7,18.3,7.7,18.3l11.7,3.3l4.3,8.3
			l20.3,22.3c0,0-4.7,17,10.3,33l-6.7,50.3l-24,58.7c0,0-13,73,27,118.3l15,17.7l2.7,13.7l45.7,16.7l24.7-13.3l23.7-25l8-5.7
			c0,0,17,33.3,70.3,64.3c0,0,11.3,33.3,26.3,48l-11,12l3.3,96.3l-18.7,47.7l-52,223.7l400.7,2.7l0.7-22.7l6.7-5l-39-237.3l9-11.3
			l52.3,12.3l22.7,14l12,12l3.7,2l7,6.7l47,19.3l16.7-7l7.3-3.7l3.7-10.3l22.7-10.3l1.3-21.7l12.7-10l1.7-10c0,0-13.3-10.7-9.3-16
			c4-5.3,8.3-10.7,8.3-10.7l-2.7-17.3l-10.3-3.3l-21-17.7l-16-1.7l-10.7-11.7c0,0-32-12-46,17l-10,3c0,0-40.7-10-70.7-36.7
			c0,0-35.7-51.7-70-61.3l-2-10.3c0,0,16-20.7,4.7-54.3c0,0,23.3-32.7,2.7-72.7c0,0-27-89-109.7-129.3s-198-74.3-198-74.3l-30.3,11
			c0,0,23-26,22.7-27c-0.3-1-2.3-20-2.3-20l-8.3-5.3c0,0,11.3-22,11.3-23.3c0-1.3,0.3-16.7,0.3-16.7l-14.7-10l-12.7,9
			c0,0-13,27.7-20.7,16c-7.7-11.7,6.3-32.7,6.3-32.7l1-11l6.7-4.3l12-19.7l-2.3-8.7l-14-7.3l-15.7,12l-7,2.3l-0.3,6.7l-10,9
			c0,0-1.7,4-5,10s-3.7,15.7-3.7,15.7l-12.7,7.3l-9.3-8.3l3.3-21.3C127.9,77.4,142.2,57.7,143.9,47.4z"/>
	</defs>
	<clipPath id="SVGID_2_">
		<use xlink:href="#SVGID_1_"  style="overflow:visible;"/>
	</clipPath>
	<path class="st4" d="M54.9,211.4c0,0,22,14,24.5,28.5s7.5,44.5,7.5,44.5l-12.5,71.5l20-21.5c0,0-24,93.5-2.5,118.5s38.5,75,38.5,75
		l-76-20.5l-22.5-165L54.9,211.4z"/>
	<path class="st4" d="M548.4,445.9c0,0-17,27-31.5,23.5l15.5,16.5c0,0-2.5,27-17.5,38c-15,11,28.5-2.5,28.5-2.5l12-65L548.4,445.9z"
		/>
	<path class="st4" d="M534.9,531.9l15,74l24.5,99l147.5,58.5l-37-25l-4.5-19l15.5-13l20,20l-20-26.5l8-16l25,9.5l-15-11.5l-13-8.5
		v-28l-19,29c0,0-22,17.5-23,22s-54.5-35.5-54.5-35.5l36.5-4l-64-51l-29.5-71L534.9,531.9z"/>
	<path class="st4" d="M513.9,725.4c0,0-29,59-46,80s-37,199-37,199l82-8l17-138c0,0-37,34-37,31S525.9,752.4,513.9,725.4z"/>
	<path class="st4" d="M137.6,364.9l19.3,62.7C156.9,427.6,178.2,418.9,137.6,364.9z"/>
	<path class="st4" d="M141.2,33.2l-32.7,42.7c0,0,12.7,37.3,10.7,37.3s-7.3,23.3-7.3,23.3l28-36.7l16-70L141.2,33.2z"/>
	<polygon class="st4" points="204.6,45.2 179.2,75.2 168.6,124.6 169.9,135.2 157.2,151.9 189.2,125.9 214.6,57.2 	"/>
	<polygon class="st4" points="229.2,105.2 197.9,169.2 230.6,148.6 	"/>
	<polygon class="st4" points="71.9,153.9 67.2,168.6 44.6,154.6 28.6,93.9 73.9,128.6 	"/>
	<g class="st5">
		<path class="st6" d="M253.1,336.6c-0.4-1.2-0.7-1.7-0.7-1.7S252.6,335.5,253.1,336.6z"/>
		<path class="st6" d="M371.9,464.9l68-18.5l-60.5-1.5c-81.8-17-120.6-95.8-126.3-108.3c1.7,4.6,5.8,19.3,4.3,54.3
			c-2,44-72,89.5-72,89.5l-4,5l74,117.5l-78.5,374l171,2.5l5-79l28.5-97l-31,26c0,0,13.5-108.5,14.5-150s-42.5-149-42.5-149l38.5,13
			l-15.5-51l41.5,7L371.9,464.9z M257.9,479.2l43.3,31.3C301.2,510.6,262.6,519.9,257.9,479.2z M287.2,438.6l52,46.7
			C339.2,485.2,272.6,479.9,287.2,438.6z"/>
	</g>
	<path class="st4" d="M466.6,502.6c0,0,10.7,46.7,12,74c1.3,27.3,18,57.3,18,57.3s6-36.7-9.3-59.3s-6-72.7-6-72.7
		S460.6,459.2,466.6,502.6z"/>
	<polygon class="st4" points="93.2,114.6 103.2,138.6 98.6,203.2 94.6,138.6 	"/>
	<polygon class="st4" points="136.6,133.9 117.9,198.6 141.2,137.2 	"/>
	<polygon class="st4" points="741.2,613.9 746.6,645.9 737.9,674.6 717.9,669.9 742.6,680.6 773.9,663.2 803.2,641.2 	"/>
	<path class="st4" d="M784.6,711.2l-48-15.3l52.7,26l-15.3,26l-48.7-18.7l36,30.7c0,0,49.3-17.3,48-19.3s5.3-73.3,5.3-73.3
		l-45.3,0.7l27.3,20.7l0.7,23.3L784.6,711.2z"/>
	<path class="st4" d="M243.4,228.4c0,0,174.5,102.5,196.5,85.5s-7-55.5-7-55.5l-46.5,23.5l-38-12.5L243.4,228.4z"/>
	<path class="st4" d="M199.4,206.9l-7,24.5l-18,17c0,0-6.5,72,3.5,84.5s18,37.5,18,37.5s47.5-24,37-72.5s7-72,7-72
		S241.9,174.4,199.4,206.9z M184.9,263.9c30-13,33,29,33,29C206.9,274.9,184.9,263.9,184.9,263.9z"/>
</g>
<path class="st1" d="M195.9,212.9l99.5,36.2l83.3,35.6c7.1,2.8,15.1,2.3,21.8-1.4c18.5-10.1,54.9-30.6,58.4-36.6l0.7-22
	c0,0-31,2.3-30.3-137.3c0,0-16-50.7-34.7-73.3c0,0-41.7-6-46.7-11.7c0,0-36.3,13.7-41.3,23.3s-31.3,39.7-31.3,39.7s-30,66.3-38.7,71
	c0,0-0.7,19-20.3,19.3S195.9,212.9,195.9,212.9z"/>
<path class="st2" d="M317.6,120.1l69.7,16.3c0,0,53.7,80,47.7,105.7c-3.9,16.8-28.9,26.8-45.6,31.6c-9.2,2.7-19.2,1.2-27.3-4
	l-102.4-66.3c0,0-29.7-20.7,4.3-42S317.6,120.1,317.6,120.1z"/>
<g class="st3">
	<defs>
		<path id="SVGID_3_" class="st3" d="M318.2,120.1l69.7,16.3c0,0,53.7,80,47.7,105.7c-4.1,17.4-30.8,27.5-47.5,32.1
			c-8.2,2.3-17.1,0.9-24.2-3.7l-103.6-67.1c0,0-29.7-20.7,4.3-42S318.2,120.1,318.2,120.1z"/>
	</defs>
	<clipPath id="SVGID_4_">
		<use xlink:href="#SVGID_3_"  style="overflow:visible;"/>
	</clipPath>
	<path class="st7" d="M298.9,132.9c0.8,0,27.5,24.8,27.5,24.8l7.2-1l2.8-17l1.5,16.5c0,0,2.8,5,6,2s14-18,14-18l-6.8,17l45.2-11.8
		l2.2,6.5c0,0-14.2,21-21,19.2s-24.2-7.8-24.2-7.8l3.5,8.5l-17.2-10.8l-29.2,3.2l6.2-5.8c0,0-21.8,1-29.8-13
		S298.9,132.9,298.9,132.9z"/>
	<path class="st7" d="M401.9,152.4c0,0-13.7,52-15,52c-1.3,0-38,27-38,27l-4.7,11l-32.3,0.3l60.7,37.2l50.7-13.3l-42.3-18.2l6-31.7
		l23.3-23.7l-14.7,4.3l13-37.3L401.9,152.4z"/>
	<polygon class="st7" points="270.2,153.7 269.2,175.1 283.6,206.7 282.2,224.4 241.9,197.1 235.9,155.4 	"/>
</g>
<path class="st8" d="M354.2,156.7l28.7-7c0,0-10.3,9.3-11.3,9.3S354.2,156.7,354.2,156.7z"/>
<polygon class="st8" points="317.9,151.1 299.6,137.1 303.2,147.7 "/>
<polygon class="st9" points="316.9,180.1 326.2,189.7 340.6,183.7 324.6,198.4 "/>
<path class="st9" d="M288.2,201.1l15.3-3.7c0,0,21.7,13,34.7,9.7l12.3,9.7l-20.3-3.3c0,0,0-7.3-26-7L288.2,201.1z"/>
<polygon class="st2" points="196.4,215.6 232.2,179.1 230.2,156.4 208.2,148.4 177.6,196.6 "/>
<g>
	
		<rect x="440.6" y="350.3" transform="matrix(0.989 -0.1479 0.1479 0.989 -47.1178 69.8971)" class="st1" width="11.5" height="2.8"/>
	<polygon class="st1" points="432.4,364 432.3,364 431.6,359.4 439.4,358.2 454.8,355.9 462.7,354.8 463.4,359.4 463.2,359.4 	"/>
	<path class="st1" d="M400.5,384.8c0.3,2,0.6,3.8,1,5.5c2.2,14.2,9.7,17.9,13.2,25.3c4.2,8.9,0.2,22,7.6,22.4
		c7.5,0.4,5.7-8.4,1.8-18.2c-3.9-9.8-0.8-23.6,6.7-15.6c7.5,8,11.4,18.2,22.5,18.7c11.1,0.6,16.8-3,17.8,7.4c1,10.5-3.1,21.1,1.7,26
		c4.8,5,15.1,0.8,9.7-12.1c-5.5-12.9-6.2-27-3.1-24.6c3,2.3,0.5,13.4,5.5,17.1c4.9,3.7,9.6-2.4,6.2-11.7c-3.4-9.3-2.7-11-2.7-11
		s5.6-8.3,6.9-17.7c3.3-8,4.6-17,3.2-26.2c-4-27-29.2-45.7-56.3-41.6S396.5,357.7,400.5,384.8z M427.3,358c-0.2-1.1,0.6-2.1,1.7-2.3
		l7.8-1.2l-0.7-4.8c-0.2-1.1,0.6-2.1,1.7-2.3l15.4-2.3c1.1-0.2,2.1,0.6,2.3,1.7l0.7,4.8l7.8-1.2c1.1-0.2,2.1,0.6,2.3,1.7l1.3,8.6
		c0.2,1.1-0.6,2.1-1.7,2.3l-0.1,0l4.5,29.8c0.5,3.5-1.9,6.8-5.4,7.3l-22.1,3.3c-3.5,0.5-6.8-1.9-7.3-5.4l-4.5-29.8l-0.1,0
		c-1.1,0.2-2.1-0.6-2.3-1.7L427.3,358z"/>
	<path class="st1" d="M461.8,363.7l-26.8,4l4.5,29.8c0.2,1.3,1.4,2.2,2.7,2l22.1-3.3c1.3-0.2,2.2-1.4,2-2.7L461.8,363.7z M446.7,393
		c0.2,1.1-0.6,2.1-1.7,2.3c-1.1,0.2-2.1-0.6-2.3-1.7l-3.1-20.7c-0.2-1.1,0.6-2.1,1.7-2.3c1.1-0.2,2.1,0.6,2.3,1.7L446.7,393z
		 M454.4,391.8c0.2,1.1-0.6,2.1-1.7,2.3c-1.1,0.2-2.1-0.6-2.3-1.7l-3.1-20.7c-0.2-1.1,0.6-2.1,1.7-2.3c1.1-0.2,2.1,0.6,2.3,1.7
		L454.4,391.8z M462.1,390.7c0.2,1.1-0.6,2.1-1.7,2.3c-1.1,0.2-2.1-0.6-2.3-1.7l-3.1-20.7c-0.2-1.1,0.6-2.1,1.7-2.3
		c1.1-0.2,2.1,0.6,2.3,1.7L462.1,390.7z"/>
</g>
</svg>
