<?xml version="1.0" encoding="utf-8"?>
<!-- Generator: Adobe Illustrator 19.2.1, SVG Export Plug-In . SVG Version: 6.00 Build 0)  -->
<svg version="1.1" id="Layer_1" xmlns="http://www.w3.org/2000/svg" xmlns:xlink="http://www.w3.org/1999/xlink" x="0px" y="0px"
	 width="300px" height="30px" viewBox="0 0 300 30" style="enable-background:new 0 0 300 30;" xml:space="preserve">
<style type="text/css">
	.st0{fill:#FFFFFF;}
</style>
<g>
	<path class="st0" d="M22.9,10c-1.5,0-2.7,1-2.8,2.3c-0.4-0.1-0.8-0.1-1.3-0.1l0-0.1c0-1.8-0.6-3.5-1.8-4.8c-1.7-1.9-4.5-4.6-7.3-6
		C5-0.9,8.9,3.7,8.9,3.7L4.6,0.8c0,0-0.1,3.5,2,4.4L2.9,4.1c0,0,1.5,3.3,3.2,3.4L3,9.3c0,0,1.6,1.2,4.1,0.4l-2.4,1.6
		c0,0,1.3,1.3,2.8,0.7c0,0-0.7,1.4,0.6,1.6c0,0-0.1,0.5,1.3,1c0,0,0.3,1,1.1,1.2c-0.1,0.1-0.1,0.2-0.2,0.3c-2.9,0.8-7.8,2.2-8.8,4.1
		c0,0,0,1.6,1,1.9l8.3-4.5c1.1,1.2,3.8,1.6,7,1.5c4.5-0.2,5.2-2.2,5.1-3.9c0,0,0,0,0,0c1.1,0,2-0.6,2.5-1.4l3.1-0.3l-2.8-1
		C25.7,11.2,24.4,10,22.9,10z"/>
	<path class="st0" d="M52.7,10c-1.5,0-2.7,1-2.8,2.3c-0.2,0-0.4,0-0.5,0l-0.3-1c-0.5-1.4-1.5-2.6-3-3.2c-2.2-1-5.5-2.2-8.6-2.3
		c-5-0.2,0,2.1,0,2.1L32.5,7c0,0,0.9,2.8,3.1,2.8l-3.8,0.4c0,0,2.3,2.1,4,1.7l-2.4,2.5c0,0,1.8,0.4,4-1l-1.9,2.1
		c0,0,1.6,0.6,2.8-0.3c0,0-0.3,1.4,1.1,1.1c0,0,0,0.1,0.2,0.2c-2.9,0.8-7.3,2.2-8.3,4c0,0,0,1.6,1,1.9l8.3-4.5
		c1.1,1.2,3.8,1.6,7,1.5c4.5-0.2,5.2-2.2,5.1-3.9c0,0,0,0,0,0c1.1,0,2-0.6,2.5-1.4l3.1-0.3l-2.8-1C55.6,11.2,54.3,10,52.7,10z"/>
	<path class="st0" d="M82.8,10c-1.5,0-2.7,1-2.8,2.3c-0.5-0.1-1.1-0.1-1.7-0.1c-0.4-0.5-1-0.9-1.8-1.1c-1.8-0.5-4.5-1.2-7.1-1.1
		c-4.2,0.2-0.2,1.4-0.2,1.4l-4.1-0.3c0,0,0.6,1.9,2.5,1.7l-3.2,0.5c0,0,1.8,1.3,3.2,0.9l-2.2,1.8c0,0,2.3,0.4,4.2-0.7l-2.5,1.3
		c0,0,0.2,0.1,0.6,0.1c-2.7,0.8-5.6,2-6.4,3.5c0,0,0,1.6,1,1.9l8.3-4.5c1.1,1.2,3.8,1.6,7,1.5c4.5-0.2,5.2-2.2,5.1-3.9c0,0,0,0,0,0
		c1.1,0,2-0.6,2.5-1.4l3.1-0.3l-2.8-1C85.7,11.2,84.4,10,82.8,10z"/>
	<path class="st0" d="M112.9,10c-1.5,0-2.7,1-2.8,2.3c-1.3-0.2-2.9,0-4.5,0.5c-2.7,0.9-4.9,2-5.3,3.3c-2.9,0.8-7.8,2.2-8.8,4.1
		c0,0,0,1.6,1,1.9l5.2-2.8l0.8,0.2c-1.7,0.2-3.1,1.8-3.1,1.8l3.7-0.7c-2.1,0.5-1.9,2.2-1.9,2.2l4.3-1.6c0,0-3.8,2.4,0.8,1
		c2.8-0.8,5.4-2.2,7.1-3.2c3-0.6,3.6-2.2,3.5-3.7c0,0,0,0,0,0c1.1,0,2-0.6,2.5-1.4l3.1-0.3l-2.8-1C115.8,11.2,114.5,10,112.9,10z
		 M99.4,18.5L99.4,18.5l0.1,0C99.5,18.5,99.4,18.5,99.4,18.5z"/>
	<path class="st0" d="M143,10c-1.5,0-2.7,1-2.8,2.3c-1.3-0.2-2.9,0-4.5,0.5c-2.7,0.9-4.9,2-5.3,3.3c-2.9,0.8-7.8,2.2-8.8,4.1
		c0,0,0,1.6,1,1.9l6.4-3.5l1,1.4c-1.1-0.3-3,1.9-3,1.9l2.7,0c-1.6,0.2-2.5,2.9-2.5,2.9l3.6-1.2c0,0-3.7,2.6-0.2,2
		c2.2-0.4,4.7-1.8,6.3-2.9c1.1-0.7,2-1.9,2.4-3.3l0.1-0.4c3.1-0.6,3.7-2.2,3.5-3.7c0,0,0,0,0,0c1.1,0,2-0.6,2.5-1.4l3.1-0.3l-2.8-1
		C145.8,11.1,144.5,10,143,10z"/>
	<path class="st0" d="M172.9,9.9c-1.5,0-2.7,1-2.8,2.3c-1.3-0.2-2.9,0-4.5,0.5c-2.7,0.9-4.9,2-5.3,3.3c-2.9,0.8-7.8,2.2-8.8,4.1
		c0,0,0,1.6,1,1.9l5.4-3l1.6,1c-2.6-0.7-4.1,0.4-4.1,0.4l3.1,1.8c-1.7,0.1-3.2,3.4-3.2,3.4l3.7-1.1c-2.1,0.9-2,4.4-2,4.4l4.4-2.9
		c0,0-3.9,4.6,0.7,2.3c2.8-1.4,5.6-4.1,7.3-6c1.1-1.2,1.7-2.7,1.8-4.3c1.5-0.8,1.8-2,1.7-3.1c0,0,0,0,0,0c1.1,0,2-0.6,2.5-1.4
		l3.1-0.3l-2.8-1C175.7,11.1,174.4,9.9,172.9,9.9z"/>
	<path class="st0" d="M203.1,10c-1.5,0-2.7,1-2.8,2.3c-1.3-0.2-2.9,0-4.5,0.5c-2.7,0.9-4.9,2-5.3,3.3c-2.9,0.8-7.8,2.2-8.8,4.1
		c0,0,0,1.6,1,1.9l6.4-3.5l1,1.4c-1.1-0.3-3,1.9-3,1.9l2.7,0c-1.6,0.2-2.5,2.9-2.5,2.9l3.6-1.2c0,0-3.7,2.6-0.2,2
		c2.2-0.4,4.7-1.8,6.3-2.9c1.1-0.7,2-1.9,2.4-3.3l0.1-0.4c3.1-0.6,3.7-2.2,3.5-3.7c0,0,0,0,0,0c1.1,0,2-0.6,2.5-1.4l3.1-0.3l-2.8-1
		C205.9,11.1,204.7,10,203.1,10z"/>
	<path class="st0" d="M233,10c-1.5,0-2.7,1-2.8,2.3c-1.3-0.2-2.9,0-4.5,0.5c-2.7,0.9-4.9,2-5.3,3.3c-2.9,0.8-7.8,2.2-8.8,4.1
		c0,0,0,1.6,1,1.9l5.2-2.8l0.8,0.2c-1.7,0.2-3.1,1.8-3.1,1.8l3.7-0.7c-2.1,0.5-1.9,2.2-1.9,2.2l4.3-1.6c0,0-3.8,2.4,0.8,1
		c2.8-0.8,5.4-2.2,7.1-3.2c3-0.6,3.6-2.2,3.5-3.7c0,0,0,0,0,0c1.1,0,2-0.6,2.5-1.4l3.1-0.3l-2.8-1C235.9,11.2,234.6,10,233,10z
		 M219.5,18.5L219.5,18.5l0.1,0C219.6,18.5,219.5,18.5,219.5,18.5z"/>
	<path class="st0" d="M263,10c-1.5,0-2.7,1-2.8,2.3c-0.5-0.1-1.1-0.1-1.7-0.1c-0.4-0.5-1-0.9-1.8-1.1c-1.8-0.5-4.5-1.2-7.1-1.1
		c-4.2,0.2-0.2,1.4-0.2,1.4l-4.1-0.3c0,0,0.6,1.9,2.5,1.7l-3.2,0.5c0,0,1.8,1.3,3.2,0.9l-2.2,1.8c0,0,2.3,0.4,4.2-0.7l-2.5,1.3
		c0,0,0.2,0.1,0.6,0.1c-2.7,0.8-5.6,2-6.4,3.5c0,0,0,1.6,1,1.9l8.3-4.5c1.1,1.2,3.8,1.6,7,1.5c4.5-0.2,5.2-2.2,5.1-3.9c0,0,0,0,0,0
		c1.1,0,2-0.6,2.5-1.4l3.1-0.3l-2.8-1C265.8,11.2,264.5,10,263,10z"/>
	<path class="st0" d="M295.7,12.6c0-1.5-1.3-2.6-2.9-2.6c-1.5,0-2.7,1-2.8,2.3c-0.2,0-0.4,0-0.5,0l-0.3-1c-0.5-1.4-1.5-2.6-3-3.2
		c-2.2-1-5.5-2.2-8.6-2.3c-5-0.2,0,2.1,0,2.1L272.6,7c0,0,0.9,2.8,3.1,2.8l-3.8,0.4c0,0,2.3,2.1,4,1.7l-2.4,2.5c0,0,1.8,0.4,4-1
		l-1.9,2.1c0,0,1.6,0.6,2.8-0.3c0,0-0.3,1.4,1.1,1.1c0,0,0,0.1,0.2,0.2c-2.9,0.8-7.3,2.2-8.3,4c0,0,0,1.6,1,1.9l8.3-4.5
		c1.1,1.2,3.8,1.6,7,1.5c4.5-0.2,5.2-2.2,5.1-3.9c0,0,0,0,0,0c1.1,0,2-0.6,2.5-1.4l3.1-0.3L295.7,12.6z"/>
</g>
</svg>
