<?xml version="1.0" encoding="utf-8"?>
<!-- Generator: Adobe Illustrator 19.2.1, SVG Export Plug-In . SVG Version: 6.00 Build 0)  -->
<svg version="1.1" id="Layer_1" xmlns="http://www.w3.org/2000/svg" xmlns:xlink="http://www.w3.org/1999/xlink" x="0px" y="0px"
	 width="772px" height="126.5px" viewBox="0 0 772 126.5" style="enable-background:new 0 0 772 126.5;" xml:space="preserve">
<style type="text/css">
	.st0{opacity:0.15;}
	.st1{fill:none;stroke:#000000;stroke-width:2;stroke-miterlimit:10;}
	.st2{fill:none;stroke:#000000;stroke-width:2;stroke-linecap:round;stroke-linejoin:round;stroke-miterlimit:10;}
	.st3{fill:#FFFFFF;}
	.st4{fill:#F4B847;}
	.st5{fill:none;stroke:#F4B847;stroke-width:2;stroke-miterlimit:10;}
	.st6{fill:none;stroke:#F4B847;stroke-width:2;stroke-linecap:round;stroke-linejoin:round;stroke-miterlimit:10;}
</style>
<g>
	<g class="st0">
		<path d="M36,29.5c-0.6,0-0.8,0.2-0.8,0.7V41c-3.8,1.8-8.8,2.4-13,2.4c-13.7,0-18.4-8-18.4-18.8C3.9,13.9,10,5.9,22.6,5.9
			c3.6,0,8.3,0.9,11.3,2.9v9.5l-5.6-0.4l-0.8-4.5c-0.1-0.7-0.4-0.9-0.8-1c-1.2-0.4-3.1-0.7-4.6-0.7c-6.5,0-10.3,4.9-10.3,12.8
			c0,8.2,3.5,13.2,10.7,13.2c1.4,0,3-0.2,4.2-0.3c0.5-0.1,0.8-0.2,0.8-0.9v-6.6H22l0.7-4.5H38v4L36,29.5z"/>
		<path d="M59,42.8l-0.4-2.7h-0.2c-2,1.5-4.6,3.3-8.9,3.3c-5.3,0-7.3-3-7.3-8.8V22.4c0-0.8,0-0.9-0.8-1L39,20.8l0.5-4.1h10.3v16.6
			c0,3.1,0.5,4.2,2.7,4.2s4-1.2,5.2-2.3V22.3c0-0.8-0.1-0.9-0.8-1l-2.1-0.5l0.5-4.1h10v20.8c0,0.7,0.1,0.9,0.7,1l2.5,0.4v4H59V42.8z
			"/>
		<path d="M87.3,42.8l-0.5-2.7h-0.2c-1.9,1.8-4.4,3.3-8.4,3.3c-6.3,0-7.3-4.3-7.3-7.4c0-5,3.1-7.3,9.4-7.7l5.8-0.4v-2.8
			c0-2.3-0.2-4-3.4-4c-2.4,0-3.7,0.4-3.7,3.4l-7.1-0.6c0-6.8,6.2-7.7,10.8-7.7c7.6,0,10.7,2,10.7,9.1v12.2c0,0.8,0,0.9,0.8,1
			l2.4,0.4v4L87.3,42.8L87.3,42.8z M85.9,32l-3.4,0.2c-3,0.2-4,1-4,3s1.2,2.8,2.9,2.8c1.7,0,3.4-1,4.6-1.8L85.9,32L85.9,32z"/>
		<path d="M98.3,42.8v-4l2.2-0.3c0.7-0.1,0.8-0.2,0.8-1V22.8c0-0.5-0.1-0.9-0.6-1.1L98,20.8l0.6-4.1h8.8l0.6,4h0.3
			c1.7-2.5,3.9-4.5,7.1-4.5c1.1,0,3.5,0.2,4.4,0.5v9.1l-6-0.2l-0.5-2.7c-0.1-0.4-0.2-0.5-0.6-0.5c-1.3,0-2.9,1.1-3.6,1.8v13.3
			c0,0.8,0,1,0.8,1l5,0.4v4H98.3V42.8z"/>
		<path d="M140.7,42.8l-0.5-2.8l-0.3-0.1c-2.1,2.1-4.6,3.5-8.2,3.5c-5.9,0-9.7-3.8-9.7-13.3c0-10,5.1-13.9,10.6-13.9
			c2.9,0,5.2,1,7.1,2.4V11c0-0.5-0.2-0.8-0.7-1l-2.8-1l0.5-4h10.1v32.5c0,0.8,0.1,0.8,0.8,1l2.4,0.3v4
			C150,42.8,140.7,42.8,140.7,42.8z M139.3,23.5c-1.2-0.9-2.9-1.5-4.3-1.5c-3.7,0-5.2,3.5-5.2,7.9c0,4.8,1.4,7.5,4.6,7.5
			c1.7,0,3.6-1,4.9-2.1V23.5z"/>
		<path d="M151.7,42.8v-4l2.6-0.3c0.7-0.1,0.8-0.2,0.8-1V22.8c0-0.5-0.1-0.9-0.6-1.1l-2.7-0.9l0.6-4.1h10.4v20.8c0,0.8,0,0.9,0.8,1
			l2.6,0.3v4H151.7z M158.2,12.7c-2.9,0-4.5-1.7-4.5-4.5c0-2.9,1.6-4.4,4.5-4.4s4.6,1.5,4.6,4.4C162.7,11.1,161.1,12.7,158.2,12.7z"
			/>
		<path d="M184.6,42.8l-0.5-2.7h-0.2c-1.9,1.8-4.4,3.3-8.4,3.3c-6.3,0-7.3-4.3-7.3-7.4c0-5,3.1-7.3,9.4-7.7l5.8-0.4v-2.8
			c0-2.3-0.2-4-3.4-4c-2.4,0-3.7,0.4-3.7,3.4l-7.1-0.6c0-6.8,6.2-7.7,10.8-7.7c7.6,0,10.7,2,10.7,9.1v12.2c0,0.8,0,0.9,0.8,1
			l2.4,0.4v4L184.6,42.8L184.6,42.8z M183.3,32l-3.4,0.2c-3,0.2-4,1-4,3s1.2,2.8,2.9,2.8s3.4-1,4.6-1.8V32H183.3z"/>
		<path d="M214.1,42.8V26.6c0-2.4-0.1-4.4-2.6-4.4c-1.9,0-4.2,1-5.2,1.8v13.4c0,0.8,0,0.9,0.8,1l2.4,0.3v4h-13.8v-4l2.2-0.3
			c0.7-0.1,0.8-0.2,0.8-1V22.8c0-0.5-0.1-0.9-0.6-1.1l-2.7-0.9l0.6-4.1h8.8l0.4,2.6l0.2,0.1c2.5-1.8,5.4-3.2,8.8-3.2
			c5.5,0,7.6,3,7.6,8.5v12.8c0,0.8,0,0.9,0.8,1l2.5,0.3v4H214.1z"/>
		<path d="M242.5,24.6L242,22c0-0.4-0.1-0.6-0.5-0.7c-0.6-0.2-1.9-0.4-3.2-0.4c-2.5,0-3.9,1-3.9,2.5c0,2.1,2.8,2.5,5.8,3.2
			c4,0.9,8.4,2.3,8.4,8.2c0,6.1-5,8.6-11.3,8.6c-4.6,0-9-1.2-9.9-1.8v-7.2l5.4,0.4l0.5,2.9c0.1,0.5,0.1,0.7,0.6,0.8
			c0.6,0.2,2,0.5,3.9,0.5c2.7,0,4.2-0.8,4.2-2.6c0-2-2-2.6-4.6-3c-4.2-0.8-9.7-1.7-9.7-8.2c0-6.2,5.3-8.8,11.1-8.8
			c4,0,7.8,0.9,9.2,1.5v7.2L242.5,24.6z"/>
		<path d="M261.4,29.9c0-8.3,4.4-13.7,13.5-13.7c9.3,0,12.9,5.5,12.9,13.2c0,8.5-4.3,14-13.5,14C265.1,43.4,261.4,37.8,261.4,29.9z
			 M279.8,29.6c0-5.9-1.8-8-5.1-8c-3.3,0-5.5,2-5.5,8.1c0,6,2,8.5,5.3,8.5C277.8,38.1,279.8,35.9,279.8,29.6z"/>
		<path d="M290.4,42.8v-4l2.8-0.3c0.7-0.1,0.8-0.3,0.8-1.1V22.2c0-0.3,0-0.5-0.4-0.5h-3.4v-5h3.8v-2.8c0-6.8,3.8-9.6,10.7-9.6
			c4.7,0,9,1.2,9,7.2l-7,0.9c0-2.5-0.6-3.2-2.3-3.2c-2.5,0-2.8,1.4-2.8,3.8v3.2c0,0.4,0,0.5,0.4,0.5h7.9v5h-8.3v15.6
			c0,0.8,0.1,1,0.9,1l6.1,0.5v4H290.4z"/>
		<path d="M341.7,41.4c-2.2,1.1-5.3,2-8.2,2c-6,0-8.2-2.4-8.2-8V22.2c0-0.3,0-0.5-0.4-0.5h-3.5v-4.5c4.4-0.5,6.2-2.7,6.7-8.2h4.8
			v7.1c0,0.4,0,0.5,0.4,0.5h7.1v5h-7.5v12c0,3,0.7,4.1,3.4,4.1c1.4,0,2.9-0.4,4.1-0.8L341.7,41.4z"/>
		<path d="M362.6,42.8V26.5c0-1.5-0.1-4.2-2.6-4.2c-1.9,0-4,0.9-5.2,1.8v13.4c0,0.8,0,0.9,0.8,1l2.4,0.3v4h-13.8v-4l2.2-0.3
			c0.7-0.1,0.8-0.2,0.8-1V11.1c0-0.5-0.1-0.9-0.6-1l-2.8-1l0.5-4h10.3v14.2h0.2c2.2-1.8,4.9-3,8-3c5.3,0,7.3,2.9,7.3,8.1v13.2
			c0,0.8,0,0.9,0.8,1l2.5,0.3v4L362.6,42.8L362.6,42.8z"/>
		<path d="M398.6,40.8c-3.1,1.5-6.5,2.5-10.3,2.5c-9.7,0-13-6-13-13.8c0-9,5.6-13.4,12.4-13.4c6.6,0,11,3.5,11,12.1
			c0,0.6-0.1,2.4-0.1,3.4h-15.3c0.2,3.5,1.8,5.9,5.9,5.9c2,0,4-0.5,7.5-1.7L398.6,40.8z M391.3,26.9c0-4.2-1.7-5.3-3.8-5.3
			c-2.1,0-3.9,1.2-4.2,5.3H391.3z"/>
		<path d="M412.2,42.8v-3.9l3.2-0.3c0.7-0.1,0.8-0.2,0.8-1V11.9c0-0.8-0.1-0.9-0.8-1l-3.2-0.3v-4h26.6v10.1l-5.5-0.2l-0.7-3.8
			c-0.1-0.5-0.3-0.7-0.9-0.7h-7.9v9.9h11.7v5.5h-11.7v10.1h9c0.5,0,0.7,0,0.8-0.5l0.8-4.4h5.5v10.3h-27.7V42.8z"/>
		<path d="M474.7,42.8V26.6c0-2-0.2-4.3-2.8-4.3c-1.4,0-2.8,0.5-4,1.3c0.1,0.8,0.2,1.6,0.2,2.5v11.4c0,0.9,0,1,0.8,1.1l2,0.3v4
			h-10.4V26.4c0-1.8-0.2-4-2.7-4c-1.5,0-3.2,0.8-4.2,1.6v13.6c0,0.9,0.1,0.9,0.8,1l2.5,0.3v4H443v-4l2.2-0.3c0.7-0.1,0.8-0.2,0.8-1
			V22.8c0-0.5-0.2-0.9-0.7-1.1l-2.7-0.9l0.5-4.1h8.8l0.4,2.6h0.2c2.2-1.9,4.8-3.2,8-3.2c2.5,0,4.7,0.7,6.1,3c1.7-1.3,4.5-3,8.1-3
			c5.3,0,7.4,2.7,7.4,8.5v12.8c0,0.8,0,1,0.8,1.1l2.5,0.3v4H474.7z"/>
		<path d="M504.2,42.8l-0.5-2.7h-0.3c-1.9,1.8-4.4,3.3-8.4,3.3c-6.3,0-7.3-4.3-7.3-7.4c0-5,3.1-7.3,9.4-7.7l5.8-0.4v-2.8
			c0-2.3-0.2-4-3.4-4c-2.4,0-3.6,0.4-3.6,3.4l-7.1-0.6c0-6.8,6.2-7.7,10.8-7.7c7.6,0,10.7,2,10.7,9.1v12.2c0,0.8,0,0.9,0.8,1
			l2.4,0.4v4L504.2,42.8L504.2,42.8z M502.9,32l-3.4,0.2c-3,0.2-4,1-4,3s1.2,2.8,2.9,2.8c1.7,0,3.4-1,4.5-1.8V32z"/>
		<path d="M515,42.8v-4l2.5-0.3c0.7-0.1,0.8-0.2,0.8-1V22.8c0-0.5-0.2-0.9-0.7-1.1l-2.7-0.9l0.5-4.1h10.4v20.8c0,0.8,0.1,0.9,0.8,1
			l2.5,0.3v4H515z M521.4,12.7c-2.8,0-4.5-1.7-4.5-4.5c0-2.9,1.7-4.4,4.5-4.4c2.9,0,4.6,1.5,4.6,4.4S524.3,12.7,521.4,12.7z"/>
		<path d="M530.8,42.8v-4l2.5-0.3c0.7-0.1,0.8-0.2,0.8-1V11.1c0-0.5-0.2-0.9-0.7-1l-2.8-1l0.5-4h10.4v32.5c0,0.8,0.1,0.9,0.8,1
			l2.5,0.3v4h-14V42.8z"/>
		<path d="M582.8,11.9c0-0.8-0.1-0.9-0.8-1l-3.2-0.3v-4h14.8v4l-3.3,0.4c-0.8,0.1-0.8,0.2-0.8,0.9v18c0,9.5-5.5,13.6-14.3,13.6
			c-10,0-14.2-4.4-14.2-13.8V11.9c0-0.8-0.1-0.9-0.8-1l-3.1-0.3v-4H573v4l-3.3,0.4c-0.8,0.1-0.8,0.2-0.8,0.9v16.4
			c0,5.8,1.3,8.9,6.8,8.9c5.4,0,7.2-2.4,7.2-8.7V11.9H582.8z"/>
		<path d="M613.4,42.8V26.6c0-2.4-0.1-4.4-2.7-4.4c-1.8,0-4.1,1-5.2,1.8v13.4c0,0.8,0.1,0.9,0.8,1l2.4,0.3v4H595v-4l2.2-0.3
			c0.7-0.1,0.8-0.2,0.8-1V22.8c0-0.5-0.2-0.9-0.7-1.1l-2.7-0.9l0.6-4.1h8.8l0.4,2.6l0.2,0.1c2.5-1.8,5.4-3.2,8.8-3.2
			c5.5,0,7.6,3,7.6,8.5v12.8c0,0.8,0,0.9,0.8,1l2.5,0.3v4H613.4z"/>
		<path d="M625.9,42.8v-4l2.5-0.3c0.7-0.1,0.8-0.2,0.8-1V22.8c0-0.5-0.2-0.9-0.7-1.1l-2.7-0.9l0.5-4.1h10.4v20.8
			c0,0.8,0.1,0.9,0.8,1l2.5,0.3v4H625.9z M632.3,12.7c-2.8,0-4.5-1.7-4.5-4.5c0-2.9,1.7-4.4,4.5-4.4c2.9,0,4.6,1.5,4.6,4.4
			C636.9,11.1,635.2,12.7,632.3,12.7z"/>
		<path d="M650.9,42.8l-8-20.7c-0.2-0.6-0.4-0.7-1-0.9l-2.1-0.4l0.8-4.1h13.6v4.1l-3.2,0.4l5.1,14.3h0.3l5.3-14.3l-3.3-0.4l0.7-4.1
			h11.6v4.1l-1.8,0.3c-0.7,0.1-1,0.2-1.2,0.8l-8,20.9H650.9z"/>
		<path d="M694.2,40.8c-3.1,1.5-6.5,2.5-10.3,2.5c-9.7,0-13-6-13-13.8c0-9,5.6-13.4,12.4-13.4c6.6,0,11,3.5,11,12.1
			c0,0.6-0.1,2.4-0.1,3.4H679c0.2,3.5,1.8,5.9,5.9,5.9c2,0,4-0.5,7.5-1.7L694.2,40.8z M687,26.9c0-4.2-1.7-5.3-3.8-5.3
			s-3.9,1.2-4.2,5.3H687z"/>
		<path d="M697.2,42.8v-4l2.2-0.3c0.7-0.1,0.8-0.2,0.8-1V22.8c0-0.5-0.2-0.9-0.7-1.1l-2.7-0.9l0.5-4.1h8.8l0.6,4h0.3
			c1.6-2.5,3.8-4.5,7-4.5c1.2,0,3.5,0.2,4.4,0.5v9.1l-6-0.2l-0.5-2.7c-0.1-0.4-0.2-0.5-0.7-0.5c-1.3,0-2.9,1.1-3.6,1.8v13.3
			c0,0.8,0.1,1,0.8,1l5,0.4v4h-16.2V42.8z"/>
		<path d="M735.9,24.6l-0.5-2.6c-0.1-0.4-0.2-0.6-0.5-0.7c-0.7-0.2-1.9-0.4-3.2-0.4c-2.5,0-3.9,1-3.9,2.5c0,2.1,2.8,2.5,5.8,3.2
			c4,0.9,8.4,2.3,8.4,8.2c0,6.1-5,8.6-11.3,8.6c-4.6,0-9-1.2-9.9-1.8v-7.2l5.4,0.4l0.5,2.9c0,0.5,0.2,0.7,0.6,0.8
			c0.6,0.2,1.9,0.5,3.8,0.5c2.7,0,4.2-0.8,4.2-2.6c0-2-2-2.6-4.5-3c-4.2-0.8-9.7-1.7-9.7-8.2c0-6.2,5.3-8.8,11.1-8.8
			c4,0,7.8,0.9,9.2,1.5v7.2L735.9,24.6z"/>
		<path d="M767.9,40.8c-3.1,1.5-6.5,2.5-10.3,2.5c-9.7,0-13-6-13-13.8c0-9,5.6-13.4,12.4-13.4c6.6,0,11,3.5,11,12.1
			c0,0.6-0.1,2.4-0.1,3.4h-15.3c0.2,3.5,1.8,5.9,5.9,5.9c2,0,4-0.5,7.5-1.7L767.9,40.8z M760.7,26.9c0-4.2-1.7-5.3-3.8-5.3
			s-3.9,1.2-4.2,5.3H760.7z"/>
		<path d="M172.3,109.3c0,2.6,2.5,3.4,5.2,4.2c3.2,0.9,6.6,2,6.6,6.1c0,4.6-3.7,6.4-7.7,6.4c-4.5,0-7.3-1.8-7.9-6.3l2.6-0.4
			c0.5,2.3,1.6,4.3,5.3,4.3c2.3,0,4.8-0.8,4.8-3.7c0-2.7-2.4-3.4-5.1-4.2c-3.2-0.9-6.7-1.8-6.7-6.3c0-3.7,3.1-6,7.3-6
			c3.8,0,6.7,1.5,7.1,6.1l-2.6,0.3c-0.3-2.1-1.2-4.1-4.5-4.1C173.5,105.9,172.3,107.4,172.3,109.3z"/>
		<path d="M204.3,118.2V104h2.7v14.4c0,5.2-2.9,7.6-8.1,7.6c-5.6,0-7.9-2.6-7.9-7.7v-14.4h2.8V118c0,4,1.8,5.6,5.3,5.6
			C202.6,123.7,204.3,122.2,204.3,118.2z"/>
		<path d="M218.4,125.7h-2.7V104h7.1c5.5,0,7.2,3.1,7.2,6.5c0,5.2-3.1,7.3-8.3,7.3h-3.3V125.7z M221.5,115.4c3.1,0,5.6-0.8,5.6-4.8
			c0-3.1-1.7-4.3-5.2-4.3h-3.5v9.1C218.4,115.4,221.5,115.4,221.5,115.4z"/>
		<path d="M239.9,123.3h10.3v2.4h-13.1V104h12.7v2.4h-9.9v7.2h9.3v2.4h-9.3V123.3z"/>
		<path d="M273,125.7h-3l-5-9h-4.9v9h-2.7V104h7.4c5.4,0,7,2.9,7,5.9c0,3.3-1.7,5.2-4.2,6.1L273,125.7z M264.2,114.4
			c2.8,0,4.8-1,4.8-4.3c0-2.9-2-3.7-5.1-3.7h-3.8v8H264.2z"/>
		<path d="M291.3,125.7h-2.7V104h7.1c5.5,0,7.2,3.1,7.2,6.5c0,5.2-3.1,7.3-8.3,7.3h-3.3L291.3,125.7L291.3,125.7z M294.4,115.4
			c3.1,0,5.6-0.8,5.6-4.8c0-3.1-1.7-4.3-5.2-4.3h-3.5v9.1C291.3,115.4,294.4,115.4,294.4,115.4z"/>
		<path d="M308.1,114.8c0-6.5,3.6-11.2,10.2-11.2s9.6,4.8,9.6,10.8c0,7-3.4,11.6-10,11.6C311.1,126.1,308.1,121.3,308.1,114.8z
			 M325.1,114.7c0-5.7-2.7-8.7-6.8-8.7c-4.2,0-7.2,3-7.2,8.8c0,5.9,2.8,8.8,7,8.8C322.1,123.6,325.1,120.8,325.1,114.7z"/>
		<path d="M350.4,125.7l-4.6-17.8l0,0l-4.8,17.8h-3.4l-4.7-21.7h2.9l3.7,18.5l0,0l4.8-18.5h3.1l4.8,18.7l0,0l3.6-18.7h2.8l-4.6,21.7
			H350.4z"/>
		<path d="M367.6,123.3h10.3v2.4h-13.1V104h12.7v2.4h-9.9v7.2h9.3v2.4h-9.3V123.3z"/>
		<path d="M400.7,125.7h-3l-5-9h-4.9v9h-2.7V104h7.4c5.4,0,7,2.9,7,5.9c0,3.3-1.7,5.2-4.2,6.1L400.7,125.7z M391.9,114.4
			c2.8,0,4.8-1,4.8-4.3c0-2.9-2-3.7-5.1-3.7h-3.8v8H391.9z"/>
		<path d="M408.4,109.3c0,2.6,2.5,3.4,5.2,4.2c3.2,0.9,6.6,2,6.6,6.1c0,4.6-3.7,6.4-7.7,6.4c-4.5,0-7.4-1.8-7.9-6.3l2.6-0.4
			c0.5,2.3,1.6,4.3,5.3,4.3c2.3,0,4.8-0.8,4.8-3.7c0-2.7-2.4-3.4-5.1-4.2c-3.2-0.9-6.7-1.8-6.7-6.3c0-3.7,3.1-6,7.3-6
			c3.8,0,6.7,1.5,7.1,6.1l-2.6,0.3c-0.3-2.1-1.2-4.1-4.5-4.1C409.6,105.9,408.4,107.4,408.4,109.3z"/>
		<path d="M452.4,125.7h-3l-5-9h-4.9v9h-2.7V104h7.4c5.4,0,7,2.9,7,5.9c0,3.3-1.7,5.2-4.2,6.1L452.4,125.7z M443.5,114.4
			c2.9,0,4.8-1,4.8-4.3c0-2.9-2-3.7-5.1-3.7h-3.8v8H443.5z"/>
		<path d="M461.3,123.3h10.3v2.4h-13.1V104h12.7v2.4h-9.9v7.2h9.3v2.4h-9.3V123.3z"/>
		<path d="M483.5,125.7l-7.3-21.7h3.1l6.2,19l0,0l5.9-19h2.8l-7,21.7H483.5z"/>
		<path d="M503.1,123.3h10.3v2.4h-13.1V104H513v2.4h-9.9v7.2h9.3v2.4h-9.3L503.1,123.3L503.1,123.3z"/>
		<path d="M529.8,104l7.6,21.7h-3l-2.2-6.5h-8.3l-2.1,6.5H519l7.3-21.7H529.8z M527.9,106.5L527.9,106.5l-3.5,10.4h7L527.9,106.5z"
			/>
		<path d="M547,123.3h9.8v2.4h-12.5V104h2.8L547,123.3L547,123.3z"/>
		<path d="M566.6,123.3h10.3v2.4h-13.1V104h12.7v2.4h-9.9v7.2h9.3v2.4h-9.3V123.3z"/>
		<path d="M584.1,125.7V104h6.7c7.5,0,10.8,4,10.8,10.5c0,6.7-3.5,11.2-11.3,11.2H584.1z M590.3,123.4c5.7,0,8.4-3.2,8.4-8.5
			c0-6.6-3-8.6-8.2-8.6h-3.7v17L590.3,123.4L590.3,123.4z"/>
		<line class="st1" x1="170.4" y1="74.3" x2="370.8" y2="74.3"/>
		<polygon class="st2" points="378.4,91.2 385.4,74.2 378.4,74.2 384.9,58.2 392.4,58.2 388.1,68.2 395.6,68.2 379.5,91.2 		"/>
		<line class="st1" x1="400.4" y1="74.3" x2="600.4" y2="74.3"/>
	</g>
	<g>
		<g>
			<g>
				<path class="st3" d="M36,27.8c-0.6,0-0.8,0.2-0.8,0.7v10.8c-3.8,1.8-8.8,2.4-13,2.4c-13.7,0-18.4-8-18.4-18.8
					C3.9,12.2,10,4.2,22.6,4.2c3.6,0,8.3,0.9,11.3,2.9v9.5l-5.6-0.4l-0.8-4.5c-0.1-0.7-0.4-0.9-0.8-1c-1.2-0.4-3.1-0.7-4.6-0.7
					c-6.5,0-10.3,4.9-10.3,12.8C11.8,31,15.3,36,22.5,36c1.4,0,3-0.2,4.2-0.3c0.5-0.1,0.8-0.2,0.8-0.9v-6.6H22l0.7-4.5H38v4L36,27.8
					z"/>
				<path class="st3" d="M59,41.1l-0.4-2.7h-0.2c-2,1.5-4.6,3.3-8.9,3.3c-5.3,0-7.3-3-7.3-8.8V20.7c0-0.8,0-0.9-0.8-1L39,19.1
					l0.5-4.1h10.3v16.6c0,3.1,0.5,4.2,2.7,4.2s4-1.2,5.2-2.3V20.6c0-0.8-0.1-0.9-0.8-1l-2.1-0.5l0.5-4.1h10v20.8
					c0,0.7,0.1,0.9,0.7,1l2.5,0.4v4H59V41.1z"/>
				<path class="st3" d="M87.3,41.1l-0.5-2.7h-0.2c-1.9,1.8-4.4,3.3-8.4,3.3c-6.3,0-7.3-4.3-7.3-7.4c0-5,3.1-7.3,9.4-7.7l5.8-0.4
					v-2.8c0-2.3-0.2-4-3.4-4c-2.4,0-3.7,0.4-3.7,3.4l-7.1-0.6c0-6.8,6.2-7.7,10.8-7.7c7.6,0,10.7,2,10.7,9.1v12.2c0,0.8,0,0.9,0.8,1
					l2.4,0.4v4L87.3,41.1L87.3,41.1z M85.9,30.3l-3.4,0.2c-3,0.2-4,1-4,3s1.2,2.8,2.9,2.8c1.7,0,3.4-1,4.6-1.8L85.9,30.3L85.9,30.3z
					"/>
				<path class="st3" d="M98.3,41.1v-4l2.2-0.3c0.7-0.1,0.8-0.2,0.8-1V21.1c0-0.5-0.1-0.9-0.6-1.1L98,19.1l0.6-4.1h8.8l0.6,4h0.3
					c1.7-2.5,3.9-4.5,7.1-4.5c1.1,0,3.5,0.2,4.4,0.5v9.1l-6-0.2l-0.5-2.7c-0.1-0.4-0.2-0.5-0.6-0.5c-1.3,0-2.9,1.1-3.6,1.8v13.3
					c0,0.8,0,1,0.8,1l5,0.4v4H98.3V41.1z"/>
				<path class="st3" d="M140.7,41.1l-0.5-2.8l-0.3-0.1c-2.1,2.1-4.6,3.5-8.2,3.5c-5.9,0-9.7-3.8-9.7-13.3c0-10,5.1-13.9,10.6-13.9
					c2.9,0,5.2,1,7.1,2.4V9.3c0-0.5-0.2-0.8-0.7-1l-2.8-1l0.5-4h10.1v32.5c0,0.8,0.1,0.8,0.8,1l2.4,0.3v4H140.7z M139.3,21.8
					c-1.2-0.9-2.9-1.5-4.3-1.5c-3.7,0-5.2,3.5-5.2,7.9c0,4.8,1.4,7.5,4.6,7.5c1.7,0,3.6-1,4.9-2.1V21.8z"/>
				<path class="st3" d="M151.7,41.1v-4l2.6-0.3c0.7-0.1,0.8-0.2,0.8-1V21.1c0-0.5-0.1-0.9-0.6-1.1l-2.7-0.9l0.6-4.1h10.4v20.8
					c0,0.8,0,0.9,0.8,1l2.6,0.3v4H151.7z M158.2,11c-2.9,0-4.5-1.7-4.5-4.5c0-2.9,1.6-4.4,4.5-4.4s4.6,1.5,4.6,4.4
					C162.7,9.4,161.1,11,158.2,11z"/>
				<path class="st3" d="M184.6,41.1l-0.5-2.7h-0.2c-1.9,1.8-4.4,3.3-8.4,3.3c-6.3,0-7.3-4.3-7.3-7.4c0-5,3.1-7.3,9.4-7.7l5.8-0.4
					v-2.8c0-2.3-0.2-4-3.4-4c-2.4,0-3.7,0.4-3.7,3.4l-7.1-0.6c0-6.8,6.2-7.7,10.8-7.7c7.6,0,10.7,2,10.7,9.1v12.2c0,0.8,0,0.9,0.8,1
					l2.4,0.4v4L184.6,41.1L184.6,41.1z M183.3,30.3l-3.4,0.2c-3,0.2-4,1-4,3s1.2,2.8,2.9,2.8s3.4-1,4.6-1.8v-4.2H183.3z"/>
				<path class="st3" d="M214.1,41.1V24.9c0-2.4-0.1-4.4-2.6-4.4c-1.9,0-4.2,1-5.2,1.8v13.4c0,0.8,0,0.9,0.8,1l2.4,0.3v4h-13.8v-4
					l2.2-0.3c0.7-0.1,0.8-0.2,0.8-1V21.1c0-0.5-0.1-0.9-0.6-1.1l-2.7-0.9L196,15h8.8l0.4,2.6l0.2,0.1c2.5-1.8,5.4-3.2,8.8-3.2
					c5.5,0,7.6,3,7.6,8.5v12.8c0,0.8,0,0.9,0.8,1l2.5,0.3v4H214.1z"/>
				<path class="st3" d="M242.5,22.9l-0.5-2.6c0-0.4-0.1-0.6-0.5-0.7c-0.6-0.2-1.9-0.4-3.2-0.4c-2.5,0-3.9,1-3.9,2.5
					c0,2.1,2.8,2.5,5.8,3.2c4,0.9,8.4,2.3,8.4,8.2c0,6.1-5,8.6-11.3,8.6c-4.6,0-9-1.2-9.9-1.8v-7.2l5.4,0.4l0.5,2.9
					c0.1,0.5,0.1,0.7,0.6,0.8c0.6,0.2,2,0.5,3.9,0.5c2.7,0,4.2-0.8,4.2-2.6c0-2-2-2.6-4.6-3c-4.2-0.8-9.7-1.7-9.7-8.2
					c0-6.2,5.3-8.8,11.1-8.8c4,0,7.8,0.9,9.2,1.5v7.2L242.5,22.9z"/>
				<path class="st3" d="M261.4,28.2c0-8.3,4.4-13.7,13.5-13.7c9.3,0,12.9,5.5,12.9,13.2c0,8.5-4.3,14-13.5,14
					C265.1,41.7,261.4,36.1,261.4,28.2z M279.8,27.9c0-5.9-1.8-8-5.1-8c-3.3,0-5.5,2-5.5,8.1c0,6,2,8.5,5.3,8.5
					C277.8,36.4,279.8,34.2,279.8,27.9z"/>
				<path class="st3" d="M290.4,41.1v-4l2.8-0.3c0.7-0.1,0.8-0.3,0.8-1.1V20.5c0-0.3,0-0.5-0.4-0.5h-3.4v-5h3.8v-2.8
					c0-6.8,3.8-9.6,10.7-9.6c4.7,0,9,1.2,9,7.2l-7,0.9c0-2.5-0.6-3.2-2.3-3.2c-2.5,0-2.8,1.4-2.8,3.8v3.2c0,0.4,0,0.5,0.4,0.5h7.9v5
					h-8.3v15.6c0,0.8,0.1,1,0.9,1l6.1,0.5v4H290.4z"/>
				<path class="st3" d="M341.7,39.7c-2.2,1.1-5.3,2-8.2,2c-6,0-8.2-2.4-8.2-8V20.5c0-0.3,0-0.5-0.4-0.5h-3.5v-4.5
					c4.4-0.5,6.2-2.7,6.7-8.2h4.8v7.1c0,0.4,0,0.5,0.4,0.5h7.1v5h-7.5v12c0,3,0.7,4.1,3.4,4.1c1.4,0,2.9-0.4,4.1-0.8L341.7,39.7z"/>
				<path class="st3" d="M362.6,41.1V24.8c0-1.5-0.1-4.2-2.6-4.2c-1.9,0-4,0.9-5.2,1.8v13.4c0,0.8,0,0.9,0.8,1l2.4,0.3v4h-13.8v-4
					l2.2-0.3c0.7-0.1,0.8-0.2,0.8-1V9.4c0-0.5-0.1-0.9-0.6-1l-2.8-1l0.5-4h10.3v14.2h0.2c2.2-1.8,4.9-3,8-3c5.3,0,7.3,2.9,7.3,8.1
					v13.2c0,0.8,0,0.9,0.8,1l2.5,0.3v4L362.6,41.1L362.6,41.1z"/>
				<path class="st3" d="M398.6,39.1c-3.1,1.5-6.5,2.5-10.3,2.5c-9.7,0-13-6-13-13.8c0-9,5.6-13.4,12.4-13.4c6.6,0,11,3.5,11,12.1
					c0,0.6-0.1,2.4-0.1,3.4h-15.3c0.2,3.5,1.8,5.9,5.9,5.9c2,0,4-0.5,7.5-1.7L398.6,39.1z M391.3,25.2c0-4.2-1.7-5.3-3.8-5.3
					c-2.1,0-3.9,1.2-4.2,5.3H391.3z"/>
				<path class="st3" d="M412.2,41.1v-3.9l3.2-0.3c0.7-0.1,0.8-0.2,0.8-1V10.2c0-0.8-0.1-0.9-0.8-1l-3.2-0.3v-4h26.6V15l-5.5-0.2
					l-0.7-3.8c-0.1-0.5-0.3-0.7-0.9-0.7h-7.9v9.9h11.7v5.5h-11.7v10.1h9c0.5,0,0.7,0,0.8-0.5l0.8-4.4h5.5v10.3h-27.7V41.1z"/>
				<path class="st3" d="M474.7,41.1V24.9c0-2-0.2-4.3-2.8-4.3c-1.4,0-2.8,0.5-4,1.3c0.1,0.8,0.2,1.6,0.2,2.5v11.4
					c0,0.9,0,1,0.8,1.1l2,0.3v4h-10.4V24.7c0-1.8-0.2-4-2.7-4c-1.5,0-3.2,0.8-4.2,1.6v13.6c0,0.9,0.1,0.9,0.8,1l2.5,0.3v4H443v-4
					l2.2-0.3c0.7-0.1,0.8-0.2,0.8-1V21.1c0-0.5-0.2-0.9-0.7-1.1l-2.7-0.9l0.5-4.1h8.8l0.4,2.6h0.2c2.2-1.9,4.8-3.2,8-3.2
					c2.5,0,4.7,0.7,6.1,3c1.7-1.3,4.5-3,8.1-3c5.3,0,7.4,2.7,7.4,8.5v12.8c0,0.8,0,1,0.8,1.1l2.5,0.3v4H474.7z"/>
				<path class="st3" d="M504.2,41.1l-0.5-2.7h-0.3c-1.9,1.8-4.4,3.3-8.4,3.3c-6.3,0-7.3-4.3-7.3-7.4c0-5,3.1-7.3,9.4-7.7l5.8-0.4
					v-2.8c0-2.3-0.2-4-3.4-4c-2.4,0-3.6,0.4-3.6,3.4l-7.1-0.6c0-6.8,6.2-7.7,10.8-7.7c7.6,0,10.7,2,10.7,9.1v12.2c0,0.8,0,0.9,0.8,1
					l2.4,0.4v4L504.2,41.1L504.2,41.1z M502.9,30.3l-3.4,0.2c-3,0.2-4,1-4,3s1.2,2.8,2.9,2.8c1.7,0,3.4-1,4.5-1.8V30.3z"/>
				<path class="st3" d="M515,41.1v-4l2.5-0.3c0.7-0.1,0.8-0.2,0.8-1V21.1c0-0.5-0.2-0.9-0.7-1.1l-2.7-0.9l0.5-4.1h10.4v20.8
					c0,0.8,0.1,0.9,0.8,1l2.5,0.3v4H515z M521.4,11c-2.8,0-4.5-1.7-4.5-4.5c0-2.9,1.7-4.4,4.5-4.4c2.9,0,4.6,1.5,4.6,4.4
					S524.3,11,521.4,11z"/>
				<path class="st3" d="M530.8,41.1v-4l2.5-0.3c0.7-0.1,0.8-0.2,0.8-1V9.4c0-0.5-0.2-0.9-0.7-1l-2.8-1l0.5-4h10.4v32.5
					c0,0.8,0.1,0.9,0.8,1l2.5,0.3v4h-14V41.1z"/>
				<path class="st3" d="M582.8,10.2c0-0.8-0.1-0.9-0.8-1l-3.2-0.3v-4h14.8v4l-3.3,0.4c-0.8,0.1-0.8,0.2-0.8,0.9v18
					c0,9.5-5.5,13.6-14.3,13.6c-10,0-14.2-4.4-14.2-13.8V10.2c0-0.8-0.1-0.9-0.8-1l-3.1-0.3v-4H573v4l-3.3,0.4
					c-0.8,0.1-0.8,0.2-0.8,0.9v16.4c0,5.8,1.3,8.9,6.8,8.9c5.4,0,7.2-2.4,7.2-8.7V10.2H582.8z"/>
				<path class="st3" d="M613.4,41.1V24.9c0-2.4-0.1-4.4-2.7-4.4c-1.8,0-4.1,1-5.2,1.8v13.4c0,0.8,0.1,0.9,0.8,1l2.4,0.3v4H595v-4
					l2.2-0.3c0.7-0.1,0.8-0.2,0.8-1V21.1c0-0.5-0.2-0.9-0.7-1.1l-2.7-0.9l0.6-4.1h8.8l0.4,2.6l0.2,0.1c2.5-1.8,5.4-3.2,8.8-3.2
					c5.5,0,7.6,3,7.6,8.5v12.8c0,0.8,0,0.9,0.8,1l2.5,0.3v4H613.4z"/>
				<path class="st3" d="M625.9,41.1v-4l2.5-0.3c0.7-0.1,0.8-0.2,0.8-1V21.1c0-0.5-0.2-0.9-0.7-1.1l-2.7-0.9l0.5-4.1h10.4v20.8
					c0,0.8,0.1,0.9,0.8,1l2.5,0.3v4H625.9z M632.3,11c-2.8,0-4.5-1.7-4.5-4.5c0-2.9,1.7-4.4,4.5-4.4c2.9,0,4.6,1.5,4.6,4.4
					C636.9,9.4,635.2,11,632.3,11z"/>
				<path class="st3" d="M650.9,41.1l-8-20.7c-0.2-0.6-0.4-0.7-1-0.9l-2.1-0.4l0.8-4.1h13.6v4.1l-3.2,0.4l5.1,14.3h0.3l5.3-14.3
					l-3.3-0.4l0.7-4.1h11.6v4.1l-1.8,0.3c-0.7,0.1-1,0.2-1.2,0.8l-8,20.9H650.9z"/>
				<path class="st3" d="M694.2,39.1c-3.1,1.5-6.5,2.5-10.3,2.5c-9.7,0-13-6-13-13.8c0-9,5.6-13.4,12.4-13.4c6.6,0,11,3.5,11,12.1
					c0,0.6-0.1,2.4-0.1,3.4H679c0.2,3.5,1.8,5.9,5.9,5.9c2,0,4-0.5,7.5-1.7L694.2,39.1z M687,25.2c0-4.2-1.7-5.3-3.8-5.3
					s-3.9,1.2-4.2,5.3H687z"/>
				<path class="st3" d="M697.2,41.1v-4l2.2-0.3c0.7-0.1,0.8-0.2,0.8-1V21.1c0-0.5-0.2-0.9-0.7-1.1l-2.7-0.9l0.5-4.1h8.8l0.6,4h0.3
					c1.6-2.5,3.8-4.5,7-4.5c1.2,0,3.5,0.2,4.4,0.5v9.1l-6-0.2l-0.5-2.7c-0.1-0.4-0.2-0.5-0.7-0.5c-1.3,0-2.9,1.1-3.6,1.8v13.3
					c0,0.8,0.1,1,0.8,1l5,0.4v4h-16.2V41.1z"/>
				<path class="st3" d="M735.9,22.9l-0.5-2.6c-0.1-0.4-0.2-0.6-0.5-0.7c-0.7-0.2-1.9-0.4-3.2-0.4c-2.5,0-3.9,1-3.9,2.5
					c0,2.1,2.8,2.5,5.8,3.2c4,0.9,8.4,2.3,8.4,8.2c0,6.1-5,8.6-11.3,8.6c-4.6,0-9-1.2-9.9-1.8v-7.2l5.4,0.4l0.5,2.9
					c0,0.5,0.2,0.7,0.6,0.8c0.6,0.2,1.9,0.5,3.8,0.5c2.7,0,4.2-0.8,4.2-2.6c0-2-2-2.6-4.5-3c-4.2-0.8-9.7-1.7-9.7-8.2
					c0-6.2,5.3-8.8,11.1-8.8c4,0,7.8,0.9,9.2,1.5v7.2L735.9,22.9z"/>
				<path class="st3" d="M767.9,39.1c-3.1,1.5-6.5,2.5-10.3,2.5c-9.7,0-13-6-13-13.8c0-9,5.6-13.4,12.4-13.4c6.6,0,11,3.5,11,12.1
					c0,0.6-0.1,2.4-0.1,3.4h-15.3c0.2,3.5,1.8,5.9,5.9,5.9c2,0,4-0.5,7.5-1.7L767.9,39.1z M760.7,25.2c0-4.2-1.7-5.3-3.8-5.3
					s-3.9,1.2-4.2,5.3H760.7z"/>
			</g>
			<g>
				<path class="st4" d="M172.3,107.6c0,2.6,2.5,3.4,5.2,4.2c3.2,0.9,6.6,2,6.6,6.1c0,4.6-3.7,6.4-7.7,6.4c-4.5,0-7.3-1.8-7.9-6.3
					l2.6-0.4c0.5,2.3,1.6,4.3,5.3,4.3c2.3,0,4.8-0.8,4.8-3.7c0-2.7-2.4-3.4-5.1-4.2c-3.2-0.9-6.7-1.8-6.7-6.3c0-3.7,3.1-6,7.3-6
					c3.8,0,6.7,1.5,7.1,6.1l-2.6,0.3c-0.3-2.1-1.2-4.1-4.5-4.1C173.5,104.2,172.3,105.7,172.3,107.6z"/>
				<path class="st4" d="M204.3,116.5v-14.2h2.7v14.4c0,5.2-2.9,7.6-8.1,7.6c-5.6,0-7.9-2.6-7.9-7.7v-14.4h2.8v14.1
					c0,4,1.8,5.6,5.3,5.6C202.6,122,204.3,120.5,204.3,116.5z"/>
				<path class="st4" d="M218.4,124h-2.7v-21.7h7.1c5.5,0,7.2,3.1,7.2,6.5c0,5.2-3.1,7.3-8.3,7.3h-3.3V124z M221.5,113.7
					c3.1,0,5.6-0.8,5.6-4.8c0-3.1-1.7-4.3-5.2-4.3h-3.5v9.1C218.4,113.7,221.5,113.7,221.5,113.7z"/>
				<path class="st4" d="M239.9,121.6h10.3v2.4h-13.1v-21.7h12.7v2.4h-9.9v7.2h9.3v2.4h-9.3V121.6z"/>
				<path class="st4" d="M273,124h-3l-5-9h-4.9v9h-2.7v-21.7h7.4c5.4,0,7,2.9,7,5.9c0,3.3-1.7,5.2-4.2,6.1L273,124z M264.2,112.7
					c2.8,0,4.8-1,4.8-4.3c0-2.9-2-3.7-5.1-3.7h-3.8v8H264.2z"/>
				<path class="st4" d="M291.3,124h-2.7v-21.7h7.1c5.5,0,7.2,3.1,7.2,6.5c0,5.2-3.1,7.3-8.3,7.3h-3.3L291.3,124L291.3,124z
					 M294.4,113.7c3.1,0,5.6-0.8,5.6-4.8c0-3.1-1.7-4.3-5.2-4.3h-3.5v9.1C291.3,113.7,294.4,113.7,294.4,113.7z"/>
				<path class="st4" d="M308.1,113.1c0-6.5,3.6-11.2,10.2-11.2s9.6,4.8,9.6,10.8c0,7-3.4,11.6-10,11.6
					C311.1,124.4,308.1,119.6,308.1,113.1z M325.1,113c0-5.7-2.7-8.7-6.8-8.7c-4.2,0-7.2,3-7.2,8.8c0,5.9,2.8,8.8,7,8.8
					C322.1,121.9,325.1,119.1,325.1,113z"/>
				<path class="st4" d="M350.4,124l-4.6-17.8l0,0L341,124h-3.4l-4.7-21.7h2.9l3.7,18.5l0,0l4.8-18.5h3.1l4.8,18.7l0,0l3.6-18.7h2.8
					L354,124H350.4z"/>
				<path class="st4" d="M367.6,121.6h10.3v2.4h-13.1v-21.7h12.7v2.4h-9.9v7.2h9.3v2.4h-9.3V121.6z"/>
				<path class="st4" d="M400.7,124h-3l-5-9h-4.9v9h-2.7v-21.7h7.4c5.4,0,7,2.9,7,5.9c0,3.3-1.7,5.2-4.2,6.1L400.7,124z
					 M391.9,112.7c2.8,0,4.8-1,4.8-4.3c0-2.9-2-3.7-5.1-3.7h-3.8v8H391.9z"/>
				<path class="st4" d="M408.4,107.6c0,2.6,2.5,3.4,5.2,4.2c3.2,0.9,6.6,2,6.6,6.1c0,4.6-3.7,6.4-7.7,6.4c-4.5,0-7.4-1.8-7.9-6.3
					l2.6-0.4c0.5,2.3,1.6,4.3,5.3,4.3c2.3,0,4.8-0.8,4.8-3.7c0-2.7-2.4-3.4-5.1-4.2c-3.2-0.9-6.7-1.8-6.7-6.3c0-3.7,3.1-6,7.3-6
					c3.8,0,6.7,1.5,7.1,6.1l-2.6,0.3c-0.3-2.1-1.2-4.1-4.5-4.1C409.6,104.2,408.4,105.7,408.4,107.6z"/>
				<path class="st4" d="M452.4,124h-3l-5-9h-4.9v9h-2.7v-21.7h7.4c5.4,0,7,2.9,7,5.9c0,3.3-1.7,5.2-4.2,6.1L452.4,124z
					 M443.5,112.7c2.9,0,4.8-1,4.8-4.3c0-2.9-2-3.7-5.1-3.7h-3.8v8H443.5z"/>
				<path class="st4" d="M461.3,121.6h10.3v2.4h-13.1v-21.7h12.7v2.4h-9.9v7.2h9.3v2.4h-9.3V121.6z"/>
				<path class="st4" d="M483.5,124l-7.3-21.7h3.1l6.2,19l0,0l5.9-19h2.8l-7,21.7H483.5z"/>
				<path class="st4" d="M503.1,121.6h10.3v2.4h-13.1v-21.7H513v2.4h-9.9v7.2h9.3v2.4h-9.3L503.1,121.6L503.1,121.6z"/>
				<path class="st4" d="M529.8,102.3l7.6,21.7h-3l-2.2-6.5h-8.3l-2.1,6.5H519l7.3-21.7H529.8z M527.9,104.8L527.9,104.8l-3.5,10.4
					h7L527.9,104.8z"/>
				<path class="st4" d="M547,121.6h9.8v2.4h-12.5v-21.7h2.8L547,121.6L547,121.6z"/>
				<path class="st4" d="M566.6,121.6h10.3v2.4h-13.1v-21.7h12.7v2.4h-9.9v7.2h9.3v2.4h-9.3V121.6z"/>
				<path class="st4" d="M584.1,124v-21.7h6.7c7.5,0,10.8,4,10.8,10.5c0,6.7-3.5,11.2-11.3,11.2H584.1z M590.3,121.7
					c5.7,0,8.4-3.2,8.4-8.5c0-6.6-3-8.6-8.2-8.6h-3.7v17L590.3,121.7L590.3,121.7z"/>
			</g>
			<line class="st5" x1="170.4" y1="72.6" x2="370.8" y2="72.6"/>
			<polygon class="st6" points="378.4,89.5 385.4,72.5 378.4,72.5 384.9,56.5 392.4,56.5 388.1,66.5 395.6,66.5 379.5,89.5 			"/>
			<line class="st5" x1="400.4" y1="72.6" x2="600.4" y2="72.6"/>
		</g>
	</g>
</g>
</svg>
