<?xml version="1.0" encoding="utf-8"?>
<!-- Generator: Adobe Illustrator 19.2.1, SVG Export Plug-In . SVG Version: 6.00 Build 0)  -->
<svg version="1.1" id="Layer_1" xmlns="http://www.w3.org/2000/svg" xmlns:xlink="http://www.w3.org/1999/xlink" x="0px" y="0px"
	 width="763px" height="256px" viewBox="0 0 763 256" style="enable-background:new 0 0 763 256;" xml:space="preserve">
<style type="text/css">
	.st0{opacity:0.15;}
	.st1{fill:none;stroke:#000000;stroke-width:2;stroke-miterlimit:10;}
	.st2{fill:none;stroke:#000000;stroke-width:2;stroke-linecap:round;stroke-linejoin:round;stroke-miterlimit:10;}
	.st3{fill:#FFFFFF;}
	.st4{fill:#F4B847;}
	.st5{fill:none;stroke:#F4B847;stroke-width:2;stroke-miterlimit:10;}
	.st6{fill:none;stroke:#F4B847;stroke-width:2;stroke-linecap:round;stroke-linejoin:round;stroke-miterlimit:10;}
</style>
<g>
	<g class="st0">
		<path d="M67,51.1c-1.1,0.1-1.4,0.4-1.4,1.3v19.3C58.8,74.9,49.8,76,42.3,76c-24.6,0-33-14.5-33-33.8C9.2,22.9,20.3,8.6,43,8.6
			c6.5,0,14.8,1.6,20.3,5.2v17l-10-0.7L52,22c-0.3-1.3-0.6-1.6-1.4-1.8c-2.2-0.6-5.5-1.2-8.3-1.2c-11.6,0-18.5,8.8-18.5,22.9
			c0,14.8,6.3,23.7,19.2,23.7c2.4,0,5.4-0.3,7.5-0.6c1-0.2,1.4-0.5,1.4-1.6V51.6h-10l1.3-8.1h27.6v7.2L67,51.1z"/>
		<path d="M110.7,74.9L110,70l-0.5-0.1c-3.7,2.8-8.4,6-16,6c-9.4,0-13-5.4-13-15.8v-22c0-1.4-0.1-1.6-1.4-1.9l-4.4-0.8l0.9-7.4H94
			v29.8c0,5.5,0.9,7.6,4.8,7.6c4,0,7.2-2.2,9.3-4.1V38.1c0-1.4-0.1-1.5-1.4-1.8l-3.9-0.9l1-7.4h17.9v37.4c0,1.2,0.1,1.6,1.3,1.7
			l4.5,0.6v7.2C127.5,74.9,110.7,74.9,110.7,74.9z"/>
		<path d="M163.8,74.9l-0.9-4.9l-0.5-0.1c-3.4,3.3-7.9,6-15.1,6c-11.3,0-13.1-7.7-13.1-13.3c0-9,5.6-13.1,16.8-13.9l10.3-0.7v-4.9
			c0-4.2-0.5-7.1-6-7.1c-4.3,0-6.6,0.6-6.6,6L136,40.9c0-12.1,11.1-13.9,19.3-13.9c13.7,0,19.2,3.7,19.2,16.3v21.9
			c0,1.4,0.1,1.6,1.4,1.8l4.3,0.7v7.1L163.8,74.9L163.8,74.9z M161.4,55.6l-6.1,0.5c-5.3,0.4-7.2,1.7-7.2,5.3s2.2,5,5.1,5
			c3.1,0,6.1-1.7,8.2-3.2V55.6z"/>
		<path d="M186,74.9v-7.3l4-0.5c1.3-0.2,1.4-0.4,1.4-1.8V38.9c0-1-0.3-1.6-1.2-1.9l-4.9-1.7l1-7.3h15.8l1.1,7.2h0.5
			c3-4.6,6.9-8.1,12.7-8.1c2.1,0,6.2,0.4,7.8,0.8v16.4l-10.8-0.4l-0.9-4.8c-0.2-0.8-0.5-1-1.2-1c-2.3,0-5.1,2-6.5,3.2v23.8
			c0,1.4,0.1,1.7,1.4,1.8l8.9,0.7v7.2H186V74.9z"/>
		<path d="M264.5,74.9l-0.9-5l-0.6-0.1c-3.8,3.7-8.2,6.2-14.8,6.2c-10.6,0-17.5-6.8-17.5-23.9c0-18.1,9.1-24.9,19.1-24.9
			c5.2,0,9.3,1.8,12.7,4.3V17.8c0-0.9-0.4-1.5-1.2-1.8l-4.9-1.7l1-7.3h18.1v58.5c0,1.3,0.1,1.5,1.4,1.7l4.3,0.6v7.1
			C281.2,74.9,264.5,74.9,264.5,74.9z M261.9,40.3c-2.2-1.5-5.1-2.7-7.7-2.7c-6.7,0-9.3,6.2-9.3,14.2c0,8.7,2.5,13.6,8.2,13.6
			c3.1,0,6.4-1.8,8.8-3.9V40.3z"/>
		<path d="M286.6,74.9v-7.1l4.6-0.6c1.3-0.2,1.4-0.5,1.4-1.8V38.9c0-1-0.3-1.6-1.2-1.9l-4.9-1.7l1-7.3h18.6v37.4
			c0,1.4,0.1,1.6,1.4,1.8l4.6,0.6v7.1H286.6z M298.2,20.8c-5.1,0-8.1-3-8.1-8.1s3-7.9,8.1-7.9c5.2,0,8.2,2.8,8.2,7.9
			S303.4,20.8,298.2,20.8z"/>
		<path d="M348.1,74.9l-0.9-4.9l-0.5-0.1c-3.4,3.3-7.9,6-15.1,6c-11.3,0-13.1-7.7-13.1-13.3c0-9,5.6-13.1,16.8-13.9l10.3-0.7v-4.9
			c0-4.2-0.5-7.1-6-7.1c-4.3,0-6.6,0.6-6.6,6l-12.7-1.1c0-12.1,11.1-13.9,19.3-13.9c13.7,0,19.2,3.7,19.2,16.3v21.9
			c0,1.4,0.1,1.6,1.4,1.8l4.3,0.7v7.1L348.1,74.9L348.1,74.9z M345.6,55.6l-6.1,0.5c-5.3,0.4-7.2,1.7-7.2,5.3s2.2,5,5.1,5
			c3.1,0,6.1-1.7,8.2-3.2V55.6z"/>
		<path d="M403.4,74.9v-29c0-4.3-0.3-7.9-4.8-7.9c-3.3,0-7.5,1.9-9.4,3.3v24.1c0,1.4,0.1,1.6,1.4,1.8l4.3,0.6v7.1h-24.8v-7.2l4-0.5
			c1.3-0.2,1.4-0.5,1.4-1.8V38.9c0-1-0.3-1.6-1.2-1.9l-4.9-1.7l1.1-7.3h15.7l0.7,4.7l0.4,0.2c4.5-3.3,9.7-5.8,15.8-5.8
			c9.8,0,13.6,5.4,13.6,15.3v23c0,1.4,0.1,1.6,1.4,1.8l4.5,0.6v7.1H403.4z"/>
		<path d="M456.7,42.2l-0.9-4.7c-0.1-0.7-0.3-1.1-0.9-1.3c-1.2-0.4-3.3-0.7-5.8-0.7c-4.5,0-7,1.7-7,4.6c0,3.7,5,4.5,10.4,5.8
			c7.1,1.6,15.1,4.1,15.1,14.7c0,11-8.9,15.5-20.3,15.5c-8.2,0-16.2-2.2-17.8-3.2v-13l9.6,0.7l0.9,5.1c0.1,0.8,0.3,1.2,1.1,1.3
			c1.1,0.4,3.5,0.9,6.9,0.9c4.8,0,7.5-1.4,7.5-4.7c0-3.6-3.6-4.7-8.2-5.5c-7.6-1.3-17.5-3-17.5-14.8c0-11.2,9.5-15.7,19.9-15.7
			c7.1,0,14,1.6,16.6,2.6v13L456.7,42.2z"/>
		<path d="M495.2,51.8c0-14.9,7.8-24.7,24.3-24.7c16.6,0,23.1,9.9,23.1,23.7c0,15.3-7.7,25.2-24.3,25.2
			C501.9,76,495.2,65.9,495.2,51.8z M528.4,51.3c0-10.6-3.2-14.4-9.1-14.4c-5.9,0-9.9,3.7-9.9,14.5c0,10.9,3.5,15.2,9.5,15.2
			C524.8,66.6,528.4,62.5,528.4,51.3z"/>
		<path d="M549.8,74.9v-7.2l5-0.5c1.3-0.2,1.4-0.5,1.4-1.9V37.9c0-0.5,0-0.9-0.7-0.9h-6v-9h6.7v-5c0-12.1,6.8-17.2,19.3-17.2
			c8.4,0,16.1,2.1,16.1,13L579,20.4c0.1-4.6-1.2-5.7-4.1-5.7c-4.5,0-5,2.4-5,6.8v5.7c0,0.6,0,0.9,0.7,0.9h14.2v9h-14.9v28
			c0,1.4,0.3,1.7,1.6,1.8l11,1V75L549.8,74.9L549.8,74.9z"/>
		<path d="M646.5,72.4c-3.9,1.9-9.5,3.6-14.7,3.6c-10.7,0-14.8-4.3-14.8-14.5V37.9c0-0.5,0-0.9-0.7-0.9H610v-8
			c7.9-0.9,11.1-4.9,12.1-14.7h8.5v12.8c0,0.6,0,0.9,0.7,0.9H644v9h-13.4v21.5c0,5.3,1.3,7.4,6.1,7.4c2.5,0,5.1-0.6,7.3-1.4
			L646.5,72.4z"/>
		<path d="M686.4,74.9V45.6c0-2.7-0.3-7.6-4.8-7.6c-3.3,0-7.1,1.7-9.4,3.3v24.1c0,1.4,0.1,1.6,1.4,1.8l4.3,0.6v7.1h-24.8v-7.1l4-0.6
			c1.3-0.2,1.4-0.5,1.4-1.8V17.9c0-1-0.3-1.6-1.2-1.9l-5-1.7l1-7.3h18.5v25.4l0.5,0.1c4-3.3,8.7-5.4,14.4-5.4c9.5,0,13,5.2,13,14.6
			v23.7c0,1.4,0.1,1.6,1.4,1.8l4.5,0.6v7.1H686.4z"/>
		<path d="M753.4,71.4c-5.6,2.7-11.7,4.6-18.4,4.6c-17.4,0-23.3-10.8-23.3-24.8c0-16.3,10-24,22.3-24c11.9,0,19.8,6.2,19.8,21.8
			c0,1.1-0.1,4.2-0.2,6h-27.5c0.5,6.4,3.2,10.6,10.6,10.6c3.5,0,7.3-0.8,13.4-3.1L753.4,71.4z M740.5,46.4c-0.1-7.6-3.1-9.5-6.7-9.5
			c-3.9,0-7,2.2-7.6,9.5H740.5z"/>
		<path d="M46.9,164.9v-7l5.7-0.6c1.3-0.2,1.4-0.5,1.4-1.8v-46.2c0-1.3-0.2-1.7-1.4-1.8l-5.7-0.6v-7.1h47.9V118l-9.9-0.4l-1.3-6.8
			c-0.2-0.9-0.5-1.2-1.5-1.2H68v17.7h21v10H68v18.1h16.1c1,0,1.3-0.1,1.4-1l1.5-8h9.8v18.5H46.9z"/>
		<path d="M161.5,164.9v-29.1c0-3.5-0.4-7.7-5-7.7c-2.5,0-4.9,0.9-7.3,2.4c0.2,1.4,0.3,2.9,0.3,4.4v20.5c0,1.5,0.1,1.7,1.4,1.9
			l3.6,0.5v7.1h-18.6v-29.5c0-3.3-0.3-7.3-4.8-7.3c-2.7,0-5.7,1.3-7.5,2.9v24.4c0,1.5,0.1,1.5,1.4,1.8l4.4,0.6v7.1h-24.9v-7.1l4-0.6
			c1.3-0.2,1.4-0.5,1.4-1.8v-26.5c0-1-0.3-1.6-1.2-1.9l-4.9-1.7l1-7.3h15.8l0.7,4.7l0.5,0.1c4-3.3,8.6-5.7,14.4-5.7
			c4.4,0,8.5,1.2,11,5.4c3-2.3,8.2-5.4,14.5-5.4c9.6,0,13.2,4.8,13.2,15.2v23c0,1.4,0.1,1.7,1.4,1.9l4.5,0.5v7.1h-19.3V164.9z"/>
		<path d="M217,164.9l-0.9-4.9l-0.5-0.1c-3.4,3.3-7.9,6-15.1,6c-11.3,0-13.1-7.7-13.1-13.3c0-9,5.6-13.1,16.8-13.9l10.3-0.7v-4.9
			c0-4.2-0.5-7.1-6-7.1c-4.3,0-6.6,0.6-6.6,6l-12.7-1.1c0-12.1,11.1-13.9,19.3-13.9c13.7,0,19.2,3.7,19.2,16.3v21.9
			c0,1.4,0.1,1.6,1.4,1.8l4.3,0.7v7.1H217V164.9z M214.6,145.6l-6.1,0.5c-5.3,0.4-7.2,1.7-7.2,5.3s2.2,5,5.1,5
			c3.1,0,6.1-1.7,8.2-3.2V145.6z"/>
		<path d="M238.6,164.9v-7.1l4.6-0.6c1.3-0.2,1.4-0.5,1.4-1.8v-26.5c0-1-0.3-1.6-1.2-1.9l-4.9-1.7l1-7.3h18.6v37.4
			c0,1.4,0.1,1.6,1.4,1.8l4.6,0.6v7.1L238.6,164.9L238.6,164.9z M250.2,110.8c-5.1,0-8.1-3-8.1-8.1s3-7.9,8.1-7.9
			c5.2,0,8.2,2.8,8.2,7.9S255.5,110.8,250.2,110.8z"/>
		<path d="M269.4,164.9v-7.1l4.5-0.6c1.3-0.2,1.4-0.5,1.4-1.8v-47.5c0-1-0.3-1.6-1.2-1.9l-4.9-1.7l1-7.3h18.7v58.4
			c0,1.4,0.1,1.6,1.4,1.8l4.4,0.6v7.1L269.4,164.9L269.4,164.9z"/>
		<path d="M367.5,109.3c0-1.3-0.2-1.7-1.4-1.8l-5.7-0.6v-7.1H387v7.1l-6,0.7c-1.4,0.2-1.4,0.4-1.4,1.7v32.3
			c0,17.1-9.8,24.4-25.6,24.4c-17.9,0-25.6-7.9-25.6-24.7v-31.9c0-1.3-0.2-1.7-1.4-1.8l-5.6-0.6v-7.1h28.4v7.1l-6,0.7
			c-1.4,0.2-1.4,0.4-1.4,1.7v29.4c0,10.3,2.3,15.9,12.1,15.9c9.6,0,13-4.2,13-15.6V109.3z"/>
		<path d="M424.8,164.9v-29.1c0-4.3-0.3-7.9-4.8-7.9c-3.3,0-7.5,1.9-9.4,3.3v24.2c0,1.4,0.1,1.6,1.4,1.8l4.3,0.6v7.1h-24.8v-7.2
			l4-0.5c1.3-0.2,1.4-0.5,1.4-1.8v-26.5c0-1-0.3-1.6-1.2-1.9l-4.9-1.7l1.1-7.3h15.7l0.7,4.7l0.4,0.2c4.5-3.3,9.7-5.8,15.8-5.8
			c9.8,0,13.6,5.4,13.6,15.3v23c0,1.4,0.1,1.6,1.4,1.8l4.5,0.6v7.1L424.8,164.9L424.8,164.9z"/>
		<path d="M449.5,164.9v-7.1l4.6-0.6c1.3-0.2,1.4-0.5,1.4-1.8v-26.5c0-1-0.3-1.6-1.2-1.9l-4.9-1.7l1-7.3H469v37.4
			c0,1.4,0.1,1.6,1.4,1.8l4.6,0.6v7.1L449.5,164.9L449.5,164.9z M461.1,110.8c-5.1,0-8.1-3-8.1-8.1s3-7.9,8.1-7.9
			c5.2,0,8.2,2.8,8.2,7.9S466.3,110.8,461.1,110.8z"/>
		<path d="M496.8,164.9l-14.3-37.3c-0.4-1.1-0.8-1.3-1.9-1.5l-3.8-0.8l1.4-7.3h24.4v7.3l-5.8,0.7l9.2,25.6h0.6l9.5-25.6l-5.8-0.7
			l1.2-7.3h20.8v7.3l-3.2,0.5c-1.2,0.3-1.8,0.5-2.2,1.5l-14.3,37.5h-15.8V164.9z"/>
		<path d="M577,161.4c-5.6,2.7-11.7,4.6-18.4,4.6c-17.4,0-23.3-10.8-23.3-24.8c0-16.3,10-24,22.3-24c11.9,0,19.8,6.2,19.8,21.8
			c0,1.1-0.1,4.2-0.2,6h-27.5c0.5,6.4,3.2,10.6,10.6,10.6c3.5,0,7.3-0.8,13.4-3.1L577,161.4z M564.1,136.4c-0.1-7.6-3.1-9.5-6.8-9.5
			c-3.9,0-7,2.2-7.6,9.5H564.1z"/>
		<path d="M584.7,164.9v-7.3l4-0.5c1.3-0.2,1.4-0.4,1.4-1.8v-26.4c0-1-0.3-1.6-1.2-1.9l-4.9-1.7l1-7.3h16l1.1,7.2h0.5
			c3-4.6,6.9-8.1,12.7-8.1c2.1,0,6.2,0.4,7.8,0.8v16.4l-10.8-0.4l-0.9-4.8c-0.2-0.8-0.4-1-1.2-1c-2.3,0-5.1,2-6.5,3.2v23.8
			c0,1.4,0.1,1.7,1.4,1.8l8.9,0.7v7.2h-29.3V164.9z"/>
		<path d="M656.6,132.2l-0.9-4.7c-0.1-0.7-0.3-1.1-0.9-1.3c-1.2-0.4-3.3-0.7-5.8-0.7c-4.5,0-7,1.7-7,4.6c0,3.7,4.9,4.5,10.4,5.8
			c7.1,1.6,15.1,4.1,15.1,14.7c0,11-8.9,15.5-20.3,15.5c-8.2,0-16.2-2.2-17.8-3.2v-13l9.6,0.7l0.9,5.1c0.1,0.8,0.3,1.2,1.1,1.3
			c1.1,0.4,3.5,0.9,6.9,0.9c4.8,0,7.5-1.4,7.5-4.7c0-3.6-3.6-4.7-8.2-5.5c-7.6-1.3-17.5-3-17.5-14.8c0-11.2,9.5-15.7,19.9-15.7
			c7.1,0,14,1.6,16.6,2.6v13L656.6,132.2z"/>
		<path d="M716.4,161.4c-5.6,2.7-11.7,4.6-18.4,4.6c-17.4,0-23.3-10.8-23.3-24.8c0-16.3,10-24,22.3-24c11.9,0,19.8,6.2,19.8,21.8
			c0,1.1-0.1,4.2-0.2,6h-27.5c0.5,6.4,3.2,10.6,10.6,10.6c3.5,0,7.3-0.8,13.4-3.1L716.4,161.4z M703.5,136.4
			c-0.1-7.6-3.1-9.5-6.8-9.5c-3.9,0-7,2.2-7.6,9.5H703.5z"/>
		<path d="M167.8,237.2c0,2.6,2.5,3.4,5.2,4.2c3.2,0.9,6.6,2,6.6,6.1c0,4.6-3.7,6.4-7.7,6.4c-4.5,0-7.3-1.8-7.9-6.3l2.6-0.4
			c0.5,2.3,1.6,4.3,5.3,4.3c2.3,0,4.8-0.8,4.8-3.7c0-2.7-2.4-3.4-5.1-4.2c-3.2-0.9-6.7-1.8-6.7-6.3c0-3.7,3.1-6,7.3-6
			c3.8,0,6.7,1.5,7.1,6.1l-2.6,0.3c-0.3-2.1-1.2-4.1-4.5-4.1C169,233.9,167.8,235.3,167.8,237.2z"/>
		<path d="M199.8,246.1v-14.2h2.7v14.4c0,5.2-2.9,7.6-8.1,7.6c-5.6,0-7.9-2.6-7.9-7.7v-14.4h2.8v14.1c0,4,1.8,5.6,5.3,5.6
			C198.1,251.6,199.8,250.2,199.8,246.1z"/>
		<path d="M213.9,253.6h-2.7v-21.7h7.1c5.5,0,7.2,3.1,7.2,6.5c0,5.2-3.1,7.3-8.3,7.3h-3.3V253.6z M217,243.4c3.1,0,5.6-0.8,5.6-4.8
			c0-3.1-1.7-4.3-5.2-4.3h-3.5v9.1H217z"/>
		<path d="M235.4,251.2h10.3v2.4h-13.1v-21.7h12.7v2.4h-9.9v7.2h9.3v2.4h-9.3V251.2z"/>
		<path d="M268.5,253.6h-3l-5-9h-4.9v9h-2.7v-21.7h7.4c5.4,0,7,2.9,7,5.9c0,3.3-1.7,5.2-4.2,6.1L268.5,253.6z M259.7,242.3
			c2.8,0,4.8-1,4.8-4.3c0-2.9-2-3.7-5.1-3.7h-3.8v8H259.7z"/>
		<path d="M286.8,253.6h-2.7v-21.7h7.1c5.5,0,7.2,3.1,7.2,6.5c0,5.2-3.1,7.3-8.3,7.3h-3.3L286.8,253.6L286.8,253.6z M289.9,243.4
			c3.1,0,5.6-0.8,5.6-4.8c0-3.1-1.7-4.3-5.2-4.3h-3.5v9.1H289.9z"/>
		<path d="M303.6,242.8c0-6.5,3.6-11.2,10.2-11.2s9.6,4.8,9.6,10.8c0,7-3.4,11.6-10,11.6C306.6,254,303.6,249.3,303.6,242.8z
			 M320.6,242.6c0-5.7-2.7-8.7-6.8-8.7c-4.2,0-7.2,3-7.2,8.8c0,5.9,2.8,8.8,7,8.8C317.6,251.6,320.6,248.8,320.6,242.6z"/>
		<path d="M345.9,253.6l-4.6-17.8l0,0l-4.7,17.8h-3.4l-4.7-21.7h2.9l3.7,18.5l0,0l4.8-18.5h3.1l4.8,18.7l0,0l3.6-18.7h2.8l-4.6,21.7
			H345.9z"/>
		<path d="M363.1,251.2h10.3v2.4h-13.1v-21.7H373v2.4h-9.9v7.2h9.3v2.4h-9.3V251.2z"/>
		<path d="M396.2,253.6h-3l-5-9h-4.9v9h-2.7v-21.7h7.4c5.4,0,7,2.9,7,5.9c0,3.3-1.7,5.2-4.2,6.1L396.2,253.6z M387.4,242.3
			c2.8,0,4.8-1,4.8-4.3c0-2.9-2-3.7-5.1-3.7h-3.8v8H387.4z"/>
		<path d="M403.9,237.2c0,2.6,2.5,3.4,5.2,4.2c3.2,0.9,6.6,2,6.6,6.1c0,4.6-3.7,6.4-7.7,6.4c-4.5,0-7.4-1.8-7.9-6.3l2.6-0.4
			c0.5,2.3,1.6,4.3,5.3,4.3c2.3,0,4.8-0.8,4.8-3.7c0-2.7-2.4-3.4-5.1-4.2c-3.2-0.9-6.7-1.8-6.7-6.3c0-3.7,3.1-6,7.3-6
			c3.8,0,6.7,1.5,7.1,6.1l-2.6,0.3c-0.3-2.1-1.2-4.1-4.5-4.1C405.1,233.9,403.9,235.3,403.9,237.2z"/>
		<path d="M447.9,253.6h-3l-5-9H435v9h-2.7v-21.7h7.4c5.4,0,7,2.9,7,5.9c0,3.3-1.7,5.2-4.2,6.1L447.9,253.6z M439,242.3
			c2.9,0,4.8-1,4.8-4.3c0-2.9-2-3.7-5.1-3.7H435v8H439z"/>
		<path d="M456.8,251.2h10.3v2.4H454v-21.7h12.7v2.4h-9.9v7.2h9.3v2.4h-9.3L456.8,251.2L456.8,251.2z"/>
		<path d="M479,253.6l-7.3-21.7h3.1l6.2,19l0,0l5.9-19h2.8l-7,21.7H479z"/>
		<path d="M498.6,251.2H509v2.4h-13.1v-21.7h12.7v2.4h-9.9v7.2h9.3v2.4h-9.3v7.3H498.6z"/>
		<path d="M525.3,231.9l7.6,21.7h-3l-2.2-6.5h-8.3l-2.1,6.5h-2.8l7.3-21.7H525.3z M523.4,234.4L523.4,234.4l-3.5,10.4h7L523.4,234.4
			z"/>
		<path d="M542.5,251.2h9.8v2.4h-12.5v-21.7h2.8L542.5,251.2L542.5,251.2z"/>
		<path d="M562.1,251.2h10.3v2.4h-13.1v-21.7H572v2.4h-9.9v7.2h9.3v2.4h-9.3V251.2z"/>
		<path d="M579.6,253.6v-21.7h6.7c7.5,0,10.8,4,10.8,10.5c0,6.7-3.5,11.2-11.3,11.2H579.6z M585.8,251.3c5.7,0,8.4-3.2,8.4-8.5
			c0-6.6-3-8.6-8.2-8.6h-3.7v17h3.5V251.3z"/>
		<line class="st1" x1="164.9" y1="202.2" x2="366.3" y2="202.2"/>
		<polygon class="st2" points="373.9,219.4 380.9,202.4 373.9,202.4 380.4,186.4 387.9,186.4 383.6,196.4 391.1,196.4 375,219.4 		
			"/>
		<line class="st1" x1="396.9" y1="202.2" x2="596.9" y2="202.2"/>
	</g>
	<g>
		<g>
			<g>
				<path class="st3" d="M67,49.7c-1.1,0.1-1.4,0.4-1.4,1.3v19.3c-6.8,3.2-15.8,4.3-23.3,4.3c-24.6,0-33-14.5-33-33.8
					C9.2,21.5,20.3,7.2,43,7.2c6.5,0,14.8,1.6,20.3,5.2v17l-10-0.7L52,20.6c-0.3-1.3-0.6-1.6-1.4-1.8c-2.2-0.6-5.5-1.2-8.3-1.2
					c-11.6,0-18.5,8.8-18.5,22.9c0,14.8,6.3,23.7,19.2,23.7c2.4,0,5.4-0.3,7.5-0.6c1-0.2,1.4-0.5,1.4-1.6V50.2h-10l1.3-8.1h27.6v7.2
					L67,49.7z"/>
				<path class="st3" d="M110.7,73.5l-0.7-4.9l-0.5-0.1c-3.7,2.8-8.4,6-16,6c-9.4,0-13-5.4-13-15.8v-22c0-1.4-0.1-1.6-1.4-1.9
					L74.7,34l0.9-7.4H94v29.8c0,5.5,0.9,7.6,4.8,7.6c4,0,7.2-2.2,9.3-4.1V36.7c0-1.4-0.1-1.5-1.4-1.8l-3.9-0.9l1-7.4h17.9V64
					c0,1.2,0.1,1.6,1.3,1.7l4.5,0.6v7.2C127.5,73.5,110.7,73.5,110.7,73.5z"/>
				<path class="st3" d="M163.8,73.5l-0.9-4.9l-0.5-0.1c-3.4,3.3-7.9,6-15.1,6c-11.3,0-13.1-7.7-13.1-13.3c0-9,5.6-13.1,16.8-13.9
					l10.3-0.7v-4.9c0-4.2-0.5-7.1-6-7.1c-4.3,0-6.6,0.6-6.6,6L136,39.5c0-12.1,11.1-13.9,19.3-13.9c13.7,0,19.2,3.7,19.2,16.3v21.9
					c0,1.4,0.1,1.6,1.4,1.8l4.3,0.7v7.1L163.8,73.5L163.8,73.5z M161.4,54.2l-6.1,0.5c-5.3,0.4-7.2,1.7-7.2,5.3s2.2,5,5.1,5
					c3.1,0,6.1-1.7,8.2-3.2V54.2z"/>
				<path class="st3" d="M186,73.5v-7.3l4-0.5c1.3-0.2,1.4-0.4,1.4-1.8V37.5c0-1-0.3-1.6-1.2-1.9l-4.9-1.7l1-7.3h15.8l1.1,7.2h0.5
					c3-4.6,6.9-8.1,12.7-8.1c2.1,0,6.2,0.4,7.8,0.8v16.4l-10.8-0.4l-0.9-4.8c-0.2-0.8-0.5-1-1.2-1c-2.3,0-5.1,2-6.5,3.2v23.8
					c0,1.4,0.1,1.7,1.4,1.8l8.9,0.7v7.2H186V73.5z"/>
				<path class="st3" d="M264.5,73.5l-0.9-5l-0.6-0.1c-3.8,3.7-8.2,6.2-14.8,6.2c-10.6,0-17.5-6.8-17.5-23.9
					c0-18.1,9.1-24.9,19.1-24.9c5.2,0,9.3,1.8,12.7,4.3V16.4c0-0.9-0.4-1.5-1.2-1.8l-4.9-1.7l1-7.3h18.1v58.5c0,1.3,0.1,1.5,1.4,1.7
					l4.3,0.6v7.1C281.2,73.5,264.5,73.5,264.5,73.5z M261.9,38.9c-2.2-1.5-5.1-2.7-7.7-2.7c-6.7,0-9.3,6.2-9.3,14.2
					c0,8.7,2.5,13.6,8.2,13.6c3.1,0,6.4-1.8,8.8-3.9V38.9z"/>
				<path class="st3" d="M286.6,73.5v-7.1l4.6-0.6c1.3-0.2,1.4-0.5,1.4-1.8V37.5c0-1-0.3-1.6-1.2-1.9l-4.9-1.7l1-7.3h18.6V64
					c0,1.4,0.1,1.6,1.4,1.8l4.6,0.6v7.1H286.6z M298.2,19.4c-5.1,0-8.1-3-8.1-8.1s3-7.9,8.1-7.9c5.2,0,8.2,2.8,8.2,7.9
					S303.4,19.4,298.2,19.4z"/>
				<path class="st3" d="M348.1,73.5l-0.9-4.9l-0.5-0.1c-3.4,3.3-7.9,6-15.1,6c-11.3,0-13.1-7.7-13.1-13.3c0-9,5.6-13.1,16.8-13.9
					l10.3-0.7v-4.9c0-4.2-0.5-7.1-6-7.1c-4.3,0-6.6,0.6-6.6,6l-12.7-1.1c0-12.1,11.1-13.9,19.3-13.9c13.7,0,19.2,3.7,19.2,16.3v21.9
					c0,1.4,0.1,1.6,1.4,1.8l4.3,0.7v7.1L348.1,73.5L348.1,73.5z M345.6,54.2l-6.1,0.5c-5.3,0.4-7.2,1.7-7.2,5.3s2.2,5,5.1,5
					c3.1,0,6.1-1.7,8.2-3.2V54.2z"/>
				<path class="st3" d="M403.4,73.5v-29c0-4.3-0.3-7.9-4.8-7.9c-3.3,0-7.5,1.9-9.4,3.3V64c0,1.4,0.1,1.6,1.4,1.8l4.3,0.6v7.1h-24.8
					v-7.2l4-0.5c1.3-0.2,1.4-0.5,1.4-1.8V37.5c0-1-0.3-1.6-1.2-1.9l-4.9-1.7l1.1-7.3h15.7l0.7,4.7l0.4,0.2c4.5-3.3,9.7-5.8,15.8-5.8
					c9.8,0,13.6,5.4,13.6,15.3v23c0,1.4,0.1,1.6,1.4,1.8l4.5,0.6v7.1H403.4z"/>
				<path class="st3" d="M456.7,40.8l-0.9-4.7c-0.1-0.7-0.3-1.1-0.9-1.3c-1.2-0.4-3.3-0.7-5.8-0.7c-4.5,0-7,1.7-7,4.6
					c0,3.7,5,4.5,10.4,5.8c7.1,1.6,15.1,4.1,15.1,14.7c0,11-8.9,15.5-20.3,15.5c-8.2,0-16.2-2.2-17.8-3.2v-13l9.6,0.7l0.9,5.1
					c0.1,0.8,0.3,1.2,1.1,1.3c1.1,0.4,3.5,0.9,6.9,0.9c4.8,0,7.5-1.4,7.5-4.7c0-3.6-3.6-4.7-8.2-5.5c-7.6-1.3-17.5-3-17.5-14.8
					c0-11.2,9.5-15.7,19.9-15.7c7.1,0,14,1.6,16.6,2.6v13L456.7,40.8z"/>
				<path class="st3" d="M495.2,50.4c0-14.9,7.8-24.7,24.3-24.7c16.6,0,23.1,9.9,23.1,23.7c0,15.3-7.7,25.2-24.3,25.2
					C501.9,74.6,495.2,64.5,495.2,50.4z M528.4,49.9c0-10.6-3.2-14.4-9.1-14.4c-5.9,0-9.9,3.7-9.9,14.5c0,10.9,3.5,15.2,9.5,15.2
					C524.8,65.2,528.4,61.1,528.4,49.9z"/>
				<path class="st3" d="M549.8,73.5v-7.2l5-0.5c1.3-0.2,1.4-0.5,1.4-1.9V36.5c0-0.5,0-0.9-0.7-0.9h-6v-9h6.7v-5
					c0-12.1,6.8-17.2,19.3-17.2c8.4,0,16.1,2.1,16.1,13L579,19c0.1-4.6-1.2-5.7-4.1-5.7c-4.5,0-5,2.4-5,6.8v5.7c0,0.6,0,0.9,0.7,0.9
					h14.2v9h-14.9v28c0,1.4,0.3,1.7,1.6,1.8l11,1v7.1L549.8,73.5L549.8,73.5z"/>
				<path class="st3" d="M646.5,71c-3.9,1.9-9.5,3.6-14.7,3.6c-10.7,0-14.8-4.3-14.8-14.5V36.5c0-0.5,0-0.9-0.7-0.9H610v-8
					c7.9-0.9,11.1-4.9,12.1-14.7h8.5v12.8c0,0.6,0,0.9,0.7,0.9H644v9h-13.4v21.5c0,5.3,1.3,7.4,6.1,7.4c2.5,0,5.1-0.6,7.3-1.4
					L646.5,71z"/>
				<path class="st3" d="M686.4,73.5V44.2c0-2.7-0.3-7.6-4.8-7.6c-3.3,0-7.1,1.7-9.4,3.3V64c0,1.4,0.1,1.6,1.4,1.8l4.3,0.6v7.1
					h-24.8v-7.1l4-0.6c1.3-0.2,1.4-0.5,1.4-1.8V16.5c0-1-0.3-1.6-1.2-1.9l-5-1.7l1-7.3h18.5V31l0.5,0.1c4-3.3,8.7-5.4,14.4-5.4
					c9.5,0,13,5.2,13,14.6V64c0,1.4,0.1,1.6,1.4,1.8l4.5,0.6v7.1H686.4z"/>
				<path class="st3" d="M753.4,70c-5.6,2.7-11.7,4.6-18.4,4.6c-17.4,0-23.3-10.8-23.3-24.8c0-16.3,10-24,22.3-24
					c11.9,0,19.8,6.2,19.8,21.8c0,1.1-0.1,4.2-0.2,6h-27.5c0.5,6.4,3.2,10.6,10.6,10.6c3.5,0,7.3-0.8,13.4-3.1L753.4,70z M740.5,45
					c-0.1-7.6-3.1-9.5-6.7-9.5c-3.9,0-7,2.2-7.6,9.5H740.5z"/>
				<path class="st3" d="M46.9,163.5v-7l5.7-0.6c1.3-0.2,1.4-0.5,1.4-1.8v-46.2c0-1.3-0.2-1.7-1.4-1.8l-5.7-0.6v-7.1h47.9v18.2
					l-9.9-0.4l-1.3-6.8c-0.2-0.9-0.5-1.2-1.5-1.2H68v17.7h21v10H68V154h16.1c1,0,1.3-0.1,1.4-1l1.5-8h9.8v18.5H46.9z"/>
				<path class="st3" d="M161.5,163.5v-29.1c0-3.5-0.4-7.7-5-7.7c-2.5,0-4.9,0.9-7.3,2.4c0.2,1.4,0.3,2.9,0.3,4.4V154
					c0,1.5,0.1,1.7,1.4,1.9l3.6,0.5v7.1h-18.6V134c0-3.3-0.3-7.3-4.8-7.3c-2.7,0-5.7,1.3-7.5,2.9V154c0,1.5,0.1,1.5,1.4,1.8l4.4,0.6
					v7.1h-24.9v-7.1l4-0.6c1.3-0.2,1.4-0.5,1.4-1.8v-26.5c0-1-0.3-1.6-1.2-1.9l-4.9-1.7l1-7.3h15.8l0.7,4.7l0.5,0.1
					c4-3.3,8.6-5.7,14.4-5.7c4.4,0,8.5,1.2,11,5.4c3-2.3,8.2-5.4,14.5-5.4c9.6,0,13.2,4.8,13.2,15.2v23c0,1.4,0.1,1.7,1.4,1.9
					l4.5,0.5v7.1h-19.3V163.5z"/>
				<path class="st3" d="M217,163.5l-0.9-4.9l-0.5-0.1c-3.4,3.3-7.9,6-15.1,6c-11.3,0-13.1-7.7-13.1-13.3c0-9,5.6-13.1,16.8-13.9
					l10.3-0.7v-4.9c0-4.2-0.5-7.1-6-7.1c-4.3,0-6.6,0.6-6.6,6l-12.7-1.1c0-12.1,11.1-13.9,19.3-13.9c13.7,0,19.2,3.7,19.2,16.3v21.9
					c0,1.4,0.1,1.6,1.4,1.8l4.3,0.7v7.1H217V163.5z M214.6,144.2l-6.1,0.5c-5.3,0.4-7.2,1.7-7.2,5.3s2.2,5,5.1,5
					c3.1,0,6.1-1.7,8.2-3.2V144.2z"/>
				<path class="st3" d="M238.6,163.5v-7.1l4.6-0.6c1.3-0.2,1.4-0.5,1.4-1.8v-26.5c0-1-0.3-1.6-1.2-1.9l-4.9-1.7l1-7.3h18.6V154
					c0,1.4,0.1,1.6,1.4,1.8l4.6,0.6v7.1L238.6,163.5L238.6,163.5z M250.2,109.4c-5.1,0-8.1-3-8.1-8.1s3-7.9,8.1-7.9
					c5.2,0,8.2,2.8,8.2,7.9S255.5,109.4,250.2,109.4z"/>
				<path class="st3" d="M269.4,163.5v-7.1l4.5-0.6c1.3-0.2,1.4-0.5,1.4-1.8v-47.5c0-1-0.3-1.6-1.2-1.9l-4.9-1.7l1-7.3h18.7V154
					c0,1.4,0.1,1.6,1.4,1.8l4.4,0.6v7.1L269.4,163.5L269.4,163.5z"/>
				<path class="st3" d="M367.5,107.9c0-1.3-0.2-1.7-1.4-1.8l-5.7-0.6v-7.1H387v7.1l-6,0.7c-1.4,0.2-1.4,0.4-1.4,1.7v32.3
					c0,17.1-9.8,24.4-25.6,24.4c-17.9,0-25.6-7.9-25.6-24.7V108c0-1.3-0.2-1.7-1.4-1.8l-5.6-0.6v-7.1h28.4v7.1l-6,0.7
					c-1.4,0.2-1.4,0.4-1.4,1.7v29.4c0,10.3,2.3,15.9,12.1,15.9c9.6,0,13-4.2,13-15.6V107.9z"/>
				<path class="st3" d="M424.8,163.5v-29.1c0-4.3-0.3-7.9-4.8-7.9c-3.3,0-7.5,1.9-9.4,3.3V154c0,1.4,0.1,1.6,1.4,1.8l4.3,0.6v7.1
					h-24.8v-7.2l4-0.5c1.3-0.2,1.4-0.5,1.4-1.8v-26.5c0-1-0.3-1.6-1.2-1.9l-4.9-1.7l1.1-7.3h15.7l0.7,4.7l0.4,0.2
					c4.5-3.3,9.7-5.8,15.8-5.8c9.8,0,13.6,5.4,13.6,15.3v23c0,1.4,0.1,1.6,1.4,1.8l4.5,0.6v7.1L424.8,163.5L424.8,163.5z"/>
				<path class="st3" d="M449.5,163.5v-7.1l4.6-0.6c1.3-0.2,1.4-0.5,1.4-1.8v-26.5c0-1-0.3-1.6-1.2-1.9l-4.9-1.7l1-7.3H469V154
					c0,1.4,0.1,1.6,1.4,1.8l4.6,0.6v7.1L449.5,163.5L449.5,163.5z M461.1,109.4c-5.1,0-8.1-3-8.1-8.1s3-7.9,8.1-7.9
					c5.2,0,8.2,2.8,8.2,7.9S466.3,109.4,461.1,109.4z"/>
				<path class="st3" d="M496.8,163.5l-14.3-37.3c-0.4-1.1-0.8-1.3-1.9-1.5l-3.8-0.8l1.4-7.3h24.4v7.3l-5.8,0.7l9.2,25.6h0.6
					l9.5-25.6l-5.8-0.7l1.2-7.3h20.8v7.3l-3.2,0.5c-1.2,0.3-1.8,0.5-2.2,1.5l-14.3,37.5h-15.8V163.5z"/>
				<path class="st3" d="M577,160c-5.6,2.7-11.7,4.6-18.4,4.6c-17.4,0-23.3-10.8-23.3-24.8c0-16.3,10-24,22.3-24
					c11.9,0,19.8,6.2,19.8,21.8c0,1.1-0.1,4.2-0.2,6h-27.5c0.5,6.4,3.2,10.6,10.6,10.6c3.5,0,7.3-0.8,13.4-3.1L577,160z M564.1,135
					c-0.1-7.6-3.1-9.5-6.8-9.5c-3.9,0-7,2.2-7.6,9.5H564.1z"/>
				<path class="st3" d="M584.7,163.5v-7.3l4-0.5c1.3-0.2,1.4-0.4,1.4-1.8v-26.4c0-1-0.3-1.6-1.2-1.9l-4.9-1.7l1-7.3h16l1.1,7.2h0.5
					c3-4.6,6.9-8.1,12.7-8.1c2.1,0,6.2,0.4,7.8,0.8v16.4l-10.8-0.4l-0.9-4.8c-0.2-0.8-0.4-1-1.2-1c-2.3,0-5.1,2-6.5,3.2v23.8
					c0,1.4,0.1,1.7,1.4,1.8l8.9,0.7v7.2h-29.3V163.5z"/>
				<path class="st3" d="M656.6,130.8l-0.9-4.7c-0.1-0.7-0.3-1.1-0.9-1.3c-1.2-0.4-3.3-0.7-5.8-0.7c-4.5,0-7,1.7-7,4.6
					c0,3.7,4.9,4.5,10.4,5.8c7.1,1.6,15.1,4.1,15.1,14.7c0,11-8.9,15.5-20.3,15.5c-8.2,0-16.2-2.2-17.8-3.2v-13l9.6,0.7l0.9,5.1
					c0.1,0.8,0.3,1.2,1.1,1.3c1.1,0.4,3.5,0.9,6.9,0.9c4.8,0,7.5-1.4,7.5-4.7c0-3.6-3.6-4.7-8.2-5.5c-7.6-1.3-17.5-3-17.5-14.8
					c0-11.2,9.5-15.7,19.9-15.7c7.1,0,14,1.6,16.6,2.6v13L656.6,130.8z"/>
				<path class="st3" d="M716.4,160c-5.6,2.7-11.7,4.6-18.4,4.6c-17.4,0-23.3-10.8-23.3-24.8c0-16.3,10-24,22.3-24
					c11.9,0,19.8,6.2,19.8,21.8c0,1.1-0.1,4.2-0.2,6h-27.5c0.5,6.4,3.2,10.6,10.6,10.6c3.5,0,7.3-0.8,13.4-3.1L716.4,160z
					 M703.5,135c-0.1-7.6-3.1-9.5-6.8-9.5c-3.9,0-7,2.2-7.6,9.5H703.5z"/>
			</g>
			<g>
				<path class="st4" d="M167.8,235.8c0,2.6,2.5,3.4,5.2,4.2c3.2,0.9,6.6,2,6.6,6.1c0,4.6-3.7,6.4-7.7,6.4c-4.5,0-7.3-1.8-7.9-6.3
					l2.6-0.4c0.5,2.3,1.6,4.3,5.3,4.3c2.3,0,4.8-0.8,4.8-3.7c0-2.7-2.4-3.4-5.1-4.2c-3.2-0.9-6.7-1.8-6.7-6.3c0-3.7,3.1-6,7.3-6
					c3.8,0,6.7,1.5,7.1,6.1l-2.6,0.3c-0.3-2.1-1.2-4.1-4.5-4.1C169,232.5,167.8,233.9,167.8,235.8z"/>
				<path class="st4" d="M199.8,244.7v-14.2h2.7v14.4c0,5.2-2.9,7.6-8.1,7.6c-5.6,0-7.9-2.6-7.9-7.7v-14.4h2.8v14.1
					c0,4,1.8,5.6,5.3,5.6C198.1,250.2,199.8,248.8,199.8,244.7z"/>
				<path class="st4" d="M213.9,252.2h-2.7v-21.7h7.1c5.5,0,7.2,3.1,7.2,6.5c0,5.2-3.1,7.3-8.3,7.3h-3.3V252.2z M217,242
					c3.1,0,5.6-0.8,5.6-4.8c0-3.1-1.7-4.3-5.2-4.3h-3.5v9.1H217z"/>
				<path class="st4" d="M235.4,249.8h10.3v2.4h-13.1v-21.7h12.7v2.4h-9.9v7.2h9.3v2.4h-9.3V249.8z"/>
				<path class="st4" d="M268.5,252.2h-3l-5-9h-4.9v9h-2.7v-21.7h7.4c5.4,0,7,2.9,7,5.9c0,3.3-1.7,5.2-4.2,6.1L268.5,252.2z
					 M259.7,240.9c2.8,0,4.8-1,4.8-4.3c0-2.9-2-3.7-5.1-3.7h-3.8v8H259.7z"/>
				<path class="st4" d="M286.8,252.2h-2.7v-21.7h7.1c5.5,0,7.2,3.1,7.2,6.5c0,5.2-3.1,7.3-8.3,7.3h-3.3L286.8,252.2L286.8,252.2z
					 M289.9,242c3.1,0,5.6-0.8,5.6-4.8c0-3.1-1.7-4.3-5.2-4.3h-3.5v9.1H289.9z"/>
				<path class="st4" d="M303.6,241.4c0-6.5,3.6-11.2,10.2-11.2s9.6,4.8,9.6,10.8c0,7-3.4,11.6-10,11.6
					C306.6,252.6,303.6,247.9,303.6,241.4z M320.6,241.2c0-5.7-2.7-8.7-6.8-8.7c-4.2,0-7.2,3-7.2,8.8c0,5.9,2.8,8.8,7,8.8
					C317.6,250.2,320.6,247.4,320.6,241.2z"/>
				<path class="st4" d="M345.9,252.2l-4.6-17.8l0,0l-4.7,17.8h-3.4l-4.7-21.7h2.9l3.7,18.5l0,0l4.8-18.5h3.1l4.8,18.7l0,0l3.6-18.7
					h2.8l-4.6,21.7H345.9z"/>
				<path class="st4" d="M363.1,249.8h10.3v2.4h-13.1v-21.7H373v2.4h-9.9v7.2h9.3v2.4h-9.3V249.8z"/>
				<path class="st4" d="M396.2,252.2h-3l-5-9h-4.9v9h-2.7v-21.7h7.4c5.4,0,7,2.9,7,5.9c0,3.3-1.7,5.2-4.2,6.1L396.2,252.2z
					 M387.4,240.9c2.8,0,4.8-1,4.8-4.3c0-2.9-2-3.7-5.1-3.7h-3.8v8H387.4z"/>
				<path class="st4" d="M403.9,235.8c0,2.6,2.5,3.4,5.2,4.2c3.2,0.9,6.6,2,6.6,6.1c0,4.6-3.7,6.4-7.7,6.4c-4.5,0-7.4-1.8-7.9-6.3
					l2.6-0.4c0.5,2.3,1.6,4.3,5.3,4.3c2.3,0,4.8-0.8,4.8-3.7c0-2.7-2.4-3.4-5.1-4.2c-3.2-0.9-6.7-1.8-6.7-6.3c0-3.7,3.1-6,7.3-6
					c3.8,0,6.7,1.5,7.1,6.1l-2.6,0.3c-0.3-2.1-1.2-4.1-4.5-4.1C405.1,232.5,403.9,233.9,403.9,235.8z"/>
				<path class="st4" d="M447.9,252.2h-3l-5-9H435v9h-2.7v-21.7h7.4c5.4,0,7,2.9,7,5.9c0,3.3-1.7,5.2-4.2,6.1L447.9,252.2z
					 M439,240.9c2.9,0,4.8-1,4.8-4.3c0-2.9-2-3.7-5.1-3.7H435v8H439z"/>
				<path class="st4" d="M456.8,249.8h10.3v2.4H454v-21.7h12.7v2.4h-9.9v7.2h9.3v2.4h-9.3L456.8,249.8L456.8,249.8z"/>
				<path class="st4" d="M479,252.2l-7.3-21.7h3.1l6.2,19l0,0l5.9-19h2.8l-7,21.7H479z"/>
				<path class="st4" d="M498.6,249.8H509v2.4h-13.1v-21.7h12.7v2.4h-9.9v7.2h9.3v2.4h-9.3v7.3H498.6z"/>
				<path class="st4" d="M525.3,230.5l7.6,21.7h-3l-2.2-6.5h-8.3l-2.1,6.5h-2.8l7.3-21.7H525.3z M523.4,233L523.4,233l-3.5,10.4h7
					L523.4,233z"/>
				<path class="st4" d="M542.5,249.8h9.8v2.4h-12.5v-21.7h2.8L542.5,249.8L542.5,249.8z"/>
				<path class="st4" d="M562.1,249.8h10.3v2.4h-13.1v-21.7H572v2.4h-9.9v7.2h9.3v2.4h-9.3V249.8z"/>
				<path class="st4" d="M579.6,252.2v-21.7h6.7c7.5,0,10.8,4,10.8,10.5c0,6.7-3.5,11.2-11.3,11.2H579.6z M585.8,249.9
					c5.7,0,8.4-3.2,8.4-8.5c0-6.6-3-8.6-8.2-8.6h-3.7v17h3.5V249.9z"/>
			</g>
			<line class="st5" x1="164.9" y1="200.8" x2="366.3" y2="200.8"/>
			<polygon class="st6" points="373.9,218 380.9,201 373.9,201 380.4,185 387.9,185 383.6,195 391.1,195 375,218 			"/>
			<line class="st5" x1="396.9" y1="200.8" x2="596.9" y2="200.8"/>
		</g>
	</g>
</g>
</svg>
