<?xml version="1.0" encoding="utf-8"?>
<!-- Generator: Adobe Illustrator 19.2.1, SVG Export Plug-In . SVG Version: 6.00 Build 0)  -->
<svg version="1.1" id="Layer_1" xmlns="http://www.w3.org/2000/svg" xmlns:xlink="http://www.w3.org/1999/xlink" x="0px" y="0px"
	 width="108px" height="108px" viewBox="0 0 108 108" style="enable-background:new 0 0 108 108;" xml:space="preserve">
<style type="text/css">
	.st0{fill:none;stroke:#FFFFFF;stroke-width:2;stroke-miterlimit:10;}
	.st1{fill:none;stroke:#FFFFFF;stroke-width:2;stroke-linejoin:round;stroke-miterlimit:10;}
	.st2{fill:none;stroke:#FFFFFF;stroke-width:2;stroke-linecap:round;stroke-linejoin:round;stroke-miterlimit:10;}
</style>
<g>
	<circle class="st0" cx="54" cy="54" r="52.4"/>
	<g>
		<g>
			<g>
				<path class="st1" d="M85,53.9c0,0-13.9,17-31,17s-31-17-31-17s13.9-17,31-17S85,53.9,85,53.9z"/>
				<circle class="st1" cx="54" cy="53.9" r="17"/>
			</g>
		</g>
		<path class="st2" d="M54,36.9c-8.8,0-16,7.2-16,16c0,8.3,6.7,15,15,15c7.7,0,14-6.3,14-14c0-7.2-5.8-13-13-13c-6.6,0-12,5.4-12,12
			c0,6.1,4.9,11,11,11c5.5,0,10-4.5,10-10c0-5-4-9-9-9c-4.4,0-8,3.6-8,8c0,3.9,3.1,7,7,7c3.3,0,6-2.7,6-6c0-2.8-2.2-5-5-5
			c-2.2,0-4,1.8-4,4c0,1.7,1.3,3,3,3c1.1,0,2-0.9,2-2"/>
	</g>
</g>
</svg>
