<?xml version="1.0" encoding="utf-8"?>
<!-- Generator: Adobe Illustrator 19.2.1, SVG Export Plug-In . SVG Version: 6.00 Build 0)  -->
<svg version="1.1" id="Layer_1" xmlns="http://www.w3.org/2000/svg" xmlns:xlink="http://www.w3.org/1999/xlink" x="0px" y="0px"
	 width="108px" height="108px" viewBox="0 0 108 108" style="enable-background:new 0 0 108 108;" xml:space="preserve">
<style type="text/css">
	.st0{fill:none;stroke:#FFFFFF;stroke-width:2;stroke-miterlimit:10;}
	.st1{fill:none;stroke:#FFFFFF;stroke-width:2;stroke-linejoin:round;stroke-miterlimit:10;}
</style>
<g>
	<circle class="st0" cx="54" cy="54" r="52.4"/>
	<g>
		<g>
			<g>
				<path class="st1" d="M55,23h1c0,0,5,9,12,9h14v4c0,38-27,49-27,49S28,74,28,36v-4h12c7,0,14-9,14-9H55z"/>
				<path class="st1" d="M55,79c0,0,22-12,22-42h-8c-10,0-14-7-14-7s-4,7-14,7h-8C33,67,55,79,55,79z"/>
				<path class="st1" d="M45,37c0,27,10,42,10,42"/>
				<path class="st1" d="M65,37c0,27-10,42-10,42"/>
				<line class="st1" x1="55" y1="40" x2="55" y2="42"/>
				<line class="st1" x1="55" y1="36" x2="55" y2="38"/>
				<line class="st1" x1="55" y1="44" x2="55" y2="46"/>
				<line class="st1" x1="39" y1="40" x2="39" y2="42"/>
				<line class="st1" x1="39" y1="44" x2="39" y2="46"/>
				<line class="st1" x1="71" y1="40" x2="71" y2="42"/>
				<line class="st1" x1="71" y1="44" x2="71" y2="46"/>
			</g>
		</g>
	</g>
</g>
</svg>
