<?xml version="1.0" encoding="utf-8"?>
<!-- Generator: Adobe Illustrator 19.2.1, SVG Export Plug-In . SVG Version: 6.00 Build 0)  -->
<svg version="1.1" id="Layer_1" xmlns="http://www.w3.org/2000/svg" xmlns:xlink="http://www.w3.org/1999/xlink" x="0px" y="0px"
	 width="108.8px" height="108.8px" viewBox="0 0 108.8 108.8" style="enable-background:new 0 0 108.8 108.8;" xml:space="preserve"
	>
<style type="text/css">
	.st0{fill:#FFFFFF;}
	.st1{fill:none;stroke:#FFFFFF;stroke-width:4;stroke-miterlimit:10;}
</style>
<title>powericon-yes</title>
<path class="st0" d="M54.9,67.2c-0.8,0-1.6-0.3-2.1-0.9L35.3,48.8c-1.2-1.1-1.3-3-0.1-4.2s3-1.3,4.2-0.1c0.1,0,0.1,0.1,0.1,0.1
	l15.3,15.3l42.7-44.6c1.2-1.2,3.1-1.2,4.2,0s1.2,3.1,0,4.2L57,66.3C56.4,66.8,55.7,67.1,54.9,67.2z"/>
<path class="st0" d="M99.7,15.4c1.1,0,2,0.9,2,2c0,0.5-0.2,1-0.6,1.4L56.3,65.6c-0.8,0.8-2,0.8-2.8,0c0,0,0,0,0,0L36,48.1
	c-0.8-0.8-0.8-2,0-2.8s2-0.8,2.8,0l16.1,16.1l43.4-45.4C98.6,15.6,99.1,15.4,99.7,15.4 M99.7,13.4c-1.1,0-2.1,0.4-2.8,1.2l-42,43.9
	L40.2,43.8c-1.6-1.6-4.1-1.6-5.7,0s-1.6,4.1,0,5.7L52,67c1.6,1.6,4.1,1.6,5.7,0c0,0,0,0,0,0l44.8-46.8c1.5-1.6,1.5-4.1-0.1-5.7
	C101.6,13.8,100.7,13.4,99.7,13.4L99.7,13.4z"/>
<circle class="st1" cx="54.4" cy="54.4" r="52.4"/>
</svg>
