<?xml version="1.0" encoding="utf-8"?>
<!-- Generator: Adobe Illustrator 19.2.1, SVG Export Plug-In . SVG Version: 6.00 Build 0)  -->
<svg version="1.1" id="Layer_1" xmlns="http://www.w3.org/2000/svg" xmlns:xlink="http://www.w3.org/1999/xlink" x="0px" y="0px"
	 width="108px" height="108px" viewBox="0 0 108 108" style="enable-background:new 0 0 108 108;" xml:space="preserve">
<style type="text/css">
	.st0{fill:url(#SVGID_1_);stroke:#FFFFFF;stroke-width:2;stroke-miterlimit:10;}
	.st1{fill:none;stroke:#FFFFFF;stroke-width:2;stroke-linejoin:round;stroke-miterlimit:10;}
	.st2{fill:none;stroke:#FFFFFF;stroke-width:2;stroke-miterlimit:10;}
</style>
<g>
	<linearGradient id="SVGID_1_" gradientUnits="userSpaceOnUse" x1="54" y1="106.4" x2="54" y2="1.6">
		<stop  offset="0" style="stop-color:#84BD00"/>
		<stop  offset="1" style="stop-color:#00965E"/>
	</linearGradient>
	<circle class="st0" cx="54" cy="54" r="52.4"/>
	<g>
		<g>
			<g>
				<g>
					<path class="st1" d="M31,85V73.5c0-10-8.2-18.4-8.2-30s9.3-21,20.9-21s21.2,9.4,21.2,21l6.2,13V58h-6v9.5
						c0,3.3-3.2,5.5-6.5,5.5H53v12"/>
					<g>
						<line class="st2" x1="53" y1="73" x2="50" y2="73"/>
					</g>
				</g>
				<path class="st1" d="M86,55h-2.5l-40-5.8c-3.9,0-7-3-7-6.9s3.1-7.2,7-7.2l40-6.2H86"/>
				<g>
					<line class="st1" x1="72" y1="42" x2="74" y2="42"/>
					<line class="st1" x1="76" y1="42" x2="78" y2="42"/>
					<line class="st1" x1="80" y1="42" x2="82" y2="42"/>
				</g>
			</g>
		</g>
	</g>
</g>
</svg>
