<?xml version="1.0" encoding="utf-8"?>
<!-- Generator: Adobe Illustrator 19.2.1, SVG Export Plug-In . SVG Version: 6.00 Build 0)  -->
<svg version="1.1" id="Layer_1" xmlns="http://www.w3.org/2000/svg" xmlns:xlink="http://www.w3.org/1999/xlink" x="0px" y="0px"
	 width="108px" height="108px" viewBox="0 0 108 108" style="enable-background:new 0 0 108 108;" xml:space="preserve">
<style type="text/css">
	.st0{fill:none;stroke:#FFFFFF;stroke-width:2;stroke-miterlimit:10;}
	.st1{fill:none;stroke:#FFFFFF;stroke-width:2;stroke-linejoin:round;stroke-miterlimit:10;}
</style>
<g>
	<circle class="st0" cx="54" cy="54" r="52.4"/>
	<g>
		<path class="st0" d="M48.8,22.8c-11.6,0-20.9,9.3-20.9,20.9L23,56.5V59h5v8.5c0,3.3,2.3,6.5,5.6,6.5H40v12"/>
		<g>
			<line class="st1" x1="40" y1="74" x2="43" y2="74"/>
		</g>
		<g>
			<line class="st1" x1="68" y1="74" x2="65" y2="74"/>
		</g>
		<path class="st0" d="M37.8,43.8c0-11.6,9.3-21.1,20.9-21.1S79.8,32,79.8,43.6L85,56.5V59h-5v8.5c0,3.3-3.1,6.5-6.4,6.5H68v12"/>
		<path class="st0" d="M62,86V73.5c0-10,8-16.4,8-28V44"/>
		<g>
			<polyline class="st1" points="61.6,37.5 53.6,45.5 49.6,41.5 			"/>
			<line class="st1" x1="56" y1="35" x2="58" y2="35"/>
			<path class="st1" d="M62.6,43.5c0,5-4,9-9,9s-9-4-9-9s4-9,9-9"/>
		</g>
		<line class="st0" x1="38" y1="46" x2="38" y2="48"/>
		<line class="st0" x1="70" y1="40" x2="70" y2="42"/>
	</g>
</g>
</svg>
