<?xml version="1.0" encoding="utf-8"?>
<!-- Generator: Adobe Illustrator 19.2.1, SVG Export Plug-In . SVG Version: 6.00 Build 0)  -->
<svg version="1.1" id="Layer_1" xmlns="http://www.w3.org/2000/svg" xmlns:xlink="http://www.w3.org/1999/xlink" x="0px" y="0px"
	 width="1920px" height="1080px" viewBox="0 0 1920 1080" style="enable-background:new 0 0 1920 1080;" xml:space="preserve">
<style type="text/css">
	.st0{fill:none;stroke:#4C4B4D;stroke-width:4;stroke-miterlimit:10;}
	.st1{opacity:0.5;fill:none;stroke:#4C4B4D;stroke-width:4;stroke-miterlimit:10;enable-background:new    ;}
	.st2{opacity:0.5;fill:#4C4B4D;}
</style>
<g>
	<line class="st0" x1="275.7" y1="223.1" x2="279.7" y2="223.1"/>
	<line class="st0" x1="236" y1="389" x2="240" y2="389"/>
	<line class="st0" x1="746.7" y1="476.1" x2="750.7" y2="476.1"/>
	<line class="st0" x1="1635" y1="194" x2="1639" y2="194"/>
	<line class="st0" x1="1340" y1="351.9" x2="1344" y2="351.9"/>
	<line class="st0" x1="1850.7" y1="439" x2="1854.7" y2="439"/>
	<line class="st0" x1="167.7" y1="681.1" x2="171.7" y2="681.1"/>
	<line class="st0" x1="128" y1="847" x2="132" y2="847"/>
	<line class="st0" x1="638.7" y1="934.1" x2="642.7" y2="934.1"/>
	<line class="st0" x1="523" y1="295" x2="519" y2="295"/>
	<line class="st0" x1="562.7" y1="129.1" x2="558.7" y2="129.1"/>
	<line class="st1" x1="52" y1="42" x2="48" y2="42"/>
	<line class="st0" x1="1619" y1="903.5" x2="1615" y2="903.5"/>
	<line class="st0" x1="1819.7" y1="737.6" x2="1815.7" y2="737.6"/>
	<line class="st0" x1="1244" y1="826.1" x2="1240" y2="826.1"/>
	<line class="st1" x1="1446" y1="275.6" x2="1442" y2="275.6"/>
	<line class="st0" x1="1485.7" y1="109.7" x2="1481.7" y2="109.7"/>
	<line class="st0" x1="975" y1="22.6" x2="971" y2="22.6"/>
	<line class="st1" x1="1738" y1="312.5" x2="1734" y2="312.5"/>
	<line class="st0" x1="1886" y1="0" x2="1882" y2="0"/>
	<line class="st0" x1="1267" y1="59.5" x2="1263" y2="59.5"/>
	<line class="st0" x1="519" y1="557.5" x2="515" y2="557.5"/>
	<line class="st0" x1="558.7" y1="391.6" x2="554.7" y2="391.6"/>
	<line class="st0" x1="48" y1="304.5" x2="44" y2="304.5"/>
	<line class="st0" x1="736" y1="129.1" x2="732" y2="129.1"/>
	<line class="st0" x1="292" y1="22.6" x2="288" y2="22.6"/>
	<line class="st0" x1="1621" y1="59.5" x2="1617" y2="59.5"/>
	<line class="st0" x1="940.7" y1="1094.1" x2="936.7" y2="1094.1"/>
	<line class="st0" x1="334.3" y1="1275" x2="338.3" y2="1275"/>
	<line class="st1" x1="621.3" y1="1181" x2="617.3" y2="1181"/>
	<line class="st0" x1="95" y1="1535" x2="91" y2="1535"/>
	<line class="st0" x1="1721" y1="1220" x2="1725" y2="1220"/>
	<line class="st0" x1="1632" y1="1436.7" x2="1628" y2="1436.7"/>
	<line class="st0" x1="1100.7" y1="1366.6" x2="1096.7" y2="1366.6"/>
	<line class="st0" x1="1123" y1="1242.7" x2="1127" y2="1242.7"/>
	<line class="st0" x1="1410" y1="1148.7" x2="1406" y2="1148.7"/>
	<line class="st0" x1="1445.7" y1="1245.3" x2="1441.7" y2="1245.3"/>
	<line class="st0" x1="946.8" y1="183.1" x2="950.8" y2="183.1"/>
	<line class="st0" x1="984" y1="256.7" x2="980" y2="256.7"/>
	<line class="st0" x1="1269.5" y1="225.7" x2="1265.5" y2="225.7"/>
	<line class="st0" x1="1256" y1="537" x2="1260" y2="537"/>
	<line class="st0" x1="1576.7" y1="411" x2="1572.7" y2="411"/>
	<line class="st0" x1="1578.7" y1="539.6" x2="1574.7" y2="539.6"/>
	<line class="st0" x1="438" y1="114.1" x2="442" y2="114.1"/>
	<line class="st0" x1="725" y1="20.1" x2="721" y2="20.1"/>
	<line class="st0" x1="760.7" y1="116.7" x2="756.7" y2="116.7"/>
	<line class="st0" x1="1408" y1="437.3" x2="1412" y2="437.3"/>
	<line class="st1" x1="1695" y1="343.3" x2="1691" y2="343.3"/>
	<line class="st0" x1="1710" y1="696" x2="1706" y2="696"/>
	<line class="st0" x1="126.7" y1="347.1" x2="130.7" y2="347.1"/>
	<line class="st1" x1="413.7" y1="253.1" x2="409.7" y2="253.1"/>
	<line class="st0" x1="449.3" y1="349.7" x2="445.3" y2="349.7"/>
	<line class="st1" x1="184" y1="183.5" x2="188" y2="183.5"/>
	<line class="st0" x1="471" y1="89.5" x2="467" y2="89.5"/>
	<line class="st0" x1="506.7" y1="186.1" x2="502.7" y2="186.1"/>
	<line class="st0" x1="400" y1="1425" x2="404" y2="1425"/>
	<line class="st0" x1="1435.4" y1="1396" x2="1431.4" y2="1396"/>
	<line class="st0" x1="1832" y1="1596" x2="1828" y2="1596"/>
	<line class="st0" x1="326.1" y1="794" x2="330.1" y2="794"/>
	<line class="st0" x1="1798" y1="158" x2="1802" y2="158"/>
	<line class="st0" x1="527" y1="1836" x2="531" y2="1836"/>
	<line class="st0" x1="1688" y1="1769" x2="1692" y2="1769"/>
	<line class="st1" x1="61" y1="1073.8" x2="65" y2="1073.8"/>
	<line class="st1" x1="1876" y1="939.1" x2="1880" y2="939.1"/>
	<line class="st1" x1="454" y1="696.1" x2="458" y2="696.1"/>
	<line class="st1" x1="1249" y1="1999.1" x2="1253" y2="1999.1"/>
	<line class="st1" x1="1186" y1="877.1" x2="1190" y2="877.1"/>
	<line class="st1" x1="1129.8" y1="39.2" x2="1133.8" y2="39.2"/>
	<line class="st1" x1="1450" y1="10.1" x2="1454" y2="10.1"/>
	<line class="st1" x1="313" y1="462.1" x2="317" y2="462.1"/>
	<line class="st1" x1="1454" y1="696.1" x2="1458" y2="696.1"/>
	<line class="st1" x1="40" y1="451.1" x2="44" y2="451.1"/>
</g>
<path class="st2" d="M1940.5,7.5c-2.6-0.1-5.2,0.1-7.7,0.6c-8.9-9.1-20.8-14.9-33.9-15.3c-29-1-53.2,24.1-54.1,56.1
	c-0.5,15.8,4.9,30.3,13.9,41.1c-2.4-0.6-4.9-1-7.5-1.1c-20.7-0.7-38,17.2-38.7,40.1c-0.3,11.4,3.5,21.8,10,29.5
	c-14.9,2.9-27.2,14.5-32.2,30c-12.4,2.4-22,14-22.4,28.4c-0.2,6.1,1.3,11.9,4.1,16.7c-24.1-0.4-44.2,20.6-44.9,47.3
	c-0.1,3.1,0.1,6.2,0.5,9.2c-16.5,0.1-31.5,8-41.8,20.7c-1.3-0.5-2.8-0.8-4.3-0.8c-6.9,0-12.5,5.6-12.5,12.5c0,4.1,2,7.8,5.1,10
	c-1.8,5.8-2.9,12-3.1,18.5c-0.4,14.4,3.6,27.7,10.6,38.6c-24.1,0.6-43.8,22-44.6,48.9c-0.1,2,0,4,0.2,6c-15.4,1-28.5,12-33.6,27.4
	c-2.1-0.5-4.3-0.8-6.5-0.9c-20.7-0.7-38,17.2-38.7,40.1c-0.2,8.1,1.7,15.7,5.1,22.3c-4.4,4.7-8,10.3-10.5,16.7
	c-6.9,8.1-11.3,18.9-11.6,30.9c-0.3,9.5,2,18.4,6.1,25.9c-8.1,2.6-14.9,8.6-18.9,16.7c-3.1-1.7-6.5-2.7-10.1-2.8
	c-13.7-0.5-25.1,11.4-25.5,26.4c-0.1,4.2,0.6,8.2,2,11.8c-9.9,5.8-17.5,16.2-20.3,28.6c-6.9-5.7-15.4-9.2-24.7-9.6
	c-4.3-0.1-8.5,0.4-12.4,1.6c-2.5-2.8-6.1-4.6-10.1-4.6c-7.5,0-13.5,6-13.5,13.5c0,2.3,0.6,4.4,1.6,6.3c-6.2,8-10.1,18.3-10.5,29.7
	c-0.5,16.2,6.4,30.7,17.2,39.8c-11.1,6-18.9,18.4-19.3,33c0,0.4,0,0.8,0,1.3c-1.2,2.8-2.1,5.8-2.7,9c-0.3,0-0.5-0.1-0.8-0.1
	c-1.1-8.7-7.6-15.5-15.8-15.8c-9.1-0.3-16.7,7.6-17,17.6c-0.1,3,0.5,5.9,1.6,8.4c-7.8,7.6-12.9,18.6-13.2,31
	c-0.3,10.7,3,20.7,8.6,28.4c-0.9,1.3-1.7,2.7-2.3,4.1c-7.7-8-18-13-29.4-13.4c-2.4-0.1-4.8,0-7.1,0.4c-9.7-4.5-20.3-7-31.5-7
	c-14.9,0-28.8,4.4-40.8,12.2c-14.8-18.1-36.3-29.5-60.1-29.5c-32.8,0-61,21.6-73.8,52.5c-9.8-21.3-26.2-38.3-46.2-47.8
	c1.4-3.8,2.2-8,2.2-12.4c0-18.3-13.4-33.1-30-33.1s-30,14.8-30,33.1c0,2.3,0.2,4.6,0.6,6.8c-29.1,7.4-53,29.9-64.4,59.7
	c-7.8-5-16.9-7.9-26.7-7.9c-4.9,0-9.6,0.7-14,2.1c0.4-2.7,0.8-5.4,0.9-8.3c0.9-17-4-32.8-12.7-44.7c2.4,0.7,4.9,1.2,7.5,1.4
	c20.7,1.3,38.5-17.6,39.8-42.2c0.6-12.3-2.9-23.6-9.2-32.1c15-2.7,27.6-14.9,33-31.5c12.4-2.2,22.3-14.6,23.2-30.1
	c0.3-6.6-1-12.9-3.6-18.2c24.1,1.1,44.7-21,46.3-49.9c0.2-3.4,0.1-6.7-0.3-9.9c19.8,0.4,37.5-11.4,48.2-29.6c1.9,0.8,4,1.2,6.2,1.2
	c9.1,0,16.5-7.4,16.5-16.5c0-7.9-5.5-14.4-12.8-16.1c0.1-1.1,0.2-2.2,0.2-3.3c0.8-15.5-2.8-30-9.5-41.9c24.1,0,44.5-22.5,46-51.6
	c0.1-2.2,0.1-4.3,0-6.5c15.4-0.6,28.8-12.2,34.4-28.7c2.1,0.6,4.2,1,6.4,1.1c20.7,1.3,38.5-17.6,39.8-42.2c0.5-8.8-1.2-17-4.5-24.2
	c4.6-4.9,8.3-11,11-17.7c7.1-8.6,11.8-20.1,12.5-33c0.5-10.2-1.5-19.9-5.4-28.1c8.2-2.5,15.2-8.9,19.4-17.5c3,1.9,6.4,3,10,3.3
	c13.6,0.9,25.4-11.6,26.3-27.9c0.2-4.5-0.4-8.8-1.7-12.8c10.1-6.1,17.9-17,21.1-30.3c6.7,6.3,15.1,10.4,24.4,11
	c24,1.5,44.6-20.4,46.2-49c0.9-17.5-5.5-33.3-16.1-43.4c11.3-6.2,19.4-19.4,20.3-35.1c0-0.5,0-0.9,0-1.4c1.3-3,2.3-6.2,3-9.6
	c0.3,0.1,0.5,0.1,0.8,0.1c0.8,9.4,7.2,16.9,15.4,17.4c9.1,0.6,16.9-7.7,17.5-18.6c0.2-3.2-0.3-6.3-1.4-9.1c4.4-4.4,8-9.9,10.5-16.3
	c1.1,0.5,2.4,0.9,3.7,0.9c4.7,0,8.5-3.8,8.5-8.5s-3.8-8.5-8.5-8.5c-0.1,0-0.1,0-0.2,0c0-0.2,0-0.5,0.1-0.7
	c0.6-11.6-2.4-22.4-7.8-30.9c0.9-1.4,1.7-2.8,2.5-4.4c7.5,8.8,17.6,14.5,29,15.3c24.8,1.6,46.2-21.1,47.7-50.7
	c1.6-29.6-17.3-54.9-42.1-56.5c-9.3-0.6-18,2.2-25.5,7.5c-16.6,0.4-30.6,15.6-32.3,35.4c-13.9-0.5-25.9,11.4-28.3,27.4
	c-5.6,5.6-9.4,13.6-10.4,22.7c-2.9,3.7-5.3,7.9-7.1,12.6c-3.7-4.3-8.7-7-14.3-7.4c-12.4-0.8-23.1,10.6-23.9,25.3
	c-0.2,3.7,0.2,7.2,1.2,10.5c-3,4.6-5.2,10-6.4,15.9c-4.8,0.2-8.7,4.1-8.7,9c0,4.6,3.5,8.5,8,8.9c0.2,1.3,0.4,2.5,0.7,3.8
	c-0.3,1.7-0.5,3.5-0.6,5.2c-0.6,11.8,3,22.6,9.2,30.5c-5,1.8-9.6,4.6-13.7,8.2c-3.2-2.3-6.9-3.7-10.8-3.9
	c-12.7-0.8-23.8,10.4-25.3,25.3c-0.5-0.1-1-0.1-1.5-0.1c-4.3-0.3-8.5,0.3-12.5,1.5c-5.9-11-15.4-18.9-26.7-21.5
	c-1-6.2-6.3-10.9-12.8-10.9c-7.2,0-13,5.8-13,13c0,0.6,0.1,1.3,0.2,1.9c-13.1,7.5-22.6,23.1-23.7,41.7c-0.5,9.6,1.3,18.7,4.9,26.5
	c-9.7,7.7-16.4,20.6-17.2,35.4c-0.7,14,3.9,26.8,11.7,35.7c-4.8,1.9-9.2,4.8-13.1,8.5c-9.7,3.9-18.1,11.4-23.8,21.3
	c-6.5-6-14.6-9.7-23.5-10.3c-23.6-1.5-43.9,20-45.4,48.2c-0.3,5.1,0.1,10,1,14.7c-4.7,1.6-8.1,6.1-8.1,11.4c0,6.6,5.4,12,12,12
	c2,0,4-0.5,5.6-1.4c5.7,7.7,13.4,13.3,22.2,15.7c-1.4,1.8-2.7,3.8-3.8,5.9c-13.3-0.3-25,9.3-29.9,23.2
	c-15.7,7.9-27.2,25.8-28.3,47.4c-0.5,10.2,1.3,19.8,4.9,28.2c-1.1-0.2-2.3-0.3-3.4-0.4c-31.4-2-58.5,26.7-60.5,64.2
	c0,0.1,0,0.3,0,0.4c-11.9,1.2-22.1,10.4-26.5,23.2c-4.3-5.9-10.6-9.9-17.7-10.3c-14.1-0.9-26.2,12-27.1,28.7
	c-0.2,4.1,0.3,8,1.3,11.6c-9.9,5.6-17.8,15.4-22.1,27.6c-0.1,0-0.2,0-0.2,0c-8.6,0-15.5,6.9-15.5,15.5c0,7.9,5.8,14.3,13.4,15.3
	c0.6,3.2,1.4,6.3,2.5,9.3h-0.1c-12.7-0.8-23.8,9.6-26.5,24c-2-0.5-4.1-0.9-6.3-1c-17.6-1.1-33.1,11.8-39,30.5c-4.1,1.4-7,5.3-7,9.9
	c0,3.6,1.8,6.8,4.6,8.7c0.3,6.4,1.6,12.6,3.9,18c-5.5,8-9,18.1-9.6,29.3c-0.9,16.1,4.7,30.9,14.1,40.9c-0.1,0.1-0.2,0.3-0.3,0.4
	c-0.8-0.1-1.6-0.2-2.4-0.3c-6.2-0.4-12.1,1-17.3,3.8c-13.9-27.2-40.3-45.5-70.6-45.5c-23.9,0-45.3,11.4-60.1,29.5
	c-12-7.7-25.9-12.2-40.8-12.2c-27.4,0-51.5,15-66.2,37.9c-3.8-0.6-7.6-0.9-11.5-0.9c-14.1,0-27.3,4-38.8,11
	c-9.6-13.5-21.1-25.3-34.1-34.7c3.6-5,5.8-11.3,5.8-18.1c0-16-11.8-29-26.2-29c-13.3,0-24.2,10.9-26,25c-10.5-2.7-21.4-4.1-32.6-4.1
	c-1.6,0-3.2,0-4.8,0.1c-2.8-11.3-7.2-21.8-13-31.2c10.9-4.4,18.7-16,18.7-29.5c0-17.4-12.8-31.5-28.5-31.5
	c-13.7,0-25.1,10.6-27.9,24.8c-12.7-6.9-27.1-10.7-42.2-10.7c-18.6,0-35.9,5.8-50.7,15.9c-0.5-1.4-1.1-2.7-1.8-3.9
	c10.8-6.6,15.9-21.1,11.5-34.3v-0.1c6.5,0.8,13.3,0,19.9-2.6c4-1.6,7.7-3.8,10.9-6.5c1,0.2,2,0.3,3,0.3c8.3,0,15-6.7,15-15
	c0-3.2-1-6.1-2.7-8.5c0.9-2.8,1.5-5.6,1.9-8.6c3.2,0.1,6.5-0.4,9.7-1.7c13.2-5.3,20-21.5,15.2-36.1c-2.5-7.4-7.4-13-13.5-16
	c9-8.1,13.4-21.3,10.9-34.1c0.1,0,0.2-0.1,0.3-0.1c29.6-12,44.7-48.1,33.9-80.7c-0.4-1.2-0.8-2.4-1.3-3.5c7.8,1.6,16.1,1,24.1-2.2
	c17-6.9,28.1-23.7,29.8-42.4c5.9-5.4,9.8-13,11.1-21.2c0.7,0.1,1.4,0.1,2.1,0.1c5.6,0,10.6-2.5,14-6.4c10.9,7.9,24.9,10.2,38.1,4.9
	c20.8-8.4,32.1-32.7,26.7-55.9c4.4-1.2,7.7-5.3,7.7-10.1c0-5.8-4.7-10.5-10.5-10.5c-2.2,0-4.2,0.7-5.9,1.8c-2.3-3.1-4.9-5.8-7.8-8
	c6.3-8.7,9.9-19.5,10.1-30.8c1.8-5.1,2.8-10.5,2.9-16.1c9.4,5.9,21.1,7.4,32.1,3c11.7-4.8,20.1-15.2,23.5-27.5
	c7.3,1.7,15.2,1.3,22.7-1.8c21.4-8.7,32.4-34.8,24.5-58.4c-4.7-14.2-15.2-24.2-27.4-28.1c-0.2-4.5-1-9.1-2.4-13.6
	c-0.2-0.5-0.4-1.1-0.6-1.6c11.5-5.6,17.3-20.2,12.9-33.4c-1.4-4.1-3.6-7.6-6.3-10.4c1.7-5.3,2.6-10.9,2.6-16.6
	c8.2,4.5,18,5.4,27.2,1.7c1.4-0.6,2.7-1.2,4-2c3.8-0.2,7.5-0.9,11.3-2.4c7.1-2.9,13-8,17.1-14.3c2.9,0.2,5.9-0.3,8.8-1.5
	c11.7-4.7,17.7-19,13.4-31.9c-1.9-5.8-5.6-10.3-10.1-13.1c3.2-3.1,5.9-6.8,8-10.8c7.1-3.4,12.4-9.6,15.2-16.9
	c12.2-6.8,18.2-22.6,13.7-37.1c15.4-7.1,23.5-25.8,19-43.5c2-9.2,1.7-19.2-1.5-28.8c-8.5-25.8-34.4-39-57.7-29.6
	c-23.3,9.4-35.3,38-26.8,63.7c3.9,11.8,11.5,21,20.8,26.6c-1,1.2-2,2.4-2.8,3.7c-8.4-3.5-18-3.8-27.1-0.1
	c-10.5,4.3-18.4,13-22.5,23.6c-2.5-0.4-5.2-0.1-7.7,1c-8.6,3.5-13,13.9-9.8,23.4c2.8,8.5,10.7,13.2,18.5,11.6
	c0.1,0.3,0.2,0.5,0.4,0.8c-2.5,1.6-4.8,3.5-6.9,5.7c-0.4,0.1-0.7,0.3-1.1,0.4c-12.4,5-20.6,17.1-22.3,30.6c-5.9-4.5-12.8-7.3-20-8.2
	c-3-4.9-8.3-8.1-14.5-8.1c-9.4,0-17,7.6-17,17c0,0.3,0,0.6,0,0.9c-14.5,12.5-20.8,34.3-14.1,54.4c3.2,9.6,8.9,17.4,16,22.9
	c-9.8,6.9-16.3,18-18.2,30.2c-3.5-0.4-7.2,0.1-10.8,1.6c-12.8,5.2-19.4,20.9-14.7,35.1c1.3,3.8,3.2,7,5.6,9.7
	c-5.7,6.7-8.7,15.8-8.4,25.1c-3.4-0.9-7-1.3-10.5-1.2c-0.9-6-6.1-10.7-12.4-10.7c-6.9,0-12.5,5.6-12.5,12.5c0,2.4,0.7,4.6,1.8,6.4
	c-5.7,4.3-10.3,10-13.5,16.6c-4.7,4.6-8.4,10.1-11,16.2c-6.7-1.6-13.9-1.2-20.8,1.6c-19.4,7.9-29.4,31.6-22.3,53.1
	c0.8,2.3,1.7,4.5,2.8,6.5c-11.6,10.3-17,27.4-13,43.9c-1.7,0.5-3.5,1-5.2,1.7c-22.9,9.3-35.1,36.7-28,62.1c-11.5-4-24.3-3.9-36.5,1
	c-15.1,6.1-26.4,18.5-32.4,33.4c-5,0.3-8.9,4.4-8.9,9.5c0,3.4,1.8,6.3,4.4,8c-1.1,9-0.4,18.3,2.3,27.5c-2.7,0.5-5.4,1.3-8.1,2.3
	c-22.7,9.2-34.5,36.8-26.5,62c-5-1.4-10.5-1.1-15.7,1c-12.2,5-19.3,18.7-17.4,32.4c-11.7,10.2-17.9,26.7-15.7,43.2
	c-8.7-4.4-18.9-5.1-28.5-1.2c-10.3,4.2-18,12.9-21.8,23.3c-0.2,0-0.3,0-0.5,0c-5.2,0-9.5,4.3-9.5,9.5c0,4.5,3.1,8.3,7.3,9.2
	c0.3,3.7,1,7.4,2.2,11.1c0.9,2.7,2,5.2,3.3,7.5c-12.1-6-26.2-7.1-39.7-1.6c-0.3,0.1-0.5,0.2-0.8,0.3c-3.5-2.5-7.7-4-12.3-4
	c-11.6,0-21,9.4-21,21c0,3.6,0.9,7,2.5,10C49.8,772.1,46,785.1,46,799c0,13,3.3,25.2,9.1,35.8C34,847.8,20,871,20,897.5
	c0,15.8,5,30.5,13.5,42.5C22.7,944.2,15,954.7,15,967c0,8.5,3.7,16.1,9.5,21.4C2,1008,6.7,1066.5,0,1073.4v6.6h1920v1.3
	c-4-19.3,7-58.3-44.6-77.7c4.5-6.4,6.5-14.7,4.7-23c-2.6-12-12.4-20.7-23.9-22.4c5.7-13.5,7.5-28.9,4.1-44.4
	c-5.7-25.9-24.4-45.6-47.7-53.7c3.4-11.6,4-24.3,1.2-36.9c-5.9-27-25.7-47.3-50.1-55.3l0.4-0.6c-0.2,0.1-0.5,0.3-0.7,0.4
	c-6-18-20.6-31.3-38.2-34c1-2.9,1.5-6.1,1.5-9.4c0-1.4-0.1-2.8-0.3-4.2c9.3-0.3,16.8-8.7,16.8-19c0-2.4-0.4-4.8-1.2-6.9
	c2.7-2.4,4.9-5.6,6.1-9.2c9.8-0.2,18.2-5.7,22.7-13.7c2.9,6.3,9.3,10.7,16.8,10.7c10.2,0,18.5-8.3,18.5-18.5c0-1.5-0.2-2.9-0.5-4.3
	c9.8-4.7,16.5-14.6,16.5-26.2c0-2.2-0.3-4.4-0.7-6.5c2.9-2.2,4.7-5.6,4.7-9.5c0-5.6-3.9-10.3-9.1-11.6c2.5-3.5,4.1-7.7,4.1-12.4
	c0-1.8-0.2-3.5-0.6-5.1c2.1,0.7,4.3,1.1,6.6,1.1c11.6,0,21-9.4,21-21c0-0.9-0.1-1.8-0.2-2.7c5.6,5.4,13.3,8.7,21.7,8.7
	c17.4,0,31.5-14.1,31.5-31.5c0-10.9-5.5-20.4-13.9-26.1c2.2-2.6,3.6-6,3.8-9.6c4,3.9,9.5,6.2,15.5,6.2c12.4,0,22.5-10.1,22.5-22.5
	c0-5.1-1.7-9.8-4.5-13.5c0.2,0,0.3,0,0.5,0c11.6,0,21-9.4,21-21s-9.4-21-21-21s-21,9.4-21,21c0,4.5,1.4,8.6,3.8,12
	c-0.4,0-0.9,0-1.3,0c-12.4,0-22.5,10.1-22.5,22.5c0,0.8,0,1.6,0.1,2.4c-2.6-1.8-5.7-2.9-9.1-2.9c-6.7,0-12.5,4.2-14.8,10
	c-8.4,0.4-15.2,7.4-15.2,16c0,1.9,0.4,3.8,1,5.5c-5,5.6-8,12.9-8,21c0,2.9,0.4,5.7,1.1,8.4c-3.4-2.4-7.6-3.9-12.1-3.9
	c-6.2,0-11.8,2.7-15.6,7c-1.9-0.6-3.8-1-5.9-1c-10.2,0-18.5,8.3-18.5,18.5c0,1.6,0.2,3.1,0.6,4.6c-5.2,3.8-8.6,10-8.6,16.9
	c0,4.8,1.6,9.1,4.3,12.7c-11.2,4-19.3,14.7-19.3,27.3c0,1.8,0.2,3.5,0.5,5.1c-4.6-3.8-10.5-6.1-17-6.1c-10.1,0-18.9,5.6-23.3,13.9
	c-4.8,1.9-8.2,6.6-8.2,12.1c0,1.9,0.4,3.7,1.2,5.4c-3.3,3.7-5.4,8.9-5.4,14.5c0,3.5,0.8,6.7,2.2,9.6c-2.6,2.8-4.3,6.4-4.9,10.5
	c-2.2-0.7-4.6-1.1-7-1.1c-13.7,0-24.7,12.2-24.7,27.3c0,9,4,17.1,10.1,22c-1.6,1.6-3.1,3.2-4.5,5c-16.8-15.8-38.6-25.4-62.4-25.4
	c-7.6,0-15,1-22.1,2.8c1-3.7,1.6-7.5,1.7-11.5c0.3-8.9-1.8-17.2-5.6-24.4c9.5-7.4,15.9-19.4,16.3-33.2c0.4-12.9-4.6-24.7-12.6-32.7
	c4.7-1.9,9.1-4.6,12.9-8.1c9.6-3.8,17.8-11,23.3-20.3c6.7,5.4,14.9,8.7,23.7,9c23.6,0.8,43.3-19.6,44.1-45.7
	c0.7-23.3-14.1-43.2-34-47.7c1.4-1.7,2.6-3.6,3.7-5.6c13.3,0,24.7-9.2,29.3-22.2c15.5-7.7,26.5-24.5,27.1-44.5
	c0.3-9.4-1.8-18.3-5.7-26c1.1,0.1,2.3,0.2,3.4,0.2c31.5,1.1,57.8-26.2,58.8-60.9c0-0.1,0-0.2,0-0.4c11.8-1.4,21.8-10.2,25.9-22.1
	c4.5,5.4,10.8,8.9,18,9.1c14.1,0.5,25.8-11.7,26.3-27.2c0.1-3.8-0.5-7.4-1.6-10.7c13.9-7.6,23.6-23.2,24.1-41.5
	c0.2-7.7-1.2-15.1-4-21.7h0.1c12.7,0.4,23.6-9.5,25.9-22.9c2,0.4,4.1,0.7,6.3,0.8c21.5,0.8,39.5-17.9,40.2-41.7
	c0.2-7.7-1.4-15-4.5-21.4c5.3-7.6,8.6-17,8.9-27.3c0.4-15-5.5-28.5-15.1-37.5c0.1-0.1,0.2-0.3,0.3-0.4c0.8,0.1,1.6,0.1,2.4,0.2
	c20.7,0.7,38-17.2,38.7-40.1C1977.5,27.3,1961.2,8.2,1940.5,7.5z M1527.3,804.1c-1.6-0.1-3.2-0.1-4.8-0.1c-17.6,0-34.5,3.5-50.1,10
	c-0.1-3.2-0.6-6.3-1.4-9.3c0.2-1.6,0.4-3.2,0.4-4.9c0.3-10.9-3.6-20.9-10-28c4.9-1.8,9.5-4.5,13.5-8c3.2,2,7,3.2,10.9,3.4
	c12.8,0.4,23.5-10.2,24.7-24c0.5,0,1,0.1,1.5,0.1c4.3,0.2,8.5-0.5,12.5-1.7c5.8,9.3,14.6,16.2,24.9,18.8
	C1539.1,772.5,1531.4,787.5,1527.3,804.1z"/>
</svg>
